<?xml version="1.0" encoding="UTF-8" standalone="no"?>
<!DOCTYPE svg PUBLIC "-//W3C//DTD SVG 1.1//EN"
 "http://www.w3.org/Graphics/SVG/1.1/DTD/svg11.dtd">
<!-- Generated by graphviz version 2.26.3 (20100126.1600)
 -->
<!-- Title: controllers_diagram Pages: 1 -->
<svg width="1109pt" height="1049pt"
 viewBox="0.00 0.00 1109.00 1049.00" xmlns="http://www.w3.org/2000/svg" xmlns:xlink="http://www.w3.org/1999/xlink">
<g id="graph1" class="graph" transform="scale(1 1) rotate(0) translate(4 1045)">
<title>controllers_diagram</title>
<polygon fill="white" stroke="white" points="-4,5 -4,-1045 1106,-1045 1106,5 -4,5"/>
<!-- _diagram_info -->
<g id="node1" class="node"><title>_diagram_info</title>
<text text-anchor="start" x="549" y="-97.3" font-family="Times Roman,serif" font-size="13.00">Controllers diagram</text>
<text text-anchor="start" x="549" y="-80.3" font-family="Times Roman,serif" font-size="13.00">Date: Apr 27 2013 &#45; 02:18</text>
<text text-anchor="start" x="549" y="-63.3" font-family="Times Roman,serif" font-size="13.00">Generated by RailRoady 1.1.0</text>
<text text-anchor="start" x="549" y="-46.3" font-family="Times Roman,serif" font-size="13.00">http://railroady.prestonlee.com</text>
</g>
<!-- UsersController -->
<g id="node2" class="node"><title>UsersController</title>
<polyline fill="none" stroke="black" points="13,-329.515 227,-329.515 "/>
<path fill="none" stroke="black" d="M227,-329.515C233,-329.515 239,-335.515 239,-341.515"/>
<polyline fill="none" stroke="black" points="239,-341.515 239,-581.515 "/>
<path fill="none" stroke="black" d="M239,-581.515C239,-587.515 233,-593.515 227,-593.515"/>
<polyline fill="none" stroke="black" points="227,-593.515 13,-593.515 "/>
<path fill="none" stroke="black" d="M13,-593.515C7,-593.515 1,-587.515 1,-581.515"/>
<polyline fill="none" stroke="black" points="1,-581.515 1,-341.515 "/>
<path fill="none" stroke="black" d="M1,-341.515C1,-335.515 7,-329.515 13,-329.515"/>
<text text-anchor="middle" x="120" y="-576.915" font-family="Times Roman,serif" font-size="14.00">UsersController</text>
<polyline fill="none" stroke="black" points="1,-567.515 239,-567.515 "/>
<text text-anchor="start" x="9" y="-550.915" font-family="Times Roman,serif" font-size="14.00">_one_time_conditions_valid_36?</text>
<text text-anchor="start" x="9" y="-532.915" font-family="Times Roman,serif" font-size="14.00">authorize</text>
<text text-anchor="start" x="9" y="-514.915" font-family="Times Roman,serif" font-size="14.00">create</text>
<text text-anchor="start" x="9" y="-496.915" font-family="Times Roman,serif" font-size="14.00">destroy</text>
<text text-anchor="start" x="9" y="-478.915" font-family="Times Roman,serif" font-size="14.00">edit</text>
<text text-anchor="start" x="9" y="-460.915" font-family="Times Roman,serif" font-size="14.00">login</text>
<text text-anchor="start" x="9" y="-442.915" font-family="Times Roman,serif" font-size="14.00">logout</text>
<text text-anchor="start" x="9" y="-424.915" font-family="Times Roman,serif" font-size="14.00">register</text>
<text text-anchor="start" x="9" y="-406.915" font-family="Times Roman,serif" font-size="14.00">show</text>
<text text-anchor="start" x="9" y="-388.915" font-family="Times Roman,serif" font-size="14.00">update</text>
<polyline fill="none" stroke="black" points="1,-379.515 239,-379.515 "/>
<polyline fill="none" stroke="black" points="1,-355.515 239,-355.515 "/>
<text text-anchor="start" x="9" y="-338.915" font-family="Times Roman,serif" font-size="14.00">_layout</text>
</g>
<!-- ApplicationController -->
<g id="node3" class="node"><title>ApplicationController</title>
<polyline fill="none" stroke="black" points="298.914,-342.675 512.914,-342.675 "/>
<path fill="none" stroke="black" d="M512.914,-342.675C518.914,-342.675 524.914,-348.675 524.914,-354.675"/>
<polyline fill="none" stroke="black" points="524.914,-354.675 524.914,-558.675 "/>
<path fill="none" stroke="black" d="M524.914,-558.675C524.914,-564.675 518.914,-570.675 512.914,-570.675"/>
<polyline fill="none" stroke="black" points="512.914,-570.675 298.914,-570.675 "/>
<path fill="none" stroke="black" d="M298.914,-570.675C292.914,-570.675 286.914,-564.675 286.914,-558.675"/>
<polyline fill="none" stroke="black" points="286.914,-558.675 286.914,-354.675 "/>
<path fill="none" stroke="black" d="M286.914,-354.675C286.914,-348.675 292.914,-342.675 298.914,-342.675"/>
<text text-anchor="middle" x="405.914" y="-554.075" font-family="Times Roman,serif" font-size="14.00">ApplicationController</text>
<polyline fill="none" stroke="black" points="286.914,-544.675 524.914,-544.675 "/>
<text text-anchor="start" x="294.914" y="-528.075" font-family="Times Roman,serif" font-size="14.00">_one_time_conditions_valid_12?</text>
<text text-anchor="start" x="294.914" y="-510.075" font-family="Times Roman,serif" font-size="14.00">_one_time_conditions_valid_14?</text>
<text text-anchor="start" x="294.914" y="-492.075" font-family="Times Roman,serif" font-size="14.00">admin_filter</text>
<text text-anchor="start" x="294.914" y="-474.075" font-family="Times Roman,serif" font-size="14.00">current_user</text>
<text text-anchor="start" x="294.914" y="-456.075" font-family="Times Roman,serif" font-size="14.00">generate_random_token</text>
<text text-anchor="start" x="294.914" y="-438.075" font-family="Times Roman,serif" font-size="14.00">login_filter</text>
<text text-anchor="start" x="294.914" y="-420.075" font-family="Times Roman,serif" font-size="14.00">login_user</text>
<text text-anchor="start" x="294.914" y="-402.075" font-family="Times Roman,serif" font-size="14.00">logout_user</text>
<polyline fill="none" stroke="black" points="286.914,-392.675 524.914,-392.675 "/>
<polyline fill="none" stroke="black" points="286.914,-368.675 524.914,-368.675 "/>
<text text-anchor="start" x="294.914" y="-352.075" font-family="Times Roman,serif" font-size="14.00">_layout</text>
</g>
<!-- ApplicationController&#45;&gt;UsersController -->
<g id="edge2" class="edge"><title>ApplicationController&#45;&gt;UsersController</title>
<path fill="none" stroke="black" d="M286.731,-458.693C271.102,-458.957 255.083,-459.228 239.45,-459.493"/>
</g>
<!-- OauthController -->
<g id="node4" class="node"><title>OauthController</title>
<polyline fill="none" stroke="black" points="653.028,-162.109 758.028,-162.109 "/>
<path fill="none" stroke="black" d="M758.028,-162.109C764.028,-162.109 770.028,-168.109 770.028,-174.109"/>
<polyline fill="none" stroke="black" points="770.028,-174.109 770.028,-254.109 "/>
<path fill="none" stroke="black" d="M770.028,-254.109C770.028,-260.109 764.028,-266.109 758.028,-266.109"/>
<polyline fill="none" stroke="black" points="758.028,-266.109 653.028,-266.109 "/>
<path fill="none" stroke="black" d="M653.028,-266.109C647.028,-266.109 641.028,-260.109 641.028,-254.109"/>
<polyline fill="none" stroke="black" points="641.028,-254.109 641.028,-174.109 "/>
<path fill="none" stroke="black" d="M641.028,-174.109C641.028,-168.109 647.028,-162.109 653.028,-162.109"/>
<text text-anchor="middle" x="705.528" y="-249.509" font-family="Times Roman,serif" font-size="14.00">OauthController</text>
<polyline fill="none" stroke="black" points="641.028,-240.109 770.028,-240.109 "/>
<text text-anchor="start" x="649.028" y="-223.509" font-family="Times Roman,serif" font-size="14.00">create</text>
<polyline fill="none" stroke="black" points="641.028,-214.109 770.028,-214.109 "/>
<text text-anchor="start" x="649.028" y="-197.509" font-family="Times Roman,serif" font-size="14.00">auth_hash</text>
<polyline fill="none" stroke="black" points="641.028,-188.109 770.028,-188.109 "/>
<text text-anchor="start" x="649.028" y="-171.509" font-family="Times Roman,serif" font-size="14.00">_layout</text>
</g>
<!-- ApplicationController&#45;&gt;OauthController -->
<g id="edge4" class="edge"><title>ApplicationController&#45;&gt;OauthController</title>
<path fill="none" stroke="black" d="M525.191,-360.109C564.682,-328.137 607.13,-293.771 640.917,-266.418"/>
</g>
<!-- AjaxController -->
<g id="node5" class="node"><title>AjaxController</title>
<polyline fill="none" stroke="black" points="362.104,-629.989 488.104,-629.989 "/>
<path fill="none" stroke="black" d="M488.104,-629.989C494.104,-629.989 500.104,-635.989 500.104,-641.989"/>
<polyline fill="none" stroke="black" points="500.104,-641.989 500.104,-755.989 "/>
<path fill="none" stroke="black" d="M500.104,-755.989C500.104,-761.989 494.104,-767.989 488.104,-767.989"/>
<polyline fill="none" stroke="black" points="488.104,-767.989 362.104,-767.989 "/>
<path fill="none" stroke="black" d="M362.104,-767.989C356.104,-767.989 350.104,-761.989 350.104,-755.989"/>
<polyline fill="none" stroke="black" points="350.104,-755.989 350.104,-641.989 "/>
<path fill="none" stroke="black" d="M350.104,-641.989C350.104,-635.989 356.104,-629.989 362.104,-629.989"/>
<text text-anchor="middle" x="425.104" y="-751.389" font-family="Times Roman,serif" font-size="14.00">AjaxController</text>
<polyline fill="none" stroke="black" points="350.104,-741.989 500.104,-741.989 "/>
<text text-anchor="start" x="358.104" y="-725.389" font-family="Times Roman,serif" font-size="14.00">check_ajax</text>
<text text-anchor="start" x="358.104" y="-707.389" font-family="Times Roman,serif" font-size="14.00">convert_markdown</text>
<text text-anchor="start" x="358.104" y="-689.389" font-family="Times Roman,serif" font-size="14.00">upload_image</text>
<polyline fill="none" stroke="black" points="350.104,-679.989 500.104,-679.989 "/>
<polyline fill="none" stroke="black" points="350.104,-655.989 500.104,-655.989 "/>
<text text-anchor="start" x="358.104" y="-639.389" font-family="Times Roman,serif" font-size="14.00">_layout</text>
</g>
<!-- ApplicationController&#45;&gt;AjaxController -->
<g id="edge6" class="edge"><title>ApplicationController&#45;&gt;AjaxController</title>
<path fill="none" stroke="black" d="M414.947,-570.736C416.542,-590.868 418.157,-611.261 419.616,-629.683"/>
</g>
<!-- AdminController -->
<g id="node6" class="node"><title>AdminController</title>
<polyline fill="none" stroke="black" points="658.086,-648.005 763.086,-648.005 "/>
<path fill="none" stroke="black" d="M763.086,-648.005C769.086,-648.005 775.086,-654.005 775.086,-660.005"/>
<polyline fill="none" stroke="black" points="775.086,-660.005 775.086,-736.005 "/>
<path fill="none" stroke="black" d="M775.086,-736.005C775.086,-742.005 769.086,-748.005 763.086,-748.005"/>
<polyline fill="none" stroke="black" points="763.086,-748.005 658.086,-748.005 "/>
<path fill="none" stroke="black" d="M658.086,-748.005C652.086,-748.005 646.086,-742.005 646.086,-736.005"/>
<polyline fill="none" stroke="black" points="646.086,-736.005 646.086,-660.005 "/>
<path fill="none" stroke="black" d="M646.086,-660.005C646.086,-654.005 652.086,-648.005 658.086,-648.005"/>
<text text-anchor="middle" x="710.586" y="-731.405" font-family="Times Roman,serif" font-size="14.00">AdminController</text>
<polyline fill="none" stroke="black" points="646.086,-722.005 775.086,-722.005 "/>
<polyline fill="none" stroke="black" points="646.086,-698.005 775.086,-698.005 "/>
<polyline fill="none" stroke="black" points="646.086,-674.005 775.086,-674.005 "/>
<text text-anchor="start" x="654.086" y="-657.405" font-family="Times Roman,serif" font-size="14.00">_layout</text>
</g>
<!-- ApplicationController&#45;&gt;AdminController -->
<g id="edge8" class="edge"><title>ApplicationController&#45;&gt;AdminController</title>
<path fill="none" stroke="black" d="M525.017,-551.016C566.742,-584.066 611.963,-619.886 647.318,-647.89"/>
</g>
<!-- Contests::ScoresController -->
<g id="node9" class="node"><title>Contests::ScoresController</title>
<polyline fill="none" stroke="black" points="24.1146,-633.213 238.115,-633.213 "/>
<path fill="none" stroke="black" d="M238.115,-633.213C244.115,-633.213 250.115,-639.213 250.115,-645.213"/>
<polyline fill="none" stroke="black" points="250.115,-645.213 250.115,-759.213 "/>
<path fill="none" stroke="black" d="M250.115,-759.213C250.115,-765.213 244.115,-771.213 238.115,-771.213"/>
<polyline fill="none" stroke="black" points="238.115,-771.213 24.1146,-771.213 "/>
<path fill="none" stroke="black" d="M24.1146,-771.213C18.1146,-771.213 12.1146,-765.213 12.1146,-759.213"/>
<polyline fill="none" stroke="black" points="12.1146,-759.213 12.1146,-645.213 "/>
<path fill="none" stroke="black" d="M12.1146,-645.213C12.1146,-639.213 18.1146,-633.213 24.1146,-633.213"/>
<text text-anchor="middle" x="131.115" y="-754.613" font-family="Times Roman,serif" font-size="14.00">Contests::ScoresController</text>
<polyline fill="none" stroke="black" points="12.1146,-745.213 250.115,-745.213 "/>
<text text-anchor="start" x="20.1146" y="-728.613" font-family="Times Roman,serif" font-size="14.00">_one_time_conditions_valid_92?</text>
<text text-anchor="start" x="20.1146" y="-710.613" font-family="Times Roman,serif" font-size="14.00">show</text>
<polyline fill="none" stroke="black" points="12.1146,-701.213 250.115,-701.213 "/>
<polyline fill="none" stroke="black" points="12.1146,-677.213 250.115,-677.213 "/>
<text text-anchor="start" x="20.1146" y="-660.613" font-family="Times Roman,serif" font-size="14.00">_layout</text>
<text text-anchor="start" x="20.1146" y="-642.613" font-family="Times Roman,serif" font-size="14.00">load_contest</text>
</g>
<!-- ApplicationController&#45;&gt;Contests::ScoresController -->
<g id="edge10" class="edge"><title>ApplicationController&#45;&gt;Contests::ScoresController</title>
<path fill="none" stroke="black" d="M286.582,-563.3C260.075,-586.985 232.656,-611.484 208.362,-633.191"/>
</g>
<!-- AuthController -->
<g id="node13" class="node"><title>AuthController</title>
<polyline fill="none" stroke="black" points="18.603,-165.535 232.603,-165.535 "/>
<path fill="none" stroke="black" d="M232.603,-165.535C238.603,-165.535 244.603,-171.535 244.603,-177.535"/>
<polyline fill="none" stroke="black" points="244.603,-177.535 244.603,-255.535 "/>
<path fill="none" stroke="black" d="M244.603,-255.535C244.603,-261.535 238.603,-267.535 232.603,-267.535"/>
<polyline fill="none" stroke="black" points="232.603,-267.535 18.603,-267.535 "/>
<path fill="none" stroke="black" d="M18.603,-267.535C12.603,-267.535 6.60301,-261.535 6.60301,-255.535"/>
<polyline fill="none" stroke="black" points="6.60301,-255.535 6.60301,-177.535 "/>
<path fill="none" stroke="black" d="M6.60301,-177.535C6.60301,-171.535 12.603,-165.535 18.603,-165.535"/>
<text text-anchor="middle" x="125.603" y="-250.935" font-family="Times Roman,serif" font-size="14.00">AuthController</text>
<polyline fill="none" stroke="black" points="6.60301,-241.535 244.603,-241.535 "/>
<text text-anchor="start" x="14.603" y="-224.935" font-family="Times Roman,serif" font-size="14.00">_one_time_conditions_valid_40?</text>
<polyline fill="none" stroke="black" points="6.60301,-215.535 244.603,-215.535 "/>
<polyline fill="none" stroke="black" points="6.60301,-191.535 244.603,-191.535 "/>
<text text-anchor="start" x="14.603" y="-174.935" font-family="Times Roman,serif" font-size="14.00">_layout</text>
</g>
<!-- ApplicationController&#45;&gt;AuthController -->
<g id="edge12" class="edge"><title>ApplicationController&#45;&gt;AuthController</title>
<path fill="none" stroke="black" d="M286.631,-354.486C251.613,-324.487 214.817,-292.964 185.253,-267.637"/>
</g>
<!-- GroupsController -->
<g id="node14" class="node"><title>GroupsController</title>
<polyline fill="none" stroke="black" points="588.763,-331.915 811.763,-331.915 "/>
<path fill="none" stroke="black" d="M811.763,-331.915C817.763,-331.915 823.763,-337.915 823.763,-343.915"/>
<polyline fill="none" stroke="black" points="823.763,-343.915 823.763,-565.915 "/>
<path fill="none" stroke="black" d="M823.763,-565.915C823.763,-571.915 817.763,-577.915 811.763,-577.915"/>
<polyline fill="none" stroke="black" points="811.763,-577.915 588.763,-577.915 "/>
<path fill="none" stroke="black" d="M588.763,-577.915C582.763,-577.915 576.763,-571.915 576.763,-565.915"/>
<polyline fill="none" stroke="black" points="576.763,-565.915 576.763,-343.915 "/>
<path fill="none" stroke="black" d="M576.763,-343.915C576.763,-337.915 582.763,-331.915 588.763,-331.915"/>
<text text-anchor="middle" x="700.263" y="-561.315" font-family="Times Roman,serif" font-size="14.00">GroupsController</text>
<polyline fill="none" stroke="black" points="576.763,-551.915 823.763,-551.915 "/>
<text text-anchor="start" x="584.763" y="-535.315" font-family="Times Roman,serif" font-size="14.00">_one_time_conditions_valid_112?</text>
<text text-anchor="start" x="584.763" y="-517.315" font-family="Times Roman,serif" font-size="14.00">create</text>
<text text-anchor="start" x="584.763" y="-499.315" font-family="Times Roman,serif" font-size="14.00">destroy</text>
<text text-anchor="start" x="584.763" y="-481.315" font-family="Times Roman,serif" font-size="14.00">edit</text>
<text text-anchor="start" x="584.763" y="-463.315" font-family="Times Roman,serif" font-size="14.00">index</text>
<text text-anchor="start" x="584.763" y="-445.315" font-family="Times Roman,serif" font-size="14.00">join</text>
<text text-anchor="start" x="584.763" y="-427.315" font-family="Times Roman,serif" font-size="14.00">new</text>
<text text-anchor="start" x="584.763" y="-409.315" font-family="Times Roman,serif" font-size="14.00">show</text>
<text text-anchor="start" x="584.763" y="-391.315" font-family="Times Roman,serif" font-size="14.00">update</text>
<polyline fill="none" stroke="black" points="576.763,-381.915 823.763,-381.915 "/>
<polyline fill="none" stroke="black" points="576.763,-357.915 823.763,-357.915 "/>
<text text-anchor="start" x="584.763" y="-341.315" font-family="Times Roman,serif" font-size="14.00">_layout</text>
</g>
<!-- ApplicationController&#45;&gt;GroupsController -->
<g id="edge14" class="edge"><title>ApplicationController&#45;&gt;GroupsController</title>
<path fill="none" stroke="black" d="M525.213,-455.962C542.105,-455.861 559.506,-455.757 576.481,-455.655"/>
</g>
<!-- ImagesController -->
<g id="node16" class="node"><title>ImagesController</title>
<polyline fill="none" stroke="black" points="360.098,-109.5 470.098,-109.5 "/>
<path fill="none" stroke="black" d="M470.098,-109.5C476.098,-109.5 482.098,-115.5 482.098,-121.5"/>
<polyline fill="none" stroke="black" points="482.098,-121.5 482.098,-307.5 "/>
<path fill="none" stroke="black" d="M482.098,-307.5C482.098,-313.5 476.098,-319.5 470.098,-319.5"/>
<polyline fill="none" stroke="black" points="470.098,-319.5 360.098,-319.5 "/>
<path fill="none" stroke="black" d="M360.098,-319.5C354.098,-319.5 348.098,-313.5 348.098,-307.5"/>
<polyline fill="none" stroke="black" points="348.098,-307.5 348.098,-121.5 "/>
<path fill="none" stroke="black" d="M348.098,-121.5C348.098,-115.5 354.098,-109.5 360.098,-109.5"/>
<text text-anchor="middle" x="415.098" y="-302.9" font-family="Times Roman,serif" font-size="14.00">ImagesController</text>
<polyline fill="none" stroke="black" points="348.098,-293.5 482.098,-293.5 "/>
<text text-anchor="start" x="356.098" y="-276.9" font-family="Times Roman,serif" font-size="14.00">create</text>
<text text-anchor="start" x="356.098" y="-258.9" font-family="Times Roman,serif" font-size="14.00">destroy</text>
<text text-anchor="start" x="356.098" y="-240.9" font-family="Times Roman,serif" font-size="14.00">edit</text>
<text text-anchor="start" x="356.098" y="-222.9" font-family="Times Roman,serif" font-size="14.00">index</text>
<text text-anchor="start" x="356.098" y="-204.9" font-family="Times Roman,serif" font-size="14.00">new</text>
<text text-anchor="start" x="356.098" y="-186.9" font-family="Times Roman,serif" font-size="14.00">show</text>
<text text-anchor="start" x="356.098" y="-168.9" font-family="Times Roman,serif" font-size="14.00">update</text>
<polyline fill="none" stroke="black" points="348.098,-159.5 482.098,-159.5 "/>
<polyline fill="none" stroke="black" points="348.098,-135.5 482.098,-135.5 "/>
<text text-anchor="start" x="356.098" y="-118.9" font-family="Times Roman,serif" font-size="14.00">_layout</text>
</g>
<!-- ApplicationController&#45;&gt;ImagesController -->
<g id="edge16" class="edge"><title>ApplicationController&#45;&gt;ImagesController</title>
<path fill="none" stroke="black" d="M410.251,-342.325C410.539,-334.732 410.828,-327.103 411.114,-319.559"/>
</g>
<!-- ContestsController -->
<g id="node7" class="node"><title>ContestsController</title>
<polyline fill="none" stroke="black" points="301,-829.5 515,-829.5 "/>
<path fill="none" stroke="black" d="M515,-829.5C521,-829.5 527,-835.5 527,-841.5"/>
<polyline fill="none" stroke="black" points="527,-841.5 527,-955.5 "/>
<path fill="none" stroke="black" d="M527,-955.5C527,-961.5 521,-967.5 515,-967.5"/>
<polyline fill="none" stroke="black" points="515,-967.5 301,-967.5 "/>
<path fill="none" stroke="black" d="M301,-967.5C295,-967.5 289,-961.5 289,-955.5"/>
<polyline fill="none" stroke="black" points="289,-955.5 289,-841.5 "/>
<path fill="none" stroke="black" d="M289,-841.5C289,-835.5 295,-829.5 301,-829.5"/>
<text text-anchor="middle" x="408" y="-950.9" font-family="Times Roman,serif" font-size="14.00">ContestsController</text>
<polyline fill="none" stroke="black" points="289,-941.5 527,-941.5 "/>
<text text-anchor="start" x="297" y="-924.9" font-family="Times Roman,serif" font-size="14.00">_one_time_conditions_valid_58?</text>
<text text-anchor="start" x="297" y="-906.9" font-family="Times Roman,serif" font-size="14.00">index</text>
<text text-anchor="start" x="297" y="-888.9" font-family="Times Roman,serif" font-size="14.00">show</text>
<polyline fill="none" stroke="black" points="289,-879.5 527,-879.5 "/>
<polyline fill="none" stroke="black" points="289,-855.5 527,-855.5 "/>
<text text-anchor="start" x="297" y="-838.9" font-family="Times Roman,serif" font-size="14.00">_layout</text>
</g>
<!-- Contests::ProblemsController -->
<g id="node8" class="node"><title>Contests::ProblemsController</title>
<polyline fill="none" stroke="black" points="841,-37.5 1055,-37.5 "/>
<path fill="none" stroke="black" d="M1055,-37.5C1061,-37.5 1067,-43.5 1067,-49.5"/>
<polyline fill="none" stroke="black" points="1067,-49.5 1067,-271.5 "/>
<path fill="none" stroke="black" d="M1067,-271.5C1067,-277.5 1061,-283.5 1055,-283.5"/>
<polyline fill="none" stroke="black" points="1055,-283.5 841,-283.5 "/>
<path fill="none" stroke="black" d="M841,-283.5C835,-283.5 829,-277.5 829,-271.5"/>
<polyline fill="none" stroke="black" points="829,-271.5 829,-49.5 "/>
<path fill="none" stroke="black" d="M829,-49.5C829,-43.5 835,-37.5 841,-37.5"/>
<text text-anchor="middle" x="948" y="-266.9" font-family="Times Roman,serif" font-size="14.00">Contests::ProblemsController</text>
<polyline fill="none" stroke="black" points="829,-257.5 1067,-257.5 "/>
<text text-anchor="start" x="837" y="-240.9" font-family="Times Roman,serif" font-size="14.00">_one_time_conditions_valid_76?</text>
<text text-anchor="start" x="837" y="-222.9" font-family="Times Roman,serif" font-size="14.00">download</text>
<text text-anchor="start" x="837" y="-204.9" font-family="Times Roman,serif" font-size="14.00">download_large</text>
<text text-anchor="start" x="837" y="-186.9" font-family="Times Roman,serif" font-size="14.00">download_small</text>
<text text-anchor="start" x="837" y="-168.9" font-family="Times Roman,serif" font-size="14.00">index</text>
<text text-anchor="start" x="837" y="-150.9" font-family="Times Roman,serif" font-size="14.00">show</text>
<text text-anchor="start" x="837" y="-132.9" font-family="Times Roman,serif" font-size="14.00">submit</text>
<polyline fill="none" stroke="black" points="829,-123.5 1067,-123.5 "/>
<polyline fill="none" stroke="black" points="829,-99.5 1067,-99.5 "/>
<text text-anchor="start" x="837" y="-82.9" font-family="Times Roman,serif" font-size="14.00">_layout</text>
<text text-anchor="start" x="837" y="-64.9" font-family="Times Roman,serif" font-size="14.00">calculate_score</text>
<text text-anchor="start" x="837" y="-46.9" font-family="Times Roman,serif" font-size="14.00">load_contest</text>
</g>
<!-- Admin::UsersController -->
<g id="node10" class="node"><title>Admin::UsersController</title>
<polyline fill="none" stroke="black" points="49,-829.5 201,-829.5 "/>
<path fill="none" stroke="black" d="M201,-829.5C207,-829.5 213,-835.5 213,-841.5"/>
<polyline fill="none" stroke="black" points="213,-841.5 213,-1027.5 "/>
<path fill="none" stroke="black" d="M213,-1027.5C213,-1033.5 207,-1039.5 201,-1039.5"/>
<polyline fill="none" stroke="black" points="201,-1039.5 49,-1039.5 "/>
<path fill="none" stroke="black" d="M49,-1039.5C43,-1039.5 37,-1033.5 37,-1027.5"/>
<polyline fill="none" stroke="black" points="37,-1027.5 37,-841.5 "/>
<path fill="none" stroke="black" d="M37,-841.5C37,-835.5 43,-829.5 49,-829.5"/>
<text text-anchor="middle" x="125" y="-1022.9" font-family="Times Roman,serif" font-size="14.00">Admin::UsersController</text>
<polyline fill="none" stroke="black" points="37,-1013.5 213,-1013.5 "/>
<text text-anchor="start" x="45" y="-996.9" font-family="Times Roman,serif" font-size="14.00">create</text>
<text text-anchor="start" x="45" y="-978.9" font-family="Times Roman,serif" font-size="14.00">destroy</text>
<text text-anchor="start" x="45" y="-960.9" font-family="Times Roman,serif" font-size="14.00">edit</text>
<text text-anchor="start" x="45" y="-942.9" font-family="Times Roman,serif" font-size="14.00">index</text>
<text text-anchor="start" x="45" y="-924.9" font-family="Times Roman,serif" font-size="14.00">new</text>
<text text-anchor="start" x="45" y="-906.9" font-family="Times Roman,serif" font-size="14.00">show</text>
<text text-anchor="start" x="45" y="-888.9" font-family="Times Roman,serif" font-size="14.00">update</text>
<polyline fill="none" stroke="black" points="37,-879.5 213,-879.5 "/>
<polyline fill="none" stroke="black" points="37,-855.5 213,-855.5 "/>
<text text-anchor="start" x="45" y="-838.9" font-family="Times Roman,serif" font-size="14.00">_layout</text>
</g>
<!-- Admin::ContestsController -->
<g id="node11" class="node"><title>Admin::ContestsController</title>
<polyline fill="none" stroke="black" points="589,-829.5 764,-829.5 "/>
<path fill="none" stroke="black" d="M764,-829.5C770,-829.5 776,-835.5 776,-841.5"/>
<polyline fill="none" stroke="black" points="776,-841.5 776,-1027.5 "/>
<path fill="none" stroke="black" d="M776,-1027.5C776,-1033.5 770,-1039.5 764,-1039.5"/>
<polyline fill="none" stroke="black" points="764,-1039.5 589,-1039.5 "/>
<path fill="none" stroke="black" d="M589,-1039.5C583,-1039.5 577,-1033.5 577,-1027.5"/>
<polyline fill="none" stroke="black" points="577,-1027.5 577,-841.5 "/>
<path fill="none" stroke="black" d="M577,-841.5C577,-835.5 583,-829.5 589,-829.5"/>
<text text-anchor="middle" x="676.5" y="-1022.9" font-family="Times Roman,serif" font-size="14.00">Admin::ContestsController</text>
<polyline fill="none" stroke="black" points="577,-1013.5 776,-1013.5 "/>
<text text-anchor="start" x="585" y="-996.9" font-family="Times Roman,serif" font-size="14.00">create</text>
<text text-anchor="start" x="585" y="-978.9" font-family="Times Roman,serif" font-size="14.00">destroy</text>
<text text-anchor="start" x="585" y="-960.9" font-family="Times Roman,serif" font-size="14.00">edit</text>
<text text-anchor="start" x="585" y="-942.9" font-family="Times Roman,serif" font-size="14.00">index</text>
<text text-anchor="start" x="585" y="-924.9" font-family="Times Roman,serif" font-size="14.00">new</text>
<text text-anchor="start" x="585" y="-906.9" font-family="Times Roman,serif" font-size="14.00">show</text>
<text text-anchor="start" x="585" y="-888.9" font-family="Times Roman,serif" font-size="14.00">update</text>
<polyline fill="none" stroke="black" points="577,-879.5 776,-879.5 "/>
<polyline fill="none" stroke="black" points="577,-855.5 776,-855.5 "/>
<text text-anchor="start" x="585" y="-838.9" font-family="Times Roman,serif" font-size="14.00">_layout</text>
</g>
<!-- Admin::Contests::ProblemsController -->
<g id="node12" class="node"><title>Admin::Contests::ProblemsController</title>
<polyline fill="none" stroke="black" points="841,-649.5 1088,-649.5 "/>
<path fill="none" stroke="black" d="M1088,-649.5C1094,-649.5 1100,-655.5 1100,-661.5"/>
<polyline fill="none" stroke="black" points="1100,-661.5 1100,-937.5 "/>
<path fill="none" stroke="black" d="M1100,-937.5C1100,-943.5 1094,-949.5 1088,-949.5"/>
<polyline fill="none" stroke="black" points="1088,-949.5 841,-949.5 "/>
<path fill="none" stroke="black" d="M841,-949.5C835,-949.5 829,-943.5 829,-937.5"/>
<polyline fill="none" stroke="black" points="829,-937.5 829,-661.5 "/>
<path fill="none" stroke="black" d="M829,-661.5C829,-655.5 835,-649.5 841,-649.5"/>
<text text-anchor="middle" x="964.5" y="-932.9" font-family="Times Roman,serif" font-size="14.00">Admin::Contests::ProblemsController</text>
<polyline fill="none" stroke="black" points="829,-923.5 1100,-923.5 "/>
<text text-anchor="start" x="837" y="-906.9" font-family="Times Roman,serif" font-size="14.00">_one_time_conditions_valid_94?</text>
<text text-anchor="start" x="837" y="-888.9" font-family="Times Roman,serif" font-size="14.00">create</text>
<text text-anchor="start" x="837" y="-870.9" font-family="Times Roman,serif" font-size="14.00">destroy</text>
<text text-anchor="start" x="837" y="-852.9" font-family="Times Roman,serif" font-size="14.00">download</text>
<text text-anchor="start" x="837" y="-834.9" font-family="Times Roman,serif" font-size="14.00">download_large</text>
<text text-anchor="start" x="837" y="-816.9" font-family="Times Roman,serif" font-size="14.00">download_small</text>
<text text-anchor="start" x="837" y="-798.9" font-family="Times Roman,serif" font-size="14.00">edit</text>
<text text-anchor="start" x="837" y="-780.9" font-family="Times Roman,serif" font-size="14.00">index</text>
<text text-anchor="start" x="837" y="-762.9" font-family="Times Roman,serif" font-size="14.00">new</text>
<text text-anchor="start" x="837" y="-744.9" font-family="Times Roman,serif" font-size="14.00">show</text>
<text text-anchor="start" x="837" y="-726.9" font-family="Times Roman,serif" font-size="14.00">update</text>
<polyline fill="none" stroke="black" points="829,-717.5 1100,-717.5 "/>
<polyline fill="none" stroke="black" points="829,-693.5 1100,-693.5 "/>
<text text-anchor="start" x="837" y="-676.9" font-family="Times Roman,serif" font-size="14.00">_layout</text>
<text text-anchor="start" x="837" y="-658.9" font-family="Times Roman,serif" font-size="14.00">load_contest</text>
</g>
<!-- TopController -->
<g id="node15" class="node"><title>TopController</title>
<polyline fill="none" stroke="black" points="13,-1.5 98,-1.5 "/>
<path fill="none" stroke="black" d="M98,-1.5C104,-1.5 110,-7.5 110,-13.5"/>
<polyline fill="none" stroke="black" points="110,-13.5 110,-91.5 "/>
<path fill="none" stroke="black" d="M110,-91.5C110,-97.5 104,-103.5 98,-103.5"/>
<polyline fill="none" stroke="black" points="98,-103.5 13,-103.5 "/>
<path fill="none" stroke="black" d="M13,-103.5C7,-103.5 1,-97.5 1,-91.5"/>
<polyline fill="none" stroke="black" points="1,-91.5 1,-13.5 "/>
<path fill="none" stroke="black" d="M1,-13.5C1,-7.5 7,-1.5 13,-1.5"/>
<text text-anchor="middle" x="55.5" y="-86.9" font-family="Times Roman,serif" font-size="14.00">TopController</text>
<polyline fill="none" stroke="black" points="1,-77.5 110,-77.5 "/>
<text text-anchor="start" x="9" y="-60.9" font-family="Times Roman,serif" font-size="14.00">index</text>
<polyline fill="none" stroke="black" points="1,-51.5 110,-51.5 "/>
<polyline fill="none" stroke="black" points="1,-27.5 110,-27.5 "/>
<text text-anchor="start" x="9" y="-10.9" font-family="Times Roman,serif" font-size="14.00">_layout</text>
</g>
</g>
</svg>
