<?xml version="1.0" encoding="UTF-8" standalone="no"?>
<!DOCTYPE svg PUBLIC "-//W3C//DTD SVG 1.1//EN"
 "http://www.w3.org/Graphics/SVG/1.1/DTD/svg11.dtd">
<!-- Generated by graphviz version 2.26.3 (20100126.1600)
 -->
<!-- Title: models_diagram Pages: 1 -->
<svg width="942pt" height="908pt"
 viewBox="0.00 0.00 942.00 908.00" xmlns="http://www.w3.org/2000/svg" xmlns:xlink="http://www.w3.org/1999/xlink">
<g id="graph1" class="graph" transform="scale(1 1) rotate(0) translate(4 904)">
<title>models_diagram</title>
<polygon fill="white" stroke="white" points="-4,5 -4,-904 939,-904 939,5 -4,5"/>
<!-- _diagram_info -->
<g id="node1" class="node"><title>_diagram_info</title>
<text text-anchor="start" x="8" y="-859.3" font-family="Times Roman,serif" font-size="13.00">Models diagram</text>
<text text-anchor="start" x="8" y="-842.3" font-family="Times Roman,serif" font-size="13.00">Date: Apr 27 2013 &#45; 02:18</text>
<text text-anchor="start" x="8" y="-825.3" font-family="Times Roman,serif" font-size="13.00">Generated by RailRoady 1.1.0</text>
<text text-anchor="start" x="8" y="-808.3" font-family="Times Roman,serif" font-size="13.00">http://railroady.prestonlee.com</text>
</g>
<!-- User -->
<g id="node2" class="node"><title>User</title>
<polyline fill="none" stroke="black" points="237,-505 425,-505 "/>
<path fill="none" stroke="black" d="M425,-505C431,-505 437,-511 437,-517"/>
<polyline fill="none" stroke="black" points="437,-517 437,-725 "/>
<path fill="none" stroke="black" d="M437,-725C437,-731 431,-737 425,-737"/>
<polyline fill="none" stroke="black" points="425,-737 237,-737 "/>
<path fill="none" stroke="black" d="M237,-737C231,-737 225,-731 225,-725"/>
<polyline fill="none" stroke="black" points="225,-725 225,-517 "/>
<path fill="none" stroke="black" d="M225,-517C225,-511 231,-505 237,-505"/>
<text text-anchor="middle" x="331" y="-720.4" font-family="Times Roman,serif" font-size="14.00">User</text>
<polyline fill="none" stroke="black" points="225,-711 437,-711 "/>
<text text-anchor="start" x="233" y="-694.4" font-family="Times Roman,serif" font-size="14.00">_id :Moped::BSON::ObjectId</text>
<text text-anchor="start" x="233" y="-676.4" font-family="Times Roman,serif" font-size="14.00">created_at :Time</text>
<text text-anchor="start" x="233" y="-658.4" font-family="Times Roman,serif" font-size="14.00">email :Object</text>
<text text-anchor="start" x="233" y="-640.4" font-family="Times Roman,serif" font-size="14.00">encrypted_password :Object</text>
<text text-anchor="start" x="233" y="-622.4" font-family="Times Roman,serif" font-size="14.00">group_id :Object</text>
<text text-anchor="start" x="233" y="-604.4" font-family="Times Roman,serif" font-size="14.00">is_admin :Boolean</text>
<text text-anchor="start" x="233" y="-586.4" font-family="Times Roman,serif" font-size="14.00">name :Object</text>
<text text-anchor="start" x="233" y="-568.4" font-family="Times Roman,serif" font-size="14.00">provider :Object</text>
<text text-anchor="start" x="233" y="-550.4" font-family="Times Roman,serif" font-size="14.00">salt :Object</text>
<text text-anchor="start" x="233" y="-532.4" font-family="Times Roman,serif" font-size="14.00">uid :Object</text>
<text text-anchor="start" x="233" y="-514.4" font-family="Times Roman,serif" font-size="14.00">updated_at :Time</text>
</g>
<!-- Score -->
<g id="node7" class="node"><title>Score</title>
<polyline fill="none" stroke="black" points="238,-262 420,-262 "/>
<path fill="none" stroke="black" d="M420,-262C426,-262 432,-268 432,-274"/>
<polyline fill="none" stroke="black" points="432,-274 432,-392 "/>
<path fill="none" stroke="black" d="M432,-392C432,-398 426,-404 420,-404"/>
<polyline fill="none" stroke="black" points="420,-404 238,-404 "/>
<path fill="none" stroke="black" d="M238,-404C232,-404 226,-398 226,-392"/>
<polyline fill="none" stroke="black" points="226,-392 226,-274 "/>
<path fill="none" stroke="black" d="M226,-274C226,-268 232,-262 238,-262"/>
<text text-anchor="middle" x="329" y="-387.4" font-family="Times Roman,serif" font-size="14.00">Score</text>
<polyline fill="none" stroke="black" points="226,-378 432,-378 "/>
<text text-anchor="start" x="234" y="-361.4" font-family="Times Roman,serif" font-size="14.00">_id :Moped::BSON::ObjectId</text>
<text text-anchor="start" x="234" y="-343.4" font-family="Times Roman,serif" font-size="14.00">contest_id :Object</text>
<text text-anchor="start" x="234" y="-325.4" font-family="Times Roman,serif" font-size="14.00">created_at :Time</text>
<text text-anchor="start" x="234" y="-307.4" font-family="Times Roman,serif" font-size="14.00">score :Integer</text>
<text text-anchor="start" x="234" y="-289.4" font-family="Times Roman,serif" font-size="14.00">updated_at :Time</text>
<text text-anchor="start" x="234" y="-271.4" font-family="Times Roman,serif" font-size="14.00">user_id :Object</text>
</g>
<!-- User&#45;&gt;Score -->
<g id="edge2" class="edge"><title>User&#45;&gt;Score</title>
<path fill="none" stroke="#16581d" d="M330.137,-496.678C329.943,-468.747 329.742,-439.81 329.564,-414.177"/>
<ellipse fill="none" stroke="#16581d" cx="330.164" cy="-500.69" rx="4" ry="4"/>
<polygon fill="#16581d" stroke="#16581d" points="329.564,-414.153 333.994,-404.122 329.529,-409.153 329.494,-404.153 329.494,-404.153 329.494,-404.153 329.529,-409.153 324.994,-404.185 329.564,-414.153 329.564,-414.153"/>
</g>
<!-- Problem -->
<g id="node3" class="node"><title>Problem</title>
<polyline fill="none" stroke="black" points="13,-199 195,-199 "/>
<path fill="none" stroke="black" d="M195,-199C201,-199 207,-205 207,-211"/>
<polyline fill="none" stroke="black" points="207,-211 207,-455 "/>
<path fill="none" stroke="black" d="M207,-455C207,-461 201,-467 195,-467"/>
<polyline fill="none" stroke="black" points="195,-467 13,-467 "/>
<path fill="none" stroke="black" d="M13,-467C7,-467 1,-461 1,-455"/>
<polyline fill="none" stroke="black" points="1,-455 1,-211 "/>
<path fill="none" stroke="black" d="M1,-211C1,-205 7,-199 13,-199"/>
<text text-anchor="middle" x="104" y="-450.4" font-family="Times Roman,serif" font-size="14.00">Problem</text>
<polyline fill="none" stroke="black" points="1,-441 207,-441 "/>
<text text-anchor="start" x="9" y="-424.4" font-family="Times Roman,serif" font-size="14.00">_id :Moped::BSON::ObjectId</text>
<text text-anchor="start" x="9" y="-406.4" font-family="Times Roman,serif" font-size="14.00">contest_id :Object</text>
<text text-anchor="start" x="9" y="-388.4" font-family="Times Roman,serif" font-size="14.00">created_at :Time</text>
<text text-anchor="start" x="9" y="-370.4" font-family="Times Roman,serif" font-size="14.00">description :Object</text>
<text text-anchor="start" x="9" y="-352.4" font-family="Times Roman,serif" font-size="14.00">description_html :Object</text>
<text text-anchor="start" x="9" y="-334.4" font-family="Times Roman,serif" font-size="14.00">large_input :Object</text>
<text text-anchor="start" x="9" y="-316.4" font-family="Times Roman,serif" font-size="14.00">large_output :Object</text>
<text text-anchor="start" x="9" y="-298.4" font-family="Times Roman,serif" font-size="14.00">large_score :Integer</text>
<text text-anchor="start" x="9" y="-280.4" font-family="Times Roman,serif" font-size="14.00">small_input :Object</text>
<text text-anchor="start" x="9" y="-262.4" font-family="Times Roman,serif" font-size="14.00">small_output :Object</text>
<text text-anchor="start" x="9" y="-244.4" font-family="Times Roman,serif" font-size="14.00">small_score :Integer</text>
<text text-anchor="start" x="9" y="-226.4" font-family="Times Roman,serif" font-size="14.00">title :Object</text>
<text text-anchor="start" x="9" y="-208.4" font-family="Times Roman,serif" font-size="14.00">updated_at :Time</text>
</g>
<!-- Contest -->
<g id="node4" class="node"><title>Contest</title>
<polyline fill="none" stroke="black" points="13,-541 195,-541 "/>
<path fill="none" stroke="black" d="M195,-541C201,-541 207,-547 207,-553"/>
<polyline fill="none" stroke="black" points="207,-553 207,-689 "/>
<path fill="none" stroke="black" d="M207,-689C207,-695 201,-701 195,-701"/>
<polyline fill="none" stroke="black" points="195,-701 13,-701 "/>
<path fill="none" stroke="black" d="M13,-701C7,-701 1,-695 1,-689"/>
<polyline fill="none" stroke="black" points="1,-689 1,-553 "/>
<path fill="none" stroke="black" d="M1,-553C1,-547 7,-541 13,-541"/>
<text text-anchor="middle" x="104" y="-684.4" font-family="Times Roman,serif" font-size="14.00">Contest</text>
<polyline fill="none" stroke="black" points="1,-675 207,-675 "/>
<text text-anchor="start" x="9" y="-658.4" font-family="Times Roman,serif" font-size="14.00">_id :Moped::BSON::ObjectId</text>
<text text-anchor="start" x="9" y="-640.4" font-family="Times Roman,serif" font-size="14.00">created_at :Time</text>
<text text-anchor="start" x="9" y="-622.4" font-family="Times Roman,serif" font-size="14.00">end_time :Time</text>
<text text-anchor="start" x="9" y="-604.4" font-family="Times Roman,serif" font-size="14.00">introduction :Object</text>
<text text-anchor="start" x="9" y="-586.4" font-family="Times Roman,serif" font-size="14.00">name :Object</text>
<text text-anchor="start" x="9" y="-568.4" font-family="Times Roman,serif" font-size="14.00">start_time :Time</text>
<text text-anchor="start" x="9" y="-550.4" font-family="Times Roman,serif" font-size="14.00">updated_at :Time</text>
</g>
<!-- Contest&#45;&gt;Problem -->
<g id="edge4" class="edge"><title>Contest&#45;&gt;Problem</title>
<path fill="none" stroke="#751c25" d="M104,-532.624C104,-515.058 104,-496.187 104,-477.309"/>
<ellipse fill="none" stroke="#751c25" cx="104" cy="-536.776" rx="4" ry="4"/>
<polygon fill="#751c25" stroke="#751c25" points="104,-477.137 108.5,-467.137 104,-472.137 104,-467.137 104,-467.137 104,-467.137 104,-472.137 99.5,-467.137 104,-477.137 104,-477.137"/>
</g>
<!-- Contest&#45;&gt;Score -->
<g id="edge6" class="edge"><title>Contest&#45;&gt;Score</title>
<path fill="none" stroke="#c879f9" d="M171.621,-534.445C201.9,-495.688 237.368,-450.289 266.96,-412.412"/>
<ellipse fill="none" stroke="#c879f9" cx="169.138" cy="-537.624" rx="4.00002" ry="4.00002"/>
<polygon fill="#c879f9" stroke="#c879f9" points="267.025,-412.329 276.727,-407.219 270.103,-408.388 273.181,-404.448 273.181,-404.448 273.181,-404.448 270.103,-408.388 269.635,-401.678 267.025,-412.329 267.025,-412.329"/>
</g>
<!-- Group -->
<g id="node5" class="node"><title>Group</title>
<polyline fill="none" stroke="black" points="240,-784 422,-784 "/>
<path fill="none" stroke="black" d="M422,-784C428,-784 434,-790 434,-796"/>
<polyline fill="none" stroke="black" points="434,-796 434,-878 "/>
<path fill="none" stroke="black" d="M434,-878C434,-884 428,-890 422,-890"/>
<polyline fill="none" stroke="black" points="422,-890 240,-890 "/>
<path fill="none" stroke="black" d="M240,-890C234,-890 228,-884 228,-878"/>
<polyline fill="none" stroke="black" points="228,-878 228,-796 "/>
<path fill="none" stroke="black" d="M228,-796C228,-790 234,-784 240,-784"/>
<text text-anchor="middle" x="331" y="-873.4" font-family="Times Roman,serif" font-size="14.00">Group</text>
<polyline fill="none" stroke="black" points="228,-864 434,-864 "/>
<text text-anchor="start" x="236" y="-847.4" font-family="Times Roman,serif" font-size="14.00">_id :Moped::BSON::ObjectId</text>
<text text-anchor="start" x="236" y="-829.4" font-family="Times Roman,serif" font-size="14.00">created_at :Time</text>
<text text-anchor="start" x="236" y="-811.4" font-family="Times Roman,serif" font-size="14.00">name :Object</text>
<text text-anchor="start" x="236" y="-793.4" font-family="Times Roman,serif" font-size="14.00">updated_at :Time</text>
</g>
<!-- Group&#45;&gt;User -->
<g id="edge8" class="edge"><title>Group&#45;&gt;User</title>
<path fill="none" stroke="#1e02c1" d="M331,-775.627C331,-766.598 331,-757.031 331,-747.258"/>
<ellipse fill="none" stroke="#1e02c1" cx="331" cy="-779.884" rx="4" ry="4"/>
<polygon fill="#1e02c1" stroke="#1e02c1" points="331,-747.013 335.5,-737.013 331,-742.013 331,-737.013 331,-737.013 331,-737.013 331,-742.013 326.5,-737.013 331,-747.013 331,-747.013"/>
</g>
<!-- Image -->
<g id="node6" class="node"><title>Image</title>
<polyline fill="none" stroke="black" points="464,-775 698,-775 "/>
<path fill="none" stroke="black" d="M698,-775C704,-775 710,-781 710,-787"/>
<polyline fill="none" stroke="black" points="710,-787 710,-887 "/>
<path fill="none" stroke="black" d="M710,-887C710,-893 704,-899 698,-899"/>
<polyline fill="none" stroke="black" points="698,-899 464,-899 "/>
<path fill="none" stroke="black" d="M464,-899C458,-899 452,-893 452,-887"/>
<polyline fill="none" stroke="black" points="452,-887 452,-787 "/>
<path fill="none" stroke="black" d="M452,-787C452,-781 458,-775 464,-775"/>
<text text-anchor="middle" x="581" y="-882.4" font-family="Times Roman,serif" font-size="14.00">Image</text>
<polyline fill="none" stroke="black" points="452,-873 710,-873 "/>
<text text-anchor="start" x="460" y="-856.4" font-family="Times Roman,serif" font-size="14.00">_id :Moped::BSON::ObjectId</text>
<text text-anchor="start" x="460" y="-838.4" font-family="Times Roman,serif" font-size="14.00">attachment_content_type :String</text>
<text text-anchor="start" x="460" y="-820.4" font-family="Times Roman,serif" font-size="14.00">attachment_file_name :String</text>
<text text-anchor="start" x="460" y="-802.4" font-family="Times Roman,serif" font-size="14.00">attachment_file_size :Integer</text>
<text text-anchor="start" x="460" y="-784.4" font-family="Times Roman,serif" font-size="14.00">attachment_updated_at :DateTime</text>
</g>
<!-- Submit -->
<g id="node9" class="node"><title>Submit</title>
<polyline fill="none" stroke="black" points="238,-1 420,-1 "/>
<path fill="none" stroke="black" d="M420,-1C426,-1 432,-7 432,-13"/>
<polyline fill="none" stroke="black" points="432,-13 432,-149 "/>
<path fill="none" stroke="black" d="M432,-149C432,-155 426,-161 420,-161"/>
<polyline fill="none" stroke="black" points="420,-161 238,-161 "/>
<path fill="none" stroke="black" d="M238,-161C232,-161 226,-155 226,-149"/>
<polyline fill="none" stroke="black" points="226,-149 226,-13 "/>
<path fill="none" stroke="black" d="M226,-13C226,-7 232,-1 238,-1"/>
<text text-anchor="middle" x="329" y="-144.4" font-family="Times Roman,serif" font-size="14.00">Submit</text>
<polyline fill="none" stroke="black" points="226,-135 432,-135 "/>
<text text-anchor="start" x="234" y="-118.4" font-family="Times Roman,serif" font-size="14.00">_id :Moped::BSON::ObjectId</text>
<text text-anchor="start" x="234" y="-100.4" font-family="Times Roman,serif" font-size="14.00">created_at :Time</text>
<text text-anchor="start" x="234" y="-82.4" font-family="Times Roman,serif" font-size="14.00">problem_id :Object</text>
<text text-anchor="start" x="234" y="-64.4" font-family="Times Roman,serif" font-size="14.00">problem_type :Object</text>
<text text-anchor="start" x="234" y="-46.4" font-family="Times Roman,serif" font-size="14.00">score_id :Object</text>
<text text-anchor="start" x="234" y="-28.4" font-family="Times Roman,serif" font-size="14.00">solved :Boolean</text>
<text text-anchor="start" x="234" y="-10.4" font-family="Times Roman,serif" font-size="14.00">updated_at :Time</text>
</g>
<!-- Score&#45;&gt;Submit -->
<g id="edge10" class="edge"><title>Score&#45;&gt;Submit</title>
<path fill="none" stroke="#a67024" d="M329,-253.612C329,-227.53 329,-198.347 329,-171.503"/>
<ellipse fill="none" stroke="#a67024" cx="329" cy="-257.797" rx="4" ry="4"/>
<polygon fill="#a67024" stroke="#a67024" points="329,-171.341 333.5,-161.341 329,-166.341 329,-161.341 329,-161.341 329,-161.341 329,-166.341 324.5,-161.341 329,-171.341 329,-171.341"/>
</g>
<!-- Output -->
<g id="node8" class="node"><title>Output</title>
<polyline fill="none" stroke="black" points="740,-793 922,-793 "/>
<path fill="none" stroke="black" d="M922,-793C928,-793 934,-799 934,-805"/>
<polyline fill="none" stroke="black" points="934,-805 934,-869 "/>
<path fill="none" stroke="black" d="M934,-869C934,-875 928,-881 922,-881"/>
<polyline fill="none" stroke="black" points="922,-881 740,-881 "/>
<path fill="none" stroke="black" d="M740,-881C734,-881 728,-875 728,-869"/>
<polyline fill="none" stroke="black" points="728,-869 728,-805 "/>
<path fill="none" stroke="black" d="M728,-805C728,-799 734,-793 740,-793"/>
<text text-anchor="middle" x="831" y="-864.4" font-family="Times Roman,serif" font-size="14.00">Output</text>
<polyline fill="none" stroke="black" points="728,-855 934,-855 "/>
<text text-anchor="start" x="736" y="-838.4" font-family="Times Roman,serif" font-size="14.00">_id :Moped::BSON::ObjectId</text>
<text text-anchor="start" x="736" y="-820.4" font-family="Times Roman,serif" font-size="14.00">input_type :Object</text>
<text text-anchor="start" x="736" y="-802.4" font-family="Times Roman,serif" font-size="14.00">output :Object</text>
</g>
</g>
</svg>
