<?xml version="1.0" encoding="UTF-8" standalone="no"?>
<!DOCTYPE svg PUBLIC "-//W3C//DTD SVG 1.1//EN"
 "http://www.w3.org/Graphics/SVG/1.1/DTD/svg11.dtd">
<!-- Generated by graphviz version 2.26.3 (20100126.1600)
 -->
<!-- Title: models_diagram Pages: 1 -->
<svg width="528pt" height="306pt"
 viewBox="0.00 0.00 528.00 306.00" xmlns="http://www.w3.org/2000/svg" xmlns:xlink="http://www.w3.org/1999/xlink">
<g id="graph1" class="graph" transform="scale(1 1) rotate(0) translate(4 302)">
<title>models_diagram</title>
<polygon fill="white" stroke="white" points="-4,5 -4,-302 525,-302 525,5 -4,5"/>
<!-- _diagram_info -->
<g id="node1" class="node"><title>_diagram_info</title>
<text text-anchor="start" x="8" y="-282.3" font-family="Times Roman,serif" font-size="13.00">Models diagram</text>
<text text-anchor="start" x="8" y="-265.3" font-family="Times Roman,serif" font-size="13.00">Date: Apr 27 2013 &#45; 02:18</text>
<text text-anchor="start" x="8" y="-248.3" font-family="Times Roman,serif" font-size="13.00">Generated by RailRoady 1.1.0</text>
<text text-anchor="start" x="8" y="-231.3" font-family="Times Roman,serif" font-size="13.00">http://railroady.prestonlee.com</text>
</g>
<!-- User -->
<g id="node2" class="node"><title>User</title>
<ellipse fill="none" stroke="black" cx="269" cy="-167" rx="33.9411" ry="18.3848"/>
<text text-anchor="middle" x="269" y="-163.4" font-family="Times Roman,serif" font-size="14.00">User</text>
</g>
<!-- Score -->
<g id="node7" class="node"><title>Score</title>
<ellipse fill="none" stroke="black" cx="269" cy="-93" rx="38.8909" ry="18.3848"/>
<text text-anchor="middle" x="269" y="-89.4" font-family="Times Roman,serif" font-size="14.00">Score</text>
</g>
<!-- User&#45;&gt;Score -->
<g id="edge2" class="edge"><title>User&#45;&gt;Score</title>
<path fill="none" stroke="#63d7dc" d="M269,-140.309C269,-134.377 269,-128.061 269,-122.04"/>
<ellipse fill="none" stroke="#63d7dc" cx="269" cy="-144.327" rx="4" ry="4"/>
<polygon fill="#63d7dc" stroke="#63d7dc" points="269,-121.667 273.5,-111.667 269,-116.667 269,-111.667 269,-111.667 269,-111.667 269,-116.667 264.5,-111.667 269,-121.667 269,-121.667"/>
</g>
<!-- Problem -->
<g id="node3" class="node"><title>Problem</title>
<ellipse fill="none" stroke="black" cx="161" cy="-93" rx="51.1176" ry="18.3848"/>
<text text-anchor="middle" x="161" y="-89.4" font-family="Times Roman,serif" font-size="14.00">Problem</text>
</g>
<!-- Contest -->
<g id="node4" class="node"><title>Contest</title>
<ellipse fill="none" stroke="black" cx="164" cy="-167" rx="50.2046" ry="18.3848"/>
<text text-anchor="middle" x="164" y="-163.4" font-family="Times Roman,serif" font-size="14.00">Contest</text>
</g>
<!-- Contest&#45;&gt;Problem -->
<g id="edge4" class="edge"><title>Contest&#45;&gt;Problem</title>
<path fill="none" stroke="#8a4c63" d="M162.918,-140.309C162.677,-134.377 162.421,-128.061 162.177,-122.04"/>
<ellipse fill="none" stroke="#8a4c63" cx="163.081" cy="-144.33" rx="4" ry="4"/>
<polygon fill="#8a4c63" stroke="#8a4c63" points="162.162,-121.659 166.253,-111.485 161.959,-116.663 161.757,-111.667 161.757,-111.667 161.757,-111.667 161.959,-116.663 157.26,-111.85 162.162,-121.659 162.162,-121.659"/>
</g>
<!-- Contest&#45;&gt;Score -->
<g id="edge6" class="edge"><title>Contest&#45;&gt;Score</title>
<path fill="none" stroke="#4b1fe3" d="M194.293,-145.65C208.298,-135.78 224.888,-124.089 238.872,-114.233"/>
<ellipse fill="none" stroke="#4b1fe3" cx="190.573" cy="-148.273" rx="4.00002" ry="4.00002"/>
<polygon fill="#4b1fe3" stroke="#4b1fe3" points="239.022,-114.127 249.788,-112.045 243.109,-111.247 247.196,-108.367 247.196,-108.367 247.196,-108.367 243.109,-111.247 244.604,-104.688 239.022,-114.127 239.022,-114.127"/>
</g>
<!-- Group -->
<g id="node5" class="node"><title>Group</title>
<ellipse fill="none" stroke="black" cx="269" cy="-260" rx="41.2167" ry="18.3848"/>
<text text-anchor="middle" x="269" y="-256.4" font-family="Times Roman,serif" font-size="14.00">Group</text>
</g>
<!-- Group&#45;&gt;User -->
<g id="edge8" class="edge"><title>Group&#45;&gt;User</title>
<path fill="none" stroke="#ac817c" d="M269,-233.158C269,-221.544 269,-207.925 269,-196.072"/>
<ellipse fill="none" stroke="#ac817c" cx="269" cy="-237.18" rx="4" ry="4"/>
<polygon fill="#ac817c" stroke="#ac817c" points="269,-195.792 273.5,-185.792 269,-190.792 269,-185.792 269,-185.792 269,-185.792 269,-190.792 264.5,-185.792 269,-195.792 269,-195.792"/>
</g>
<!-- Image -->
<g id="node6" class="node"><title>Image</title>
<ellipse fill="none" stroke="black" cx="369" cy="-260" rx="41.2167" ry="18.3848"/>
<text text-anchor="middle" x="369" y="-256.4" font-family="Times Roman,serif" font-size="14.00">Image</text>
</g>
<!-- Submit -->
<g id="node9" class="node"><title>Submit</title>
<ellipse fill="none" stroke="black" cx="269" cy="-19" rx="45.9619" ry="18.3848"/>
<text text-anchor="middle" x="269" y="-15.4" font-family="Times Roman,serif" font-size="14.00">Submit</text>
</g>
<!-- Score&#45;&gt;Submit -->
<g id="edge10" class="edge"><title>Score&#45;&gt;Submit</title>
<path fill="none" stroke="#b78be9" d="M269,-66.309C269,-60.3769 269,-54.0606 269,-48.0396"/>
<ellipse fill="none" stroke="#b78be9" cx="269" cy="-70.3267" rx="4" ry="4"/>
<polygon fill="#b78be9" stroke="#b78be9" points="269,-47.6674 273.5,-37.6673 269,-42.6674 269,-37.6674 269,-37.6674 269,-37.6674 269,-42.6674 264.5,-37.6674 269,-47.6674 269,-47.6674"/>
</g>
<!-- Output -->
<g id="node8" class="node"><title>Output</title>
<ellipse fill="none" stroke="black" cx="474" cy="-260" rx="46.1672" ry="18.3848"/>
<text text-anchor="middle" x="474" y="-256.4" font-family="Times Roman,serif" font-size="14.00">Output</text>
</g>
</g>
</svg>
