<?xml version="1.0" encoding="UTF-8" standalone="no"?>
<!DOCTYPE svg PUBLIC "-//W3C//DTD SVG 1.1//EN"
 "http://www.w3.org/Graphics/SVG/1.1/DTD/svg11.dtd">
<!-- Generated by graphviz version 2.26.3 (20100126.1600)
 -->
<!-- Title: controllers_diagram Pages: 1 -->
<svg width="1216pt" height="1211pt"
 viewBox="0.00 0.00 1216.00 1211.00" xmlns="http://www.w3.org/2000/svg" xmlns:xlink="http://www.w3.org/1999/xlink">
<g id="graph1" class="graph" transform="scale(1 1) rotate(0) translate(4 1207)">
<title>controllers_diagram</title>
<polygon fill="white" stroke="white" points="-4,5 -4,-1207 1213,-1207 1213,5 -4,5"/>
<!-- _diagram_info -->
<g id="node1" class="node"><title>_diagram_info</title>
<text text-anchor="start" x="513" y="-97.3" font-family="Times Roman,serif" font-size="13.00">Controllers diagram</text>
<text text-anchor="start" x="513" y="-80.3" font-family="Times Roman,serif" font-size="13.00">Date: Nov 01 2013 &#45; 03:17</text>
<text text-anchor="start" x="513" y="-63.3" font-family="Times Roman,serif" font-size="13.00">Generated by RailRoady 1.1.0</text>
<text text-anchor="start" x="513" y="-46.3" font-family="Times Roman,serif" font-size="13.00">http://railroady.prestonlee.com</text>
</g>
<!-- AdminController -->
<g id="node2" class="node"><title>AdminController</title>
<polyline fill="none" stroke="black" points="49,-261.888 263,-261.888 "/>
<path fill="none" stroke="black" d="M263,-261.888C269,-261.888 275,-267.888 275,-273.888"/>
<polyline fill="none" stroke="black" points="275,-273.888 275,-369.888 "/>
<path fill="none" stroke="black" d="M275,-369.888C275,-375.888 269,-381.888 263,-381.888"/>
<polyline fill="none" stroke="black" points="263,-381.888 49,-381.888 "/>
<path fill="none" stroke="black" d="M49,-381.888C43,-381.888 37,-375.888 37,-369.888"/>
<polyline fill="none" stroke="black" points="37,-369.888 37,-273.888 "/>
<path fill="none" stroke="black" d="M37,-273.888C37,-267.888 43,-261.888 49,-261.888"/>
<text text-anchor="middle" x="156" y="-365.288" font-family="Times Roman,serif" font-size="14.00">AdminController</text>
<polyline fill="none" stroke="black" points="37,-355.888 275,-355.888 "/>
<text text-anchor="start" x="45" y="-339.288" font-family="Times Roman,serif" font-size="14.00">_one_time_conditions_valid_50?</text>
<text text-anchor="start" x="45" y="-321.288" font-family="Times Roman,serif" font-size="14.00">admin_filter</text>
<polyline fill="none" stroke="black" points="37,-311.888 275,-311.888 "/>
<polyline fill="none" stroke="black" points="37,-287.888 275,-287.888 "/>
<text text-anchor="start" x="45" y="-271.288" font-family="Times Roman,serif" font-size="14.00">_layout</text>
</g>
<!-- AuthController -->
<g id="node3" class="node"><title>AuthController</title>
<polyline fill="none" stroke="black" points="704.258,-434.896 918.258,-434.896 "/>
<path fill="none" stroke="black" d="M918.258,-434.896C924.258,-434.896 930.258,-440.896 930.258,-446.896"/>
<polyline fill="none" stroke="black" points="930.258,-446.896 930.258,-524.896 "/>
<path fill="none" stroke="black" d="M930.258,-524.896C930.258,-530.896 924.258,-536.896 918.258,-536.896"/>
<polyline fill="none" stroke="black" points="918.258,-536.896 704.258,-536.896 "/>
<path fill="none" stroke="black" d="M704.258,-536.896C698.258,-536.896 692.258,-530.896 692.258,-524.896"/>
<polyline fill="none" stroke="black" points="692.258,-524.896 692.258,-446.896 "/>
<path fill="none" stroke="black" d="M692.258,-446.896C692.258,-440.896 698.258,-434.896 704.258,-434.896"/>
<text text-anchor="middle" x="811.258" y="-520.296" font-family="Times Roman,serif" font-size="14.00">AuthController</text>
<polyline fill="none" stroke="black" points="692.258,-510.896 930.258,-510.896 "/>
<text text-anchor="start" x="700.258" y="-494.296" font-family="Times Roman,serif" font-size="14.00">_one_time_conditions_valid_52?</text>
<polyline fill="none" stroke="black" points="692.258,-484.896 930.258,-484.896 "/>
<polyline fill="none" stroke="black" points="692.258,-460.896 930.258,-460.896 "/>
<text text-anchor="start" x="700.258" y="-444.296" font-family="Times Roman,serif" font-size="14.00">_layout</text>
</g>
<!-- TopController -->
<g id="node4" class="node"><title>TopController</title>
<polyline fill="none" stroke="black" points="85,-937.5 169,-937.5 "/>
<path fill="none" stroke="black" d="M169,-937.5C175,-937.5 181,-943.5 181,-949.5"/>
<polyline fill="none" stroke="black" points="181,-949.5 181,-1027.5 "/>
<path fill="none" stroke="black" d="M181,-1027.5C181,-1033.5 175,-1039.5 169,-1039.5"/>
<polyline fill="none" stroke="black" points="169,-1039.5 85,-1039.5 "/>
<path fill="none" stroke="black" d="M85,-1039.5C79,-1039.5 73,-1033.5 73,-1027.5"/>
<polyline fill="none" stroke="black" points="73,-1027.5 73,-949.5 "/>
<path fill="none" stroke="black" d="M73,-949.5C73,-943.5 79,-937.5 85,-937.5"/>
<text text-anchor="middle" x="127" y="-1022.9" font-family="Times Roman,serif" font-size="14.00">TopController</text>
<polyline fill="none" stroke="black" points="73,-1013.5 181,-1013.5 "/>
<text text-anchor="start" x="81" y="-996.9" font-family="Times Roman,serif" font-size="14.00">index</text>
<polyline fill="none" stroke="black" points="73,-987.5 181,-987.5 "/>
<polyline fill="none" stroke="black" points="73,-963.5 181,-963.5 "/>
<text text-anchor="start" x="81" y="-946.9" font-family="Times Roman,serif" font-size="14.00">_layout</text>
</g>
<!-- Admin::ImagesController -->
<g id="node5" class="node"><title>Admin::ImagesController</title>
<polyline fill="none" stroke="black" points="13,-1.5 175,-1.5 "/>
<path fill="none" stroke="black" d="M175,-1.5C181,-1.5 187,-7.5 187,-13.5"/>
<polyline fill="none" stroke="black" points="187,-13.5 187,-199.5 "/>
<path fill="none" stroke="black" d="M187,-199.5C187,-205.5 181,-211.5 175,-211.5"/>
<polyline fill="none" stroke="black" points="175,-211.5 13,-211.5 "/>
<path fill="none" stroke="black" d="M13,-211.5C7,-211.5 1,-205.5 1,-199.5"/>
<polyline fill="none" stroke="black" points="1,-199.5 1,-13.5 "/>
<path fill="none" stroke="black" d="M1,-13.5C1,-7.5 7,-1.5 13,-1.5"/>
<text text-anchor="middle" x="94" y="-194.9" font-family="Times Roman,serif" font-size="14.00">Admin::ImagesController</text>
<polyline fill="none" stroke="black" points="1,-185.5 187,-185.5 "/>
<text text-anchor="start" x="9" y="-168.9" font-family="Times Roman,serif" font-size="14.00">create</text>
<text text-anchor="start" x="9" y="-150.9" font-family="Times Roman,serif" font-size="14.00">destroy</text>
<text text-anchor="start" x="9" y="-132.9" font-family="Times Roman,serif" font-size="14.00">edit</text>
<text text-anchor="start" x="9" y="-114.9" font-family="Times Roman,serif" font-size="14.00">index</text>
<text text-anchor="start" x="9" y="-96.9" font-family="Times Roman,serif" font-size="14.00">new</text>
<text text-anchor="start" x="9" y="-78.9" font-family="Times Roman,serif" font-size="14.00">show</text>
<text text-anchor="start" x="9" y="-60.9" font-family="Times Roman,serif" font-size="14.00">update</text>
<polyline fill="none" stroke="black" points="1,-51.5 187,-51.5 "/>
<polyline fill="none" stroke="black" points="1,-27.5 187,-27.5 "/>
<text text-anchor="start" x="9" y="-10.9" font-family="Times Roman,serif" font-size="14.00">_layout</text>
</g>
<!-- Admin::Contests::ProblemsController -->
<g id="node6" class="node"><title>Admin::Contests::ProblemsController</title>
<polyline fill="none" stroke="black" points="913,-901.5 1159,-901.5 "/>
<path fill="none" stroke="black" d="M1159,-901.5C1165,-901.5 1171,-907.5 1171,-913.5"/>
<polyline fill="none" stroke="black" points="1171,-913.5 1171,-1189.5 "/>
<path fill="none" stroke="black" d="M1171,-1189.5C1171,-1195.5 1165,-1201.5 1159,-1201.5"/>
<polyline fill="none" stroke="black" points="1159,-1201.5 913,-1201.5 "/>
<path fill="none" stroke="black" d="M913,-1201.5C907,-1201.5 901,-1195.5 901,-1189.5"/>
<polyline fill="none" stroke="black" points="901,-1189.5 901,-913.5 "/>
<path fill="none" stroke="black" d="M901,-913.5C901,-907.5 907,-901.5 913,-901.5"/>
<text text-anchor="middle" x="1036" y="-1184.9" font-family="Times Roman,serif" font-size="14.00">Admin::Contests::ProblemsController</text>
<polyline fill="none" stroke="black" points="901,-1175.5 1171,-1175.5 "/>
<text text-anchor="start" x="909" y="-1158.9" font-family="Times Roman,serif" font-size="14.00">_one_time_conditions_valid_66?</text>
<text text-anchor="start" x="909" y="-1140.9" font-family="Times Roman,serif" font-size="14.00">create</text>
<text text-anchor="start" x="909" y="-1122.9" font-family="Times Roman,serif" font-size="14.00">destroy</text>
<text text-anchor="start" x="909" y="-1104.9" font-family="Times Roman,serif" font-size="14.00">download</text>
<text text-anchor="start" x="909" y="-1086.9" font-family="Times Roman,serif" font-size="14.00">download_large</text>
<text text-anchor="start" x="909" y="-1068.9" font-family="Times Roman,serif" font-size="14.00">download_small</text>
<text text-anchor="start" x="909" y="-1050.9" font-family="Times Roman,serif" font-size="14.00">edit</text>
<text text-anchor="start" x="909" y="-1032.9" font-family="Times Roman,serif" font-size="14.00">index</text>
<text text-anchor="start" x="909" y="-1014.9" font-family="Times Roman,serif" font-size="14.00">new</text>
<text text-anchor="start" x="909" y="-996.9" font-family="Times Roman,serif" font-size="14.00">show</text>
<text text-anchor="start" x="909" y="-978.9" font-family="Times Roman,serif" font-size="14.00">update</text>
<polyline fill="none" stroke="black" points="901,-969.5 1171,-969.5 "/>
<polyline fill="none" stroke="black" points="901,-945.5 1171,-945.5 "/>
<text text-anchor="start" x="909" y="-928.9" font-family="Times Roman,serif" font-size="14.00">_layout</text>
<text text-anchor="start" x="909" y="-910.9" font-family="Times Roman,serif" font-size="14.00">load_contest</text>
</g>
<!-- Admin::GroupsController -->
<g id="node7" class="node"><title>Admin::GroupsController</title>
<polyline fill="none" stroke="black" points="1021,-1.5 1184,-1.5 "/>
<path fill="none" stroke="black" d="M1184,-1.5C1190,-1.5 1196,-7.5 1196,-13.5"/>
<polyline fill="none" stroke="black" points="1196,-13.5 1196,-199.5 "/>
<path fill="none" stroke="black" d="M1196,-199.5C1196,-205.5 1190,-211.5 1184,-211.5"/>
<polyline fill="none" stroke="black" points="1184,-211.5 1021,-211.5 "/>
<path fill="none" stroke="black" d="M1021,-211.5C1015,-211.5 1009,-205.5 1009,-199.5"/>
<polyline fill="none" stroke="black" points="1009,-199.5 1009,-13.5 "/>
<path fill="none" stroke="black" d="M1009,-13.5C1009,-7.5 1015,-1.5 1021,-1.5"/>
<text text-anchor="middle" x="1102.5" y="-194.9" font-family="Times Roman,serif" font-size="14.00">Admin::GroupsController</text>
<polyline fill="none" stroke="black" points="1009,-185.5 1196,-185.5 "/>
<text text-anchor="start" x="1017" y="-168.9" font-family="Times Roman,serif" font-size="14.00">create</text>
<text text-anchor="start" x="1017" y="-150.9" font-family="Times Roman,serif" font-size="14.00">destroy</text>
<text text-anchor="start" x="1017" y="-132.9" font-family="Times Roman,serif" font-size="14.00">edit</text>
<text text-anchor="start" x="1017" y="-114.9" font-family="Times Roman,serif" font-size="14.00">index</text>
<text text-anchor="start" x="1017" y="-96.9" font-family="Times Roman,serif" font-size="14.00">new</text>
<text text-anchor="start" x="1017" y="-78.9" font-family="Times Roman,serif" font-size="14.00">show</text>
<text text-anchor="start" x="1017" y="-60.9" font-family="Times Roman,serif" font-size="14.00">update</text>
<polyline fill="none" stroke="black" points="1009,-51.5 1196,-51.5 "/>
<polyline fill="none" stroke="black" points="1009,-27.5 1196,-27.5 "/>
<text text-anchor="start" x="1017" y="-10.9" font-family="Times Roman,serif" font-size="14.00">_layout</text>
</g>
<!-- Admin::UsersController -->
<g id="node8" class="node"><title>Admin::UsersController</title>
<polyline fill="none" stroke="black" points="1021,-289.5 1173,-289.5 "/>
<path fill="none" stroke="black" d="M1173,-289.5C1179,-289.5 1185,-295.5 1185,-301.5"/>
<polyline fill="none" stroke="black" points="1185,-301.5 1185,-487.5 "/>
<path fill="none" stroke="black" d="M1185,-487.5C1185,-493.5 1179,-499.5 1173,-499.5"/>
<polyline fill="none" stroke="black" points="1173,-499.5 1021,-499.5 "/>
<path fill="none" stroke="black" d="M1021,-499.5C1015,-499.5 1009,-493.5 1009,-487.5"/>
<polyline fill="none" stroke="black" points="1009,-487.5 1009,-301.5 "/>
<path fill="none" stroke="black" d="M1009,-301.5C1009,-295.5 1015,-289.5 1021,-289.5"/>
<text text-anchor="middle" x="1097" y="-482.9" font-family="Times Roman,serif" font-size="14.00">Admin::UsersController</text>
<polyline fill="none" stroke="black" points="1009,-473.5 1185,-473.5 "/>
<text text-anchor="start" x="1017" y="-456.9" font-family="Times Roman,serif" font-size="14.00">create</text>
<text text-anchor="start" x="1017" y="-438.9" font-family="Times Roman,serif" font-size="14.00">destroy</text>
<text text-anchor="start" x="1017" y="-420.9" font-family="Times Roman,serif" font-size="14.00">edit</text>
<text text-anchor="start" x="1017" y="-402.9" font-family="Times Roman,serif" font-size="14.00">index</text>
<text text-anchor="start" x="1017" y="-384.9" font-family="Times Roman,serif" font-size="14.00">new</text>
<text text-anchor="start" x="1017" y="-366.9" font-family="Times Roman,serif" font-size="14.00">show</text>
<text text-anchor="start" x="1017" y="-348.9" font-family="Times Roman,serif" font-size="14.00">update</text>
<polyline fill="none" stroke="black" points="1009,-339.5 1185,-339.5 "/>
<polyline fill="none" stroke="black" points="1009,-315.5 1185,-315.5 "/>
<text text-anchor="start" x="1017" y="-298.9" font-family="Times Roman,serif" font-size="14.00">_layout</text>
</g>
<!-- Admin::ContestsController -->
<g id="node9" class="node"><title>Admin::ContestsController</title>
<polyline fill="none" stroke="black" points="1021,-577.5 1195,-577.5 "/>
<path fill="none" stroke="black" d="M1195,-577.5C1201,-577.5 1207,-583.5 1207,-589.5"/>
<polyline fill="none" stroke="black" points="1207,-589.5 1207,-775.5 "/>
<path fill="none" stroke="black" d="M1207,-775.5C1207,-781.5 1201,-787.5 1195,-787.5"/>
<polyline fill="none" stroke="black" points="1195,-787.5 1021,-787.5 "/>
<path fill="none" stroke="black" d="M1021,-787.5C1015,-787.5 1009,-781.5 1009,-775.5"/>
<polyline fill="none" stroke="black" points="1009,-775.5 1009,-589.5 "/>
<path fill="none" stroke="black" d="M1009,-589.5C1009,-583.5 1015,-577.5 1021,-577.5"/>
<text text-anchor="middle" x="1108" y="-770.9" font-family="Times Roman,serif" font-size="14.00">Admin::ContestsController</text>
<polyline fill="none" stroke="black" points="1009,-761.5 1207,-761.5 "/>
<text text-anchor="start" x="1017" y="-744.9" font-family="Times Roman,serif" font-size="14.00">create</text>
<text text-anchor="start" x="1017" y="-726.9" font-family="Times Roman,serif" font-size="14.00">destroy</text>
<text text-anchor="start" x="1017" y="-708.9" font-family="Times Roman,serif" font-size="14.00">edit</text>
<text text-anchor="start" x="1017" y="-690.9" font-family="Times Roman,serif" font-size="14.00">index</text>
<text text-anchor="start" x="1017" y="-672.9" font-family="Times Roman,serif" font-size="14.00">new</text>
<text text-anchor="start" x="1017" y="-654.9" font-family="Times Roman,serif" font-size="14.00">show</text>
<text text-anchor="start" x="1017" y="-636.9" font-family="Times Roman,serif" font-size="14.00">update</text>
<polyline fill="none" stroke="black" points="1009,-627.5 1207,-627.5 "/>
<polyline fill="none" stroke="black" points="1009,-603.5 1207,-603.5 "/>
<text text-anchor="start" x="1017" y="-586.9" font-family="Times Roman,serif" font-size="14.00">_layout</text>
</g>
<!-- ErrorsController -->
<g id="node10" class="node"><title>ErrorsController</title>
<polyline fill="none" stroke="black" points="300.992,-145.5 403.992,-145.5 "/>
<path fill="none" stroke="black" d="M403.992,-145.5C409.992,-145.5 415.992,-151.5 415.992,-157.5"/>
<polyline fill="none" stroke="black" points="415.992,-157.5 415.992,-235.5 "/>
<path fill="none" stroke="black" d="M415.992,-235.5C415.992,-241.5 409.992,-247.5 403.992,-247.5"/>
<polyline fill="none" stroke="black" points="403.992,-247.5 300.992,-247.5 "/>
<path fill="none" stroke="black" d="M300.992,-247.5C294.992,-247.5 288.992,-241.5 288.992,-235.5"/>
<polyline fill="none" stroke="black" points="288.992,-235.5 288.992,-157.5 "/>
<path fill="none" stroke="black" d="M288.992,-157.5C288.992,-151.5 294.992,-145.5 300.992,-145.5"/>
<text text-anchor="middle" x="352.492" y="-230.9" font-family="Times Roman,serif" font-size="14.00">ErrorsController</text>
<polyline fill="none" stroke="black" points="288.992,-221.5 415.992,-221.5 "/>
<text text-anchor="start" x="296.992" y="-204.9" font-family="Times Roman,serif" font-size="14.00">routing</text>
<polyline fill="none" stroke="black" points="288.992,-195.5 415.992,-195.5 "/>
<polyline fill="none" stroke="black" points="288.992,-171.5 415.992,-171.5 "/>
<text text-anchor="start" x="296.992" y="-154.9" font-family="Times Roman,serif" font-size="14.00">_layout</text>
</g>
<!-- Contests::ProblemsController -->
<g id="node11" class="node"><title>Contests::ProblemsController</title>
<polyline fill="none" stroke="black" points="589,-901.5 812,-901.5 "/>
<path fill="none" stroke="black" d="M812,-901.5C818,-901.5 824,-907.5 824,-913.5"/>
<polyline fill="none" stroke="black" points="824,-913.5 824,-1153.5 "/>
<path fill="none" stroke="black" d="M824,-1153.5C824,-1159.5 818,-1165.5 812,-1165.5"/>
<polyline fill="none" stroke="black" points="812,-1165.5 589,-1165.5 "/>
<path fill="none" stroke="black" d="M589,-1165.5C583,-1165.5 577,-1159.5 577,-1153.5"/>
<polyline fill="none" stroke="black" points="577,-1153.5 577,-913.5 "/>
<path fill="none" stroke="black" d="M577,-913.5C577,-907.5 583,-901.5 589,-901.5"/>
<text text-anchor="middle" x="700.5" y="-1148.9" font-family="Times Roman,serif" font-size="14.00">Contests::ProblemsController</text>
<polyline fill="none" stroke="black" points="577,-1139.5 824,-1139.5 "/>
<text text-anchor="start" x="585" y="-1122.9" font-family="Times Roman,serif" font-size="14.00">_one_time_conditions_valid_104?</text>
<text text-anchor="start" x="585" y="-1104.9" font-family="Times Roman,serif" font-size="14.00">_one_time_conditions_valid_106?</text>
<text text-anchor="start" x="585" y="-1086.9" font-family="Times Roman,serif" font-size="14.00">check_attendance</text>
<text text-anchor="start" x="585" y="-1068.9" font-family="Times Roman,serif" font-size="14.00">download</text>
<text text-anchor="start" x="585" y="-1050.9" font-family="Times Roman,serif" font-size="14.00">download_large</text>
<text text-anchor="start" x="585" y="-1032.9" font-family="Times Roman,serif" font-size="14.00">download_small</text>
<text text-anchor="start" x="585" y="-1014.9" font-family="Times Roman,serif" font-size="14.00">index</text>
<text text-anchor="start" x="585" y="-996.9" font-family="Times Roman,serif" font-size="14.00">show</text>
<text text-anchor="start" x="585" y="-978.9" font-family="Times Roman,serif" font-size="14.00">submit</text>
<polyline fill="none" stroke="black" points="577,-969.5 824,-969.5 "/>
<polyline fill="none" stroke="black" points="577,-945.5 824,-945.5 "/>
<text text-anchor="start" x="585" y="-928.9" font-family="Times Roman,serif" font-size="14.00">_layout</text>
<text text-anchor="start" x="585" y="-910.9" font-family="Times Roman,serif" font-size="14.00">load_contest</text>
</g>
<!-- Contests::ScoresController -->
<g id="node12" class="node"><title>Contests::ScoresController</title>
<polyline fill="none" stroke="black" points="403.728,-647.469 626.728,-647.469 "/>
<path fill="none" stroke="black" d="M626.728,-647.469C632.728,-647.469 638.728,-653.469 638.728,-659.469"/>
<polyline fill="none" stroke="black" points="638.728,-659.469 638.728,-809.469 "/>
<path fill="none" stroke="black" d="M638.728,-809.469C638.728,-815.469 632.728,-821.469 626.728,-821.469"/>
<polyline fill="none" stroke="black" points="626.728,-821.469 403.728,-821.469 "/>
<path fill="none" stroke="black" d="M403.728,-821.469C397.728,-821.469 391.728,-815.469 391.728,-809.469"/>
<polyline fill="none" stroke="black" points="391.728,-809.469 391.728,-659.469 "/>
<path fill="none" stroke="black" d="M391.728,-659.469C391.728,-653.469 397.728,-647.469 403.728,-647.469"/>
<text text-anchor="middle" x="515.228" y="-804.869" font-family="Times Roman,serif" font-size="14.00">Contests::ScoresController</text>
<polyline fill="none" stroke="black" points="391.728,-795.469 638.728,-795.469 "/>
<text text-anchor="start" x="399.728" y="-778.869" font-family="Times Roman,serif" font-size="14.00">_one_time_conditions_valid_108?</text>
<text text-anchor="start" x="399.728" y="-760.869" font-family="Times Roman,serif" font-size="14.00">_one_time_conditions_valid_110?</text>
<text text-anchor="start" x="399.728" y="-742.869" font-family="Times Roman,serif" font-size="14.00">check_attendance</text>
<text text-anchor="start" x="399.728" y="-724.869" font-family="Times Roman,serif" font-size="14.00">show</text>
<polyline fill="none" stroke="black" points="391.728,-715.469 638.728,-715.469 "/>
<polyline fill="none" stroke="black" points="391.728,-691.469 638.728,-691.469 "/>
<text text-anchor="start" x="399.728" y="-674.869" font-family="Times Roman,serif" font-size="14.00">_layout</text>
<text text-anchor="start" x="399.728" y="-656.869" font-family="Times Roman,serif" font-size="14.00">load_contest</text>
</g>
<!-- GroupsController -->
<g id="node13" class="node"><title>GroupsController</title>
<polyline fill="none" stroke="black" points="723.976,-618.716 946.976,-618.716 "/>
<path fill="none" stroke="black" d="M946.976,-618.716C952.976,-618.716 958.976,-624.716 958.976,-630.716"/>
<polyline fill="none" stroke="black" points="958.976,-630.716 958.976,-834.716 "/>
<path fill="none" stroke="black" d="M958.976,-834.716C958.976,-840.716 952.976,-846.716 946.976,-846.716"/>
<polyline fill="none" stroke="black" points="946.976,-846.716 723.976,-846.716 "/>
<path fill="none" stroke="black" d="M723.976,-846.716C717.976,-846.716 711.976,-840.716 711.976,-834.716"/>
<polyline fill="none" stroke="black" points="711.976,-834.716 711.976,-630.716 "/>
<path fill="none" stroke="black" d="M711.976,-630.716C711.976,-624.716 717.976,-618.716 723.976,-618.716"/>
<text text-anchor="middle" x="835.476" y="-830.116" font-family="Times Roman,serif" font-size="14.00">GroupsController</text>
<polyline fill="none" stroke="black" points="711.976,-820.716 958.976,-820.716 "/>
<text text-anchor="start" x="719.976" y="-804.116" font-family="Times Roman,serif" font-size="14.00">_one_time_conditions_valid_112?</text>
<text text-anchor="start" x="719.976" y="-786.116" font-family="Times Roman,serif" font-size="14.00">create</text>
<text text-anchor="start" x="719.976" y="-768.116" font-family="Times Roman,serif" font-size="14.00">edit</text>
<text text-anchor="start" x="719.976" y="-750.116" font-family="Times Roman,serif" font-size="14.00">index</text>
<text text-anchor="start" x="719.976" y="-732.116" font-family="Times Roman,serif" font-size="14.00">join</text>
<text text-anchor="start" x="719.976" y="-714.116" font-family="Times Roman,serif" font-size="14.00">new</text>
<text text-anchor="start" x="719.976" y="-696.116" font-family="Times Roman,serif" font-size="14.00">show</text>
<text text-anchor="start" x="719.976" y="-678.116" font-family="Times Roman,serif" font-size="14.00">update</text>
<polyline fill="none" stroke="black" points="711.976,-668.716 958.976,-668.716 "/>
<polyline fill="none" stroke="black" points="711.976,-644.716 958.976,-644.716 "/>
<text text-anchor="start" x="719.976" y="-628.116" font-family="Times Roman,serif" font-size="14.00">_layout</text>
</g>
<!-- UsersController -->
<g id="node14" class="node"><title>UsersController</title>
<polyline fill="none" stroke="black" points="86.6409,-541.699 309.641,-541.699 "/>
<path fill="none" stroke="black" d="M309.641,-541.699C315.641,-541.699 321.641,-547.699 321.641,-553.699"/>
<polyline fill="none" stroke="black" points="321.641,-553.699 321.641,-829.699 "/>
<path fill="none" stroke="black" d="M321.641,-829.699C321.641,-835.699 315.641,-841.699 309.641,-841.699"/>
<polyline fill="none" stroke="black" points="309.641,-841.699 86.6409,-841.699 "/>
<path fill="none" stroke="black" d="M86.6409,-841.699C80.6409,-841.699 74.6409,-835.699 74.6409,-829.699"/>
<polyline fill="none" stroke="black" points="74.6409,-829.699 74.6409,-553.699 "/>
<path fill="none" stroke="black" d="M74.6409,-553.699C74.6409,-547.699 80.6409,-541.699 86.6409,-541.699"/>
<text text-anchor="middle" x="198.141" y="-825.099" font-family="Times Roman,serif" font-size="14.00">UsersController</text>
<polyline fill="none" stroke="black" points="74.6409,-815.699 321.641,-815.699 "/>
<text text-anchor="start" x="82.6409" y="-799.099" font-family="Times Roman,serif" font-size="14.00">_one_time_conditions_valid_114?</text>
<text text-anchor="start" x="82.6409" y="-781.099" font-family="Times Roman,serif" font-size="14.00">authorize</text>
<text text-anchor="start" x="82.6409" y="-763.099" font-family="Times Roman,serif" font-size="14.00">create</text>
<text text-anchor="start" x="82.6409" y="-745.099" font-family="Times Roman,serif" font-size="14.00">demote</text>
<text text-anchor="start" x="82.6409" y="-727.099" font-family="Times Roman,serif" font-size="14.00">destroy</text>
<text text-anchor="start" x="82.6409" y="-709.099" font-family="Times Roman,serif" font-size="14.00">edit</text>
<text text-anchor="start" x="82.6409" y="-691.099" font-family="Times Roman,serif" font-size="14.00">login</text>
<text text-anchor="start" x="82.6409" y="-673.099" font-family="Times Roman,serif" font-size="14.00">logout</text>
<text text-anchor="start" x="82.6409" y="-655.099" font-family="Times Roman,serif" font-size="14.00">promote</text>
<text text-anchor="start" x="82.6409" y="-637.099" font-family="Times Roman,serif" font-size="14.00">register</text>
<text text-anchor="start" x="82.6409" y="-619.099" font-family="Times Roman,serif" font-size="14.00">show</text>
<text text-anchor="start" x="82.6409" y="-601.099" font-family="Times Roman,serif" font-size="14.00">update</text>
<polyline fill="none" stroke="black" points="74.6409,-591.699 321.641,-591.699 "/>
<polyline fill="none" stroke="black" points="74.6409,-567.699 321.641,-567.699 "/>
<text text-anchor="start" x="82.6409" y="-551.099" font-family="Times Roman,serif" font-size="14.00">_layout</text>
</g>
<!-- ContestsController -->
<g id="node15" class="node"><title>ContestsController</title>
<polyline fill="none" stroke="black" points="265,-901.5 488,-901.5 "/>
<path fill="none" stroke="black" d="M488,-901.5C494,-901.5 500,-907.5 500,-913.5"/>
<polyline fill="none" stroke="black" points="500,-913.5 500,-1081.5 "/>
<path fill="none" stroke="black" d="M500,-1081.5C500,-1087.5 494,-1093.5 488,-1093.5"/>
<polyline fill="none" stroke="black" points="488,-1093.5 265,-1093.5 "/>
<path fill="none" stroke="black" d="M265,-1093.5C259,-1093.5 253,-1087.5 253,-1081.5"/>
<polyline fill="none" stroke="black" points="253,-1081.5 253,-913.5 "/>
<path fill="none" stroke="black" d="M253,-913.5C253,-907.5 259,-901.5 265,-901.5"/>
<text text-anchor="middle" x="376.5" y="-1076.9" font-family="Times Roman,serif" font-size="14.00">ContestsController</text>
<polyline fill="none" stroke="black" points="253,-1067.5 500,-1067.5 "/>
<text text-anchor="start" x="261" y="-1050.9" font-family="Times Roman,serif" font-size="14.00">_one_time_conditions_valid_118?</text>
<text text-anchor="start" x="261" y="-1032.9" font-family="Times Roman,serif" font-size="14.00">_one_time_conditions_valid_122?</text>
<text text-anchor="start" x="261" y="-1014.9" font-family="Times Roman,serif" font-size="14.00">attend</text>
<text text-anchor="start" x="261" y="-996.9" font-family="Times Roman,serif" font-size="14.00">check_attendance</text>
<text text-anchor="start" x="261" y="-978.9" font-family="Times Roman,serif" font-size="14.00">index</text>
<text text-anchor="start" x="261" y="-960.9" font-family="Times Roman,serif" font-size="14.00">show</text>
<polyline fill="none" stroke="black" points="253,-951.5 500,-951.5 "/>
<polyline fill="none" stroke="black" points="253,-927.5 500,-927.5 "/>
<text text-anchor="start" x="261" y="-910.9" font-family="Times Roman,serif" font-size="14.00">_layout</text>
</g>
<!-- ApplicationController -->
<g id="node16" class="node"><title>ApplicationController</title>
<polyline fill="none" stroke="black" points="358.941,-365.054 572.941,-365.054 "/>
<path fill="none" stroke="black" d="M572.941,-365.054C578.941,-365.054 584.941,-371.054 584.941,-377.054"/>
<polyline fill="none" stroke="black" points="584.941,-377.054 584.941,-581.054 "/>
<path fill="none" stroke="black" d="M584.941,-581.054C584.941,-587.054 578.941,-593.054 572.941,-593.054"/>
<polyline fill="none" stroke="black" points="572.941,-593.054 358.941,-593.054 "/>
<path fill="none" stroke="black" d="M358.941,-593.054C352.941,-593.054 346.941,-587.054 346.941,-581.054"/>
<polyline fill="none" stroke="black" points="346.941,-581.054 346.941,-377.054 "/>
<path fill="none" stroke="black" d="M346.941,-377.054C346.941,-371.054 352.941,-365.054 358.941,-365.054"/>
<text text-anchor="middle" x="465.941" y="-576.454" font-family="Times Roman,serif" font-size="14.00">ApplicationController</text>
<polyline fill="none" stroke="black" points="346.941,-567.054 584.941,-567.054 "/>
<text text-anchor="start" x="354.941" y="-550.454" font-family="Times Roman,serif" font-size="14.00">_one_time_conditions_valid_46?</text>
<text text-anchor="start" x="354.941" y="-532.454" font-family="Times Roman,serif" font-size="14.00">_one_time_conditions_valid_48?</text>
<text text-anchor="start" x="354.941" y="-514.454" font-family="Times Roman,serif" font-size="14.00">current_user</text>
<text text-anchor="start" x="354.941" y="-496.454" font-family="Times Roman,serif" font-size="14.00">login_filter</text>
<text text-anchor="start" x="354.941" y="-478.454" font-family="Times Roman,serif" font-size="14.00">login_user</text>
<text text-anchor="start" x="354.941" y="-460.454" font-family="Times Roman,serif" font-size="14.00">logout_user</text>
<text text-anchor="start" x="354.941" y="-442.454" font-family="Times Roman,serif" font-size="14.00">render_404</text>
<text text-anchor="start" x="354.941" y="-424.454" font-family="Times Roman,serif" font-size="14.00">render_500</text>
<polyline fill="none" stroke="black" points="346.941,-415.054 584.941,-415.054 "/>
<polyline fill="none" stroke="black" points="346.941,-391.054 584.941,-391.054 "/>
<text text-anchor="start" x="354.941" y="-374.454" font-family="Times Roman,serif" font-size="14.00">_layout</text>
</g>
<!-- ApplicationController&#45;&gt;AdminController -->
<g id="edge2" class="edge"><title>ApplicationController&#45;&gt;AdminController</title>
<path fill="none" stroke="black" d="M346.553,-418.514C322.935,-406.537 298.15,-393.97 274.56,-382.007"/>
</g>
<!-- ApplicationController&#45;&gt;AuthController -->
<g id="edge4" class="edge"><title>ApplicationController&#45;&gt;AuthController</title>
<path fill="none" stroke="black" d="M585.263,-481.418C619.866,-482.103 657.638,-482.852 692.224,-483.537"/>
</g>
<!-- ApplicationController&#45;&gt;ErrorsController -->
<g id="edge6" class="edge"><title>ApplicationController&#45;&gt;ErrorsController</title>
<path fill="none" stroke="black" d="M420.124,-364.943C403.766,-324.202 386.15,-280.328 372.999,-247.574"/>
</g>
<!-- ApplicationController&#45;&gt;Contests::ScoresController -->
<g id="edge8" class="edge"><title>ApplicationController&#45;&gt;Contests::ScoresController</title>
<path fill="none" stroke="black" d="M487.989,-593.314C491.475,-611.378 495.031,-629.805 498.374,-647.128"/>
</g>
<!-- ApplicationController&#45;&gt;GroupsController -->
<g id="edge10" class="edge"><title>ApplicationController&#45;&gt;GroupsController</title>
<path fill="none" stroke="black" d="M585.153,-560.885C625.652,-588.685 670.978,-619.798 711.816,-647.831"/>
</g>
<!-- ApplicationController&#45;&gt;UsersController -->
<g id="edge12" class="edge"><title>ApplicationController&#45;&gt;UsersController</title>
<path fill="none" stroke="black" d="M346.92,-573.561C338.539,-580.217 330.079,-586.934 321.673,-593.609"/>
</g>
<!-- AjaxController -->
<g id="node17" class="node"><title>AjaxController</title>
<polyline fill="none" stroke="black" points="800.629,-157.1 926.629,-157.1 "/>
<path fill="none" stroke="black" d="M926.629,-157.1C932.629,-157.1 938.629,-163.1 938.629,-169.1"/>
<polyline fill="none" stroke="black" points="938.629,-169.1 938.629,-283.1 "/>
<path fill="none" stroke="black" d="M938.629,-283.1C938.629,-289.1 932.629,-295.1 926.629,-295.1"/>
<polyline fill="none" stroke="black" points="926.629,-295.1 800.629,-295.1 "/>
<path fill="none" stroke="black" d="M800.629,-295.1C794.629,-295.1 788.629,-289.1 788.629,-283.1"/>
<polyline fill="none" stroke="black" points="788.629,-283.1 788.629,-169.1 "/>
<path fill="none" stroke="black" d="M788.629,-169.1C788.629,-163.1 794.629,-157.1 800.629,-157.1"/>
<text text-anchor="middle" x="863.629" y="-278.5" font-family="Times Roman,serif" font-size="14.00">AjaxController</text>
<polyline fill="none" stroke="black" points="788.629,-269.1 938.629,-269.1 "/>
<text text-anchor="start" x="796.629" y="-252.5" font-family="Times Roman,serif" font-size="14.00">check_ajax</text>
<text text-anchor="start" x="796.629" y="-234.5" font-family="Times Roman,serif" font-size="14.00">convert_markdown</text>
<text text-anchor="start" x="796.629" y="-216.5" font-family="Times Roman,serif" font-size="14.00">upload_image</text>
<polyline fill="none" stroke="black" points="788.629,-207.1 938.629,-207.1 "/>
<polyline fill="none" stroke="black" points="788.629,-183.1 938.629,-183.1 "/>
<text text-anchor="start" x="796.629" y="-166.5" font-family="Times Roman,serif" font-size="14.00">_layout</text>
</g>
<!-- ApplicationController&#45;&gt;AjaxController -->
<g id="edge14" class="edge"><title>ApplicationController&#45;&gt;AjaxController</title>
<path fill="none" stroke="black" d="M584.991,-403.331C651.01,-361.339 731.098,-310.398 788.438,-273.926"/>
</g>
<!-- OauthController -->
<g id="node18" class="node"><title>OauthController</title>
<polyline fill="none" stroke="black" points="548.392,-182.608 653.392,-182.608 "/>
<path fill="none" stroke="black" d="M653.392,-182.608C659.392,-182.608 665.392,-188.608 665.392,-194.608"/>
<polyline fill="none" stroke="black" points="665.392,-194.608 665.392,-274.608 "/>
<path fill="none" stroke="black" d="M665.392,-274.608C665.392,-280.608 659.392,-286.608 653.392,-286.608"/>
<polyline fill="none" stroke="black" points="653.392,-286.608 548.392,-286.608 "/>
<path fill="none" stroke="black" d="M548.392,-286.608C542.392,-286.608 536.392,-280.608 536.392,-274.608"/>
<polyline fill="none" stroke="black" points="536.392,-274.608 536.392,-194.608 "/>
<path fill="none" stroke="black" d="M536.392,-194.608C536.392,-188.608 542.392,-182.608 548.392,-182.608"/>
<text text-anchor="middle" x="600.892" y="-270.008" font-family="Times Roman,serif" font-size="14.00">OauthController</text>
<polyline fill="none" stroke="black" points="536.392,-260.608 665.392,-260.608 "/>
<text text-anchor="start" x="544.392" y="-244.008" font-family="Times Roman,serif" font-size="14.00">create</text>
<polyline fill="none" stroke="black" points="536.392,-234.608 665.392,-234.608 "/>
<text text-anchor="start" x="544.392" y="-218.008" font-family="Times Roman,serif" font-size="14.00">auth_hash</text>
<polyline fill="none" stroke="black" points="536.392,-208.608 665.392,-208.608 "/>
<text text-anchor="start" x="544.392" y="-192.008" font-family="Times Roman,serif" font-size="14.00">_layout</text>
</g>
<!-- ApplicationController&#45;&gt;OauthController -->
<g id="edge16" class="edge"><title>ApplicationController&#45;&gt;OauthController</title>
<path fill="none" stroke="black" d="M529.07,-364.703C544.162,-337.367 559.545,-309.503 572.182,-286.612"/>
</g>
</g>
</svg>
