<?xml version="1.0" encoding="UTF-8" standalone="no"?>
<!DOCTYPE svg PUBLIC "-//W3C//DTD SVG 1.1//EN"
 "http://www.w3.org/Graphics/SVG/1.1/DTD/svg11.dtd">
<!-- Generated by graphviz version 2.28.0 (20120713.1652)
 -->
<!-- Title: controllers_diagram Pages: 1 -->
<svg width="984pt" height="1057pt"
 viewBox="0.00 0.00 984.42 1056.80" xmlns="http://www.w3.org/2000/svg" xmlns:xlink="http://www.w3.org/1999/xlink">
<g id="graph1" class="graph" transform="scale(1 1) rotate(0) translate(4 1052.8)">
<title>controllers_diagram</title>
<polygon fill="white" stroke="white" points="-4,5 -4,-1052.8 981.421,-1052.8 981.421,5 -4,5"/>
<!-- _diagram_info -->
<g id="node1" class="node"><title>_diagram_info</title>
<text text-anchor="start" x="695.786" y="-53.4" font-family="Times,serif" font-size="13.00">Controllers diagram</text>
<text text-anchor="start" x="695.786" y="-37.8" font-family="Times,serif" font-size="13.00">Date: Apr 27 2013 &#45; 16:11</text>
<text text-anchor="start" x="695.786" y="-22.2" font-family="Times,serif" font-size="13.00">Generated by RailRoady 1.1.0</text>
<text text-anchor="start" x="695.786" y="-6.6" font-family="Times,serif" font-size="13.00">http://railroady.prestonlee.com</text>
</g>
<!-- AjaxController -->
<g id="node2" class="node"><title>AjaxController</title>
<polyline fill="none" stroke="black" points="11.7861,-278.578 112.642,-278.578 "/>
<path fill="none" stroke="black" d="M112.642,-278.578C118.642,-278.578 124.642,-284.578 124.642,-290.578"/>
<polyline fill="none" stroke="black" points="124.642,-290.578 124.642,-398.578 "/>
<path fill="none" stroke="black" d="M124.642,-398.578C124.642,-404.578 118.642,-410.578 112.642,-410.578"/>
<polyline fill="none" stroke="black" points="112.642,-410.578 11.7861,-410.578 "/>
<path fill="none" stroke="black" d="M11.7861,-410.578C5.78613,-410.578 -0.213867,-404.578 -0.213867,-398.578"/>
<polyline fill="none" stroke="black" points="-0.213867,-398.578 -0.213867,-290.578 "/>
<path fill="none" stroke="black" d="M-0.213867,-290.578C-0.213867,-284.578 5.78613,-278.578 11.7861,-278.578"/>
<text text-anchor="middle" x="62.2139" y="-392.578" font-family="Times,serif" font-size="14.00">AjaxController</text>
<polyline fill="none" stroke="black" points="-0.213867,-385.778 124.642,-385.778 "/>
<text text-anchor="start" x="7.78613" y="-367.778" font-family="Times,serif" font-size="14.00">check_ajax</text>
<text text-anchor="start" x="7.78613" y="-350.978" font-family="Times,serif" font-size="14.00">convert_markdown</text>
<text text-anchor="start" x="7.78613" y="-334.178" font-family="Times,serif" font-size="14.00">upload_image</text>
<polyline fill="none" stroke="black" points="-0.213867,-327.378 124.642,-327.378 "/>
<polyline fill="none" stroke="black" points="-0.213867,-303.378 124.642,-303.378 "/>
<text text-anchor="start" x="7.78613" y="-285.378" font-family="Times,serif" font-size="14.00">_layout</text>
</g>
<!-- ApplicationController -->
<g id="node3" class="node"><title>ApplicationController</title>
<polyline fill="none" stroke="black" points="307.298,-261.657 485.933,-261.657 "/>
<path fill="none" stroke="black" d="M485.933,-261.657C491.933,-261.657 497.933,-267.657 497.933,-273.657"/>
<polyline fill="none" stroke="black" points="497.933,-273.657 497.933,-465.657 "/>
<path fill="none" stroke="black" d="M497.933,-465.657C497.933,-471.657 491.933,-477.657 485.933,-477.657"/>
<polyline fill="none" stroke="black" points="485.933,-477.657 307.298,-477.657 "/>
<path fill="none" stroke="black" d="M307.298,-477.657C301.298,-477.657 295.298,-471.657 295.298,-465.657"/>
<polyline fill="none" stroke="black" points="295.298,-465.657 295.298,-273.657 "/>
<path fill="none" stroke="black" d="M295.298,-273.657C295.298,-267.657 301.298,-261.657 307.298,-261.657"/>
<text text-anchor="middle" x="396.615" y="-459.657" font-family="Times,serif" font-size="14.00">ApplicationController</text>
<polyline fill="none" stroke="black" points="295.298,-452.857 497.933,-452.857 "/>
<text text-anchor="start" x="303.298" y="-434.857" font-family="Times,serif" font-size="14.00">_one_time_conditions_valid_12?</text>
<text text-anchor="start" x="303.298" y="-418.057" font-family="Times,serif" font-size="14.00">_one_time_conditions_valid_14?</text>
<text text-anchor="start" x="303.298" y="-401.257" font-family="Times,serif" font-size="14.00">admin_filter</text>
<text text-anchor="start" x="303.298" y="-384.457" font-family="Times,serif" font-size="14.00">current_user</text>
<text text-anchor="start" x="303.298" y="-367.657" font-family="Times,serif" font-size="14.00">generate_random_token</text>
<text text-anchor="start" x="303.298" y="-350.857" font-family="Times,serif" font-size="14.00">login_filter</text>
<text text-anchor="start" x="303.298" y="-334.057" font-family="Times,serif" font-size="14.00">login_user</text>
<text text-anchor="start" x="303.298" y="-317.257" font-family="Times,serif" font-size="14.00">logout_user</text>
<polyline fill="none" stroke="black" points="295.298,-310.457 497.933,-310.457 "/>
<polyline fill="none" stroke="black" points="295.298,-286.457 497.933,-286.457 "/>
<text text-anchor="start" x="303.298" y="-268.457" font-family="Times,serif" font-size="14.00">_layout</text>
</g>
<!-- ApplicationController&#45;&gt;AjaxController -->
<g id="edge2" class="edge"><title>ApplicationController&#45;&gt;AjaxController</title>
<path fill="none" stroke="black" d="M294.922,-362.03C239.582,-357.88 172.869,-352.877 125.088,-349.293"/>
</g>
<!-- AuthController -->
<g id="node4" class="node"><title>AuthController</title>
<polyline fill="none" stroke="black" points="405.784,-0.5 584.419,-0.5 "/>
<path fill="none" stroke="black" d="M584.419,-0.5C590.419,-0.5 596.419,-6.5 596.419,-12.5"/>
<polyline fill="none" stroke="black" points="596.419,-12.5 596.419,-86.9 "/>
<path fill="none" stroke="black" d="M596.419,-86.9C596.419,-92.9 590.419,-98.9 584.419,-98.9"/>
<polyline fill="none" stroke="black" points="584.419,-98.9 405.784,-98.9 "/>
<path fill="none" stroke="black" d="M405.784,-98.9C399.784,-98.9 393.784,-92.9 393.784,-86.9"/>
<polyline fill="none" stroke="black" points="393.784,-86.9 393.784,-12.5 "/>
<path fill="none" stroke="black" d="M393.784,-12.5C393.784,-6.5 399.784,-0.5 405.784,-0.5"/>
<text text-anchor="middle" x="495.102" y="-80.9" font-family="Times,serif" font-size="14.00">AuthController</text>
<polyline fill="none" stroke="black" points="393.784,-74.1 596.419,-74.1 "/>
<text text-anchor="start" x="401.784" y="-56.1" font-family="Times,serif" font-size="14.00">_one_time_conditions_valid_16?</text>
<polyline fill="none" stroke="black" points="393.784,-49.3 596.419,-49.3 "/>
<polyline fill="none" stroke="black" points="393.784,-25.3 596.419,-25.3 "/>
<text text-anchor="start" x="401.784" y="-7.3" font-family="Times,serif" font-size="14.00">_layout</text>
</g>
<!-- ApplicationController&#45;&gt;AuthController -->
<g id="edge4" class="edge"><title>ApplicationController&#45;&gt;AuthController</title>
<path fill="none" stroke="black" d="M429.958,-261.334C446.867,-206.403 466.577,-142.368 479.852,-99.2437"/>
</g>
<!-- Contests::ScoresController -->
<g id="node6" class="node"><title>Contests::ScoresController</title>
<polyline fill="none" stroke="black" points="352.54,-635.767 531.175,-635.767 "/>
<path fill="none" stroke="black" d="M531.175,-635.767C537.175,-635.767 543.175,-641.767 543.175,-647.767"/>
<polyline fill="none" stroke="black" points="543.175,-647.767 543.175,-755.767 "/>
<path fill="none" stroke="black" d="M543.175,-755.767C543.175,-761.767 537.175,-767.767 531.175,-767.767"/>
<polyline fill="none" stroke="black" points="531.175,-767.767 352.54,-767.767 "/>
<path fill="none" stroke="black" d="M352.54,-767.767C346.54,-767.767 340.54,-761.767 340.54,-755.767"/>
<polyline fill="none" stroke="black" points="340.54,-755.767 340.54,-647.767 "/>
<path fill="none" stroke="black" d="M340.54,-647.767C340.54,-641.767 346.54,-635.767 352.54,-635.767"/>
<text text-anchor="middle" x="441.858" y="-749.767" font-family="Times,serif" font-size="14.00">Contests::ScoresController</text>
<polyline fill="none" stroke="black" points="340.54,-742.967 543.175,-742.967 "/>
<text text-anchor="start" x="348.54" y="-724.967" font-family="Times,serif" font-size="14.00">_one_time_conditions_valid_48?</text>
<text text-anchor="start" x="348.54" y="-708.167" font-family="Times,serif" font-size="14.00">show</text>
<polyline fill="none" stroke="black" points="340.54,-701.367 543.175,-701.367 "/>
<polyline fill="none" stroke="black" points="340.54,-677.367 543.175,-677.367 "/>
<text text-anchor="start" x="348.54" y="-659.367" font-family="Times,serif" font-size="14.00">_layout</text>
<text text-anchor="start" x="348.54" y="-642.567" font-family="Times,serif" font-size="14.00">load_contest</text>
</g>
<!-- ApplicationController&#45;&gt;Contests::ScoresController -->
<g id="edge6" class="edge"><title>ApplicationController&#45;&gt;Contests::ScoresController</title>
<path fill="none" stroke="black" d="M411.367,-477.943C418.458,-529.997 426.728,-590.704 432.865,-635.752"/>
</g>
<!-- GroupsController -->
<g id="node8" class="node"><title>GroupsController</title>
<polyline fill="none" stroke="black" points="595.084,-424.512 773.719,-424.512 "/>
<path fill="none" stroke="black" d="M773.719,-424.512C779.719,-424.512 785.719,-430.512 785.719,-436.512"/>
<polyline fill="none" stroke="black" points="785.719,-436.512 785.719,-645.312 "/>
<path fill="none" stroke="black" d="M785.719,-645.312C785.719,-651.312 779.719,-657.312 773.719,-657.312"/>
<polyline fill="none" stroke="black" points="773.719,-657.312 595.084,-657.312 "/>
<path fill="none" stroke="black" d="M595.084,-657.312C589.084,-657.312 583.084,-651.312 583.084,-645.312"/>
<polyline fill="none" stroke="black" points="583.084,-645.312 583.084,-436.512 "/>
<path fill="none" stroke="black" d="M583.084,-436.512C583.084,-430.512 589.084,-424.512 595.084,-424.512"/>
<text text-anchor="middle" x="684.401" y="-639.312" font-family="Times,serif" font-size="14.00">GroupsController</text>
<polyline fill="none" stroke="black" points="583.084,-632.512 785.719,-632.512 "/>
<text text-anchor="start" x="591.084" y="-614.512" font-family="Times,serif" font-size="14.00">_one_time_conditions_valid_86?</text>
<text text-anchor="start" x="591.084" y="-597.712" font-family="Times,serif" font-size="14.00">create</text>
<text text-anchor="start" x="591.084" y="-580.912" font-family="Times,serif" font-size="14.00">destroy</text>
<text text-anchor="start" x="591.084" y="-564.112" font-family="Times,serif" font-size="14.00">edit</text>
<text text-anchor="start" x="591.084" y="-547.312" font-family="Times,serif" font-size="14.00">index</text>
<text text-anchor="start" x="591.084" y="-530.512" font-family="Times,serif" font-size="14.00">join</text>
<text text-anchor="start" x="591.084" y="-513.712" font-family="Times,serif" font-size="14.00">new</text>
<text text-anchor="start" x="591.084" y="-496.912" font-family="Times,serif" font-size="14.00">show</text>
<text text-anchor="start" x="591.084" y="-480.112" font-family="Times,serif" font-size="14.00">update</text>
<polyline fill="none" stroke="black" points="583.084,-473.312 785.719,-473.312 "/>
<polyline fill="none" stroke="black" points="583.084,-449.312 785.719,-449.312 "/>
<text text-anchor="start" x="591.084" y="-431.312" font-family="Times,serif" font-size="14.00">_layout</text>
</g>
<!-- ApplicationController&#45;&gt;GroupsController -->
<g id="edge8" class="edge"><title>ApplicationController&#45;&gt;GroupsController</title>
<path fill="none" stroke="black" d="M498.078,-430.035C525.588,-446.406 555.371,-464.129 582.885,-480.502"/>
</g>
<!-- ImagesController -->
<g id="node9" class="node"><title>ImagesController</title>
<polyline fill="none" stroke="black" points="121.786,-513.976 211.759,-513.976 "/>
<path fill="none" stroke="black" d="M211.759,-513.976C217.759,-513.976 223.759,-519.976 223.759,-525.976"/>
<polyline fill="none" stroke="black" points="223.759,-525.976 223.759,-701.176 "/>
<path fill="none" stroke="black" d="M223.759,-701.176C223.759,-707.176 217.759,-713.176 211.759,-713.176"/>
<polyline fill="none" stroke="black" points="211.759,-713.176 121.786,-713.176 "/>
<path fill="none" stroke="black" d="M121.786,-713.176C115.786,-713.176 109.786,-707.176 109.786,-701.176"/>
<polyline fill="none" stroke="black" points="109.786,-701.176 109.786,-525.976 "/>
<path fill="none" stroke="black" d="M109.786,-525.976C109.786,-519.976 115.786,-513.976 121.786,-513.976"/>
<text text-anchor="middle" x="166.773" y="-695.176" font-family="Times,serif" font-size="14.00">ImagesController</text>
<polyline fill="none" stroke="black" points="109.786,-688.376 223.759,-688.376 "/>
<text text-anchor="start" x="117.786" y="-670.376" font-family="Times,serif" font-size="14.00">create</text>
<text text-anchor="start" x="117.786" y="-653.576" font-family="Times,serif" font-size="14.00">destroy</text>
<text text-anchor="start" x="117.786" y="-636.776" font-family="Times,serif" font-size="14.00">edit</text>
<text text-anchor="start" x="117.786" y="-619.976" font-family="Times,serif" font-size="14.00">index</text>
<text text-anchor="start" x="117.786" y="-603.176" font-family="Times,serif" font-size="14.00">new</text>
<text text-anchor="start" x="117.786" y="-586.376" font-family="Times,serif" font-size="14.00">show</text>
<text text-anchor="start" x="117.786" y="-569.576" font-family="Times,serif" font-size="14.00">update</text>
<polyline fill="none" stroke="black" points="109.786,-562.776 223.759,-562.776 "/>
<polyline fill="none" stroke="black" points="109.786,-538.776 223.759,-538.776 "/>
<text text-anchor="start" x="117.786" y="-520.776" font-family="Times,serif" font-size="14.00">_layout</text>
</g>
<!-- ApplicationController&#45;&gt;ImagesController -->
<g id="edge10" class="edge"><title>ApplicationController&#45;&gt;ImagesController</title>
<path fill="none" stroke="black" d="M295.134,-477.354C270.722,-503.261 245.489,-530.039 223.925,-552.924"/>
</g>
<!-- OauthController -->
<g id="node10" class="node"><title>OauthController</title>
<polyline fill="none" stroke="black" points="165.122,-43.8648 248.881,-43.8648 "/>
<path fill="none" stroke="black" d="M248.881,-43.8648C254.881,-43.8648 260.881,-49.8648 260.881,-55.8648"/>
<polyline fill="none" stroke="black" points="260.881,-55.8648 260.881,-131.065 "/>
<path fill="none" stroke="black" d="M260.881,-131.065C260.881,-137.065 254.881,-143.065 248.881,-143.065"/>
<polyline fill="none" stroke="black" points="248.881,-143.065 165.122,-143.065 "/>
<path fill="none" stroke="black" d="M165.122,-143.065C159.122,-143.065 153.122,-137.065 153.122,-131.065"/>
<polyline fill="none" stroke="black" points="153.122,-131.065 153.122,-55.8648 "/>
<path fill="none" stroke="black" d="M153.122,-55.8648C153.122,-49.8648 159.122,-43.8648 165.122,-43.8648"/>
<text text-anchor="middle" x="207.002" y="-125.065" font-family="Times,serif" font-size="14.00">OauthController</text>
<polyline fill="none" stroke="black" points="153.122,-118.265 260.881,-118.265 "/>
<text text-anchor="start" x="161.122" y="-100.265" font-family="Times,serif" font-size="14.00">create</text>
<polyline fill="none" stroke="black" points="153.122,-93.4648 260.881,-93.4648 "/>
<text text-anchor="start" x="161.122" y="-75.4648" font-family="Times,serif" font-size="14.00">auth_hash</text>
<polyline fill="none" stroke="black" points="153.122,-68.6648 260.881,-68.6648 "/>
<text text-anchor="start" x="161.122" y="-50.6648" font-family="Times,serif" font-size="14.00">_layout</text>
</g>
<!-- ApplicationController&#45;&gt;OauthController -->
<g id="edge12" class="edge"><title>ApplicationController&#45;&gt;OauthController</title>
<path fill="none" stroke="black" d="M322.219,-261.291C294.206,-220.487 263.697,-176.048 241.115,-143.154"/>
</g>
<!-- UsersController -->
<g id="node12" class="node"><title>UsersController</title>
<polyline fill="none" stroke="black" points="616.203,-107.9 801.838,-107.9 "/>
<path fill="none" stroke="black" d="M801.838,-107.9C807.838,-107.9 813.838,-113.9 813.838,-119.9"/>
<polyline fill="none" stroke="black" points="813.838,-119.9 813.838,-379.1 "/>
<path fill="none" stroke="black" d="M813.838,-379.1C813.838,-385.1 807.838,-391.1 801.838,-391.1"/>
<polyline fill="none" stroke="black" points="801.838,-391.1 616.203,-391.1 "/>
<path fill="none" stroke="black" d="M616.203,-391.1C610.203,-391.1 604.203,-385.1 604.203,-379.1"/>
<polyline fill="none" stroke="black" points="604.203,-379.1 604.203,-119.9 "/>
<path fill="none" stroke="black" d="M604.203,-119.9C604.203,-113.9 610.203,-107.9 616.203,-107.9"/>
<text text-anchor="middle" x="709.02" y="-373.1" font-family="Times,serif" font-size="14.00">UsersController</text>
<polyline fill="none" stroke="black" points="604.203,-366.3 813.838,-366.3 "/>
<text text-anchor="start" x="612.203" y="-348.3" font-family="Times,serif" font-size="14.00">_one_time_conditions_valid_122?</text>
<text text-anchor="start" x="612.203" y="-331.5" font-family="Times,serif" font-size="14.00">authorize</text>
<text text-anchor="start" x="612.203" y="-314.7" font-family="Times,serif" font-size="14.00">create</text>
<text text-anchor="start" x="612.203" y="-297.9" font-family="Times,serif" font-size="14.00">destroy</text>
<text text-anchor="start" x="612.203" y="-281.1" font-family="Times,serif" font-size="14.00">edit</text>
<text text-anchor="start" x="612.203" y="-264.3" font-family="Times,serif" font-size="14.00">index</text>
<text text-anchor="start" x="612.203" y="-247.5" font-family="Times,serif" font-size="14.00">login</text>
<text text-anchor="start" x="612.203" y="-230.7" font-family="Times,serif" font-size="14.00">logout</text>
<text text-anchor="start" x="612.203" y="-213.9" font-family="Times,serif" font-size="14.00">new</text>
<text text-anchor="start" x="612.203" y="-197.1" font-family="Times,serif" font-size="14.00">register</text>
<text text-anchor="start" x="612.203" y="-180.3" font-family="Times,serif" font-size="14.00">show</text>
<text text-anchor="start" x="612.203" y="-163.5" font-family="Times,serif" font-size="14.00">update</text>
<polyline fill="none" stroke="black" points="604.203,-156.7 813.838,-156.7 "/>
<polyline fill="none" stroke="black" points="604.203,-132.7 813.838,-132.7 "/>
<text text-anchor="start" x="612.203" y="-114.7" font-family="Times,serif" font-size="14.00">_layout</text>
</g>
<!-- ApplicationController&#45;&gt;UsersController -->
<g id="edge14" class="edge"><title>ApplicationController&#45;&gt;UsersController</title>
<path fill="none" stroke="black" d="M498.044,-330.646C531.985,-317.592 569.875,-303.018 604.078,-289.863"/>
</g>
<!-- Contests::ProblemsController -->
<g id="node5" class="node"><title>Contests::ProblemsController</title>
<polyline fill="none" stroke="black" points="785.786,-731.5 964.421,-731.5 "/>
<path fill="none" stroke="black" d="M964.421,-731.5C970.421,-731.5 976.421,-737.5 976.421,-743.5"/>
<polyline fill="none" stroke="black" points="976.421,-743.5 976.421,-1036.3 "/>
<path fill="none" stroke="black" d="M976.421,-1036.3C976.421,-1042.3 970.421,-1048.3 964.421,-1048.3"/>
<polyline fill="none" stroke="black" points="964.421,-1048.3 785.786,-1048.3 "/>
<path fill="none" stroke="black" d="M785.786,-1048.3C779.786,-1048.3 773.786,-1042.3 773.786,-1036.3"/>
<polyline fill="none" stroke="black" points="773.786,-1036.3 773.786,-743.5 "/>
<path fill="none" stroke="black" d="M773.786,-743.5C773.786,-737.5 779.786,-731.5 785.786,-731.5"/>
<text text-anchor="middle" x="875.104" y="-1030.3" font-family="Times,serif" font-size="14.00">Contests::ProblemsController</text>
<polyline fill="none" stroke="black" points="773.786,-1023.5 976.421,-1023.5 "/>
<text text-anchor="start" x="781.786" y="-1005.5" font-family="Times,serif" font-size="14.00">_one_time_conditions_valid_32?</text>
<text text-anchor="start" x="781.786" y="-988.7" font-family="Times,serif" font-size="14.00">create</text>
<text text-anchor="start" x="781.786" y="-971.9" font-family="Times,serif" font-size="14.00">destroy</text>
<text text-anchor="start" x="781.786" y="-955.1" font-family="Times,serif" font-size="14.00">download</text>
<text text-anchor="start" x="781.786" y="-938.3" font-family="Times,serif" font-size="14.00">download_large</text>
<text text-anchor="start" x="781.786" y="-921.5" font-family="Times,serif" font-size="14.00">download_small</text>
<text text-anchor="start" x="781.786" y="-904.7" font-family="Times,serif" font-size="14.00">edit</text>
<text text-anchor="start" x="781.786" y="-887.9" font-family="Times,serif" font-size="14.00">index</text>
<text text-anchor="start" x="781.786" y="-871.1" font-family="Times,serif" font-size="14.00">new</text>
<text text-anchor="start" x="781.786" y="-854.3" font-family="Times,serif" font-size="14.00">show</text>
<text text-anchor="start" x="781.786" y="-837.5" font-family="Times,serif" font-size="14.00">submit</text>
<text text-anchor="start" x="781.786" y="-820.7" font-family="Times,serif" font-size="14.00">update</text>
<polyline fill="none" stroke="black" points="773.786,-813.9 976.421,-813.9 "/>
<polyline fill="none" stroke="black" points="773.786,-789.9 976.421,-789.9 "/>
<text text-anchor="start" x="781.786" y="-771.9" font-family="Times,serif" font-size="14.00">_layout</text>
<text text-anchor="start" x="781.786" y="-755.1" font-family="Times,serif" font-size="14.00">calculate_score</text>
<text text-anchor="start" x="781.786" y="-738.3" font-family="Times,serif" font-size="14.00">load_contest</text>
</g>
<!-- ContestsController -->
<g id="node7" class="node"><title>ContestsController</title>
<polyline fill="none" stroke="black" points="97.7861,-774.5 276.421,-774.5 "/>
<path fill="none" stroke="black" d="M276.421,-774.5C282.421,-774.5 288.421,-780.5 288.421,-786.5"/>
<polyline fill="none" stroke="black" points="288.421,-786.5 288.421,-978.5 "/>
<path fill="none" stroke="black" d="M288.421,-978.5C288.421,-984.5 282.421,-990.5 276.421,-990.5"/>
<polyline fill="none" stroke="black" points="276.421,-990.5 97.7861,-990.5 "/>
<path fill="none" stroke="black" d="M97.7861,-990.5C91.7861,-990.5 85.7861,-984.5 85.7861,-978.5"/>
<polyline fill="none" stroke="black" points="85.7861,-978.5 85.7861,-786.5 "/>
<path fill="none" stroke="black" d="M85.7861,-786.5C85.7861,-780.5 91.7861,-774.5 97.7861,-774.5"/>
<text text-anchor="middle" x="187.104" y="-972.5" font-family="Times,serif" font-size="14.00">ContestsController</text>
<polyline fill="none" stroke="black" points="85.7861,-965.7 288.421,-965.7 "/>
<text text-anchor="start" x="93.7861" y="-947.7" font-family="Times,serif" font-size="14.00">_one_time_conditions_valid_66?</text>
<text text-anchor="start" x="93.7861" y="-930.9" font-family="Times,serif" font-size="14.00">create</text>
<text text-anchor="start" x="93.7861" y="-914.1" font-family="Times,serif" font-size="14.00">destroy</text>
<text text-anchor="start" x="93.7861" y="-897.3" font-family="Times,serif" font-size="14.00">edit</text>
<text text-anchor="start" x="93.7861" y="-880.5" font-family="Times,serif" font-size="14.00">index</text>
<text text-anchor="start" x="93.7861" y="-863.7" font-family="Times,serif" font-size="14.00">new</text>
<text text-anchor="start" x="93.7861" y="-846.9" font-family="Times,serif" font-size="14.00">show</text>
<text text-anchor="start" x="93.7861" y="-830.1" font-family="Times,serif" font-size="14.00">update</text>
<polyline fill="none" stroke="black" points="85.7861,-823.3 288.421,-823.3 "/>
<polyline fill="none" stroke="black" points="85.7861,-799.3 288.421,-799.3 "/>
<text text-anchor="start" x="93.7861" y="-781.3" font-family="Times,serif" font-size="14.00">_layout</text>
</g>
<!-- TopController -->
<g id="node11" class="node"><title>TopController</title>
<polyline fill="none" stroke="black" points="613.786,-731.5 684.905,-731.5 "/>
<path fill="none" stroke="black" d="M684.905,-731.5C690.905,-731.5 696.905,-737.5 696.905,-743.5"/>
<polyline fill="none" stroke="black" points="696.905,-743.5 696.905,-817.9 "/>
<path fill="none" stroke="black" d="M696.905,-817.9C696.905,-823.9 690.905,-829.9 684.905,-829.9"/>
<polyline fill="none" stroke="black" points="684.905,-829.9 613.786,-829.9 "/>
<path fill="none" stroke="black" d="M613.786,-829.9C607.786,-829.9 601.786,-823.9 601.786,-817.9"/>
<polyline fill="none" stroke="black" points="601.786,-817.9 601.786,-743.5 "/>
<path fill="none" stroke="black" d="M601.786,-743.5C601.786,-737.5 607.786,-731.5 613.786,-731.5"/>
<text text-anchor="middle" x="649.346" y="-811.9" font-family="Times,serif" font-size="14.00">TopController</text>
<polyline fill="none" stroke="black" points="601.786,-805.1 696.905,-805.1 "/>
<text text-anchor="start" x="609.786" y="-787.1" font-family="Times,serif" font-size="14.00">index</text>
<polyline fill="none" stroke="black" points="601.786,-780.3 696.905,-780.3 "/>
<polyline fill="none" stroke="black" points="601.786,-756.3 696.905,-756.3 "/>
<text text-anchor="start" x="609.786" y="-738.3" font-family="Times,serif" font-size="14.00">_layout</text>
</g>
</g>
</svg>
