<?xml version="1.0" encoding="UTF-8" standalone="no"?>
<!DOCTYPE svg PUBLIC "-//W3C//DTD SVG 1.1//EN"
 "http://www.w3.org/Graphics/SVG/1.1/DTD/svg11.dtd">
<!-- Generated by graphviz version 2.28.0 (20120713.1652)
 -->
<!-- Title: models_diagram Pages: 1 -->
<svg width="819pt" height="858pt"
 viewBox="0.00 0.00 819.00 858.00" xmlns="http://www.w3.org/2000/svg" xmlns:xlink="http://www.w3.org/1999/xlink">
<g id="graph1" class="graph" transform="scale(1 1) rotate(0) translate(4 854)">
<title>models_diagram</title>
<polygon fill="white" stroke="white" points="-4,5 -4,-854 816,-854 816,5 -4,5"/>
<!-- _diagram_info -->
<g id="node1" class="node"><title>_diagram_info</title>
<text text-anchor="start" x="15.2798" y="-809.2" font-family="Times,serif" font-size="13.00">Models diagram</text>
<text text-anchor="start" x="15.2798" y="-793.6" font-family="Times,serif" font-size="13.00">Date: Apr 27 2013 &#45; 16:11</text>
<text text-anchor="start" x="15.2798" y="-778" font-family="Times,serif" font-size="13.00">Generated by RailRoady 1.1.0</text>
<text text-anchor="start" x="15.2798" y="-762.4" font-family="Times,serif" font-size="13.00">http://railroady.prestonlee.com</text>
</g>
<!-- Contest -->
<g id="node2" class="node"><title>Contest</title>
<polyline fill="none" stroke="black" points="11.5879,-510.8 170.412,-510.8 "/>
<path fill="none" stroke="black" d="M170.412,-510.8C176.412,-510.8 182.412,-516.8 182.412,-522.8"/>
<polyline fill="none" stroke="black" points="182.412,-522.8 182.412,-649.2 "/>
<path fill="none" stroke="black" d="M182.412,-649.2C182.412,-655.2 176.412,-661.2 170.412,-661.2"/>
<polyline fill="none" stroke="black" points="170.412,-661.2 11.5879,-661.2 "/>
<path fill="none" stroke="black" d="M11.5879,-661.2C5.58789,-661.2 -0.412109,-655.2 -0.412109,-649.2"/>
<polyline fill="none" stroke="black" points="-0.412109,-649.2 -0.412109,-522.8 "/>
<path fill="none" stroke="black" d="M-0.412109,-522.8C-0.412109,-516.8 5.58789,-510.8 11.5879,-510.8"/>
<text text-anchor="middle" x="91" y="-643.2" font-family="Times,serif" font-size="14.00">Contest</text>
<polyline fill="none" stroke="black" points="-0.412109,-636.4 182.412,-636.4 "/>
<text text-anchor="start" x="7.58789" y="-618.4" font-family="Times,serif" font-size="14.00">_id :Moped::BSON::ObjectId</text>
<text text-anchor="start" x="7.58789" y="-601.6" font-family="Times,serif" font-size="14.00">created_at :Time</text>
<text text-anchor="start" x="7.58789" y="-584.8" font-family="Times,serif" font-size="14.00">end_time :Time</text>
<text text-anchor="start" x="7.58789" y="-568" font-family="Times,serif" font-size="14.00">introduction :Object</text>
<text text-anchor="start" x="7.58789" y="-551.2" font-family="Times,serif" font-size="14.00">name :Object</text>
<text text-anchor="start" x="7.58789" y="-534.4" font-family="Times,serif" font-size="14.00">start_time :Time</text>
<text text-anchor="start" x="7.58789" y="-517.6" font-family="Times,serif" font-size="14.00">updated_at :Time</text>
</g>
<!-- Problem -->
<g id="node6" class="node"><title>Problem</title>
<polyline fill="none" stroke="black" points="11.5879,-188.4 170.412,-188.4 "/>
<path fill="none" stroke="black" d="M170.412,-188.4C176.412,-188.4 182.412,-194.4 182.412,-200.4"/>
<polyline fill="none" stroke="black" points="182.412,-200.4 182.412,-427.6 "/>
<path fill="none" stroke="black" d="M182.412,-427.6C182.412,-433.6 176.412,-439.6 170.412,-439.6"/>
<polyline fill="none" stroke="black" points="170.412,-439.6 11.5879,-439.6 "/>
<path fill="none" stroke="black" d="M11.5879,-439.6C5.58789,-439.6 -0.412109,-433.6 -0.412109,-427.6"/>
<polyline fill="none" stroke="black" points="-0.412109,-427.6 -0.412109,-200.4 "/>
<path fill="none" stroke="black" d="M-0.412109,-200.4C-0.412109,-194.4 5.58789,-188.4 11.5879,-188.4"/>
<text text-anchor="middle" x="91" y="-421.6" font-family="Times,serif" font-size="14.00">Problem</text>
<polyline fill="none" stroke="black" points="-0.412109,-414.8 182.412,-414.8 "/>
<text text-anchor="start" x="7.58789" y="-396.8" font-family="Times,serif" font-size="14.00">_id :Moped::BSON::ObjectId</text>
<text text-anchor="start" x="7.58789" y="-380" font-family="Times,serif" font-size="14.00">contest_id :Object</text>
<text text-anchor="start" x="7.58789" y="-363.2" font-family="Times,serif" font-size="14.00">created_at :Time</text>
<text text-anchor="start" x="7.58789" y="-346.4" font-family="Times,serif" font-size="14.00">description :Object</text>
<text text-anchor="start" x="7.58789" y="-329.6" font-family="Times,serif" font-size="14.00">description_html :Object</text>
<text text-anchor="start" x="7.58789" y="-312.8" font-family="Times,serif" font-size="14.00">large_input :Object</text>
<text text-anchor="start" x="7.58789" y="-296" font-family="Times,serif" font-size="14.00">large_output :Object</text>
<text text-anchor="start" x="7.58789" y="-279.2" font-family="Times,serif" font-size="14.00">large_score :Integer</text>
<text text-anchor="start" x="7.58789" y="-262.4" font-family="Times,serif" font-size="14.00">small_input :Object</text>
<text text-anchor="start" x="7.58789" y="-245.6" font-family="Times,serif" font-size="14.00">small_output :Object</text>
<text text-anchor="start" x="7.58789" y="-228.8" font-family="Times,serif" font-size="14.00">small_score :Integer</text>
<text text-anchor="start" x="7.58789" y="-212" font-family="Times,serif" font-size="14.00">title :Object</text>
<text text-anchor="start" x="7.58789" y="-195.2" font-family="Times,serif" font-size="14.00">updated_at :Time</text>
</g>
<!-- Contest&#45;&gt;Problem -->
<g id="edge2" class="edge"><title>Contest&#45;&gt;Problem</title>
<path fill="none" stroke="#1d7037" d="M91,-502.427C91,-485.87 91,-468.067 91,-450.259"/>
<ellipse fill="none" stroke="#1d7037" cx="91" cy="-506.507" rx="4" ry="4"/>
<polygon fill="#1d7037" stroke="#1d7037" points="91.0001,-449.782 95.5,-439.782 91,-444.782 91,-439.782 91,-439.782 91,-439.782 91,-444.782 86.5,-439.782 91.0001,-449.782 91.0001,-449.782"/>
</g>
<!-- Score -->
<g id="node7" class="node"><title>Score</title>
<polyline fill="none" stroke="black" points="212.588,-247.2 371.412,-247.2 "/>
<path fill="none" stroke="black" d="M371.412,-247.2C377.412,-247.2 383.412,-253.2 383.412,-259.2"/>
<polyline fill="none" stroke="black" points="383.412,-259.2 383.412,-368.8 "/>
<path fill="none" stroke="black" d="M383.412,-368.8C383.412,-374.8 377.412,-380.8 371.412,-380.8"/>
<polyline fill="none" stroke="black" points="371.412,-380.8 212.588,-380.8 "/>
<path fill="none" stroke="black" d="M212.588,-380.8C206.588,-380.8 200.588,-374.8 200.588,-368.8"/>
<polyline fill="none" stroke="black" points="200.588,-368.8 200.588,-259.2 "/>
<path fill="none" stroke="black" d="M200.588,-259.2C200.588,-253.2 206.588,-247.2 212.588,-247.2"/>
<text text-anchor="middle" x="292" y="-362.8" font-family="Times,serif" font-size="14.00">Score</text>
<polyline fill="none" stroke="black" points="200.588,-356 383.412,-356 "/>
<text text-anchor="start" x="208.588" y="-338" font-family="Times,serif" font-size="14.00">_id :Moped::BSON::ObjectId</text>
<text text-anchor="start" x="208.588" y="-321.2" font-family="Times,serif" font-size="14.00">contest_id :Object</text>
<text text-anchor="start" x="208.588" y="-304.4" font-family="Times,serif" font-size="14.00">created_at :Time</text>
<text text-anchor="start" x="208.588" y="-287.6" font-family="Times,serif" font-size="14.00">score :Integer</text>
<text text-anchor="start" x="208.588" y="-270.8" font-family="Times,serif" font-size="14.00">updated_at :Time</text>
<text text-anchor="start" x="208.588" y="-254" font-family="Times,serif" font-size="14.00">user_id :Object</text>
</g>
<!-- Contest&#45;&gt;Score -->
<g id="edge4" class="edge"><title>Contest&#45;&gt;Score</title>
<path fill="none" stroke="#4d0102" d="M151.472,-503.769C178.529,-467.424 210.213,-424.863 236.641,-389.363"/>
<ellipse fill="none" stroke="#4d0102" cx="148.845" cy="-507.298" rx="4.00002" ry="4.00002"/>
<polygon fill="#4d0102" stroke="#4d0102" points="236.919,-388.99 246.5,-383.656 239.904,-384.979 242.89,-380.968 242.89,-380.968 242.89,-380.968 239.904,-384.979 239.281,-378.281 236.919,-388.99 236.919,-388.99"/>
</g>
<!-- Group -->
<g id="node3" class="node"><title>Group</title>
<polyline fill="none" stroke="black" points="212.588,-741 371.412,-741 "/>
<path fill="none" stroke="black" d="M371.412,-741C377.412,-741 383.412,-747 383.412,-753"/>
<polyline fill="none" stroke="black" points="383.412,-753 383.412,-829 "/>
<path fill="none" stroke="black" d="M383.412,-829C383.412,-835 377.412,-841 371.412,-841"/>
<polyline fill="none" stroke="black" points="371.412,-841 212.588,-841 "/>
<path fill="none" stroke="black" d="M212.588,-841C206.588,-841 200.588,-835 200.588,-829"/>
<polyline fill="none" stroke="black" points="200.588,-829 200.588,-753 "/>
<path fill="none" stroke="black" d="M200.588,-753C200.588,-747 206.588,-741 212.588,-741"/>
<text text-anchor="middle" x="292" y="-823" font-family="Times,serif" font-size="14.00">Group</text>
<polyline fill="none" stroke="black" points="200.588,-816.2 383.412,-816.2 "/>
<text text-anchor="start" x="208.588" y="-798.2" font-family="Times,serif" font-size="14.00">_id :Moped::BSON::ObjectId</text>
<text text-anchor="start" x="208.588" y="-781.4" font-family="Times,serif" font-size="14.00">created_at :Time</text>
<text text-anchor="start" x="208.588" y="-764.6" font-family="Times,serif" font-size="14.00">name :Object</text>
<text text-anchor="start" x="208.588" y="-747.8" font-family="Times,serif" font-size="14.00">updated_at :Time</text>
</g>
<!-- User -->
<g id="node9" class="node"><title>User</title>
<polyline fill="none" stroke="black" points="212.588,-477.2 371.412,-477.2 "/>
<path fill="none" stroke="black" d="M371.412,-477.2C377.412,-477.2 383.412,-483.2 383.412,-489.2"/>
<polyline fill="none" stroke="black" points="383.412,-489.2 383.412,-682.8 "/>
<path fill="none" stroke="black" d="M383.412,-682.8C383.412,-688.8 377.412,-694.8 371.412,-694.8"/>
<polyline fill="none" stroke="black" points="371.412,-694.8 212.588,-694.8 "/>
<path fill="none" stroke="black" d="M212.588,-694.8C206.588,-694.8 200.588,-688.8 200.588,-682.8"/>
<polyline fill="none" stroke="black" points="200.588,-682.8 200.588,-489.2 "/>
<path fill="none" stroke="black" d="M200.588,-489.2C200.588,-483.2 206.588,-477.2 212.588,-477.2"/>
<text text-anchor="middle" x="292" y="-676.8" font-family="Times,serif" font-size="14.00">User</text>
<polyline fill="none" stroke="black" points="200.588,-670 383.412,-670 "/>
<text text-anchor="start" x="208.588" y="-652" font-family="Times,serif" font-size="14.00">_id :Moped::BSON::ObjectId</text>
<text text-anchor="start" x="208.588" y="-635.2" font-family="Times,serif" font-size="14.00">created_at :Time</text>
<text text-anchor="start" x="208.588" y="-618.4" font-family="Times,serif" font-size="14.00">email :Object</text>
<text text-anchor="start" x="208.588" y="-601.6" font-family="Times,serif" font-size="14.00">encrypted_password :Object</text>
<text text-anchor="start" x="208.588" y="-584.8" font-family="Times,serif" font-size="14.00">group_id :Object</text>
<text text-anchor="start" x="208.588" y="-568" font-family="Times,serif" font-size="14.00">is_admin :Boolean</text>
<text text-anchor="start" x="208.588" y="-551.2" font-family="Times,serif" font-size="14.00">name :Object</text>
<text text-anchor="start" x="208.588" y="-534.4" font-family="Times,serif" font-size="14.00">provider :Object</text>
<text text-anchor="start" x="208.588" y="-517.6" font-family="Times,serif" font-size="14.00">salt :Object</text>
<text text-anchor="start" x="208.588" y="-500.8" font-family="Times,serif" font-size="14.00">uid :Object</text>
<text text-anchor="start" x="208.588" y="-484" font-family="Times,serif" font-size="14.00">updated_at :Time</text>
</g>
<!-- Group&#45;&gt;User -->
<g id="edge6" class="edge"><title>Group&#45;&gt;User</title>
<path fill="none" stroke="#e46ea2" d="M292,-732.823C292,-724.025 292,-714.674 292,-705.121"/>
<ellipse fill="none" stroke="#e46ea2" cx="292" cy="-736.859" rx="4" ry="4"/>
<polygon fill="#e46ea2" stroke="#e46ea2" points="292,-705.108 296.5,-695.107 292,-700.108 292,-695.108 292,-695.108 292,-695.108 292,-700.108 287.5,-695.108 292,-705.108 292,-705.108"/>
</g>
<!-- Image -->
<g id="node4" class="node"><title>Image</title>
<polyline fill="none" stroke="black" points="413.644,-732.6 598.356,-732.6 "/>
<path fill="none" stroke="black" d="M598.356,-732.6C604.356,-732.6 610.356,-738.6 610.356,-744.6"/>
<polyline fill="none" stroke="black" points="610.356,-744.6 610.356,-837.4 "/>
<path fill="none" stroke="black" d="M610.356,-837.4C610.356,-843.4 604.356,-849.4 598.356,-849.4"/>
<polyline fill="none" stroke="black" points="598.356,-849.4 413.644,-849.4 "/>
<path fill="none" stroke="black" d="M413.644,-849.4C407.644,-849.4 401.644,-843.4 401.644,-837.4"/>
<polyline fill="none" stroke="black" points="401.644,-837.4 401.644,-744.6 "/>
<path fill="none" stroke="black" d="M401.644,-744.6C401.644,-738.6 407.644,-732.6 413.644,-732.6"/>
<text text-anchor="middle" x="506" y="-831.4" font-family="Times,serif" font-size="14.00">Image</text>
<polyline fill="none" stroke="black" points="401.644,-824.6 610.356,-824.6 "/>
<text text-anchor="start" x="409.644" y="-806.6" font-family="Times,serif" font-size="14.00">_id :Moped::BSON::ObjectId</text>
<text text-anchor="start" x="409.644" y="-789.8" font-family="Times,serif" font-size="14.00">attachment_content_type :String</text>
<text text-anchor="start" x="409.644" y="-773" font-family="Times,serif" font-size="14.00">attachment_file_name :String</text>
<text text-anchor="start" x="409.644" y="-756.2" font-family="Times,serif" font-size="14.00">attachment_file_size :Integer</text>
<text text-anchor="start" x="409.644" y="-739.4" font-family="Times,serif" font-size="14.00">attachment_updated_at :DateTime</text>
</g>
<!-- Output -->
<g id="node5" class="node"><title>Output</title>
<polyline fill="none" stroke="black" points="640.588,-749.4 799.412,-749.4 "/>
<path fill="none" stroke="black" d="M799.412,-749.4C805.412,-749.4 811.412,-755.4 811.412,-761.4"/>
<polyline fill="none" stroke="black" points="811.412,-761.4 811.412,-820.6 "/>
<path fill="none" stroke="black" d="M811.412,-820.6C811.412,-826.6 805.412,-832.6 799.412,-832.6"/>
<polyline fill="none" stroke="black" points="799.412,-832.6 640.588,-832.6 "/>
<path fill="none" stroke="black" d="M640.588,-832.6C634.588,-832.6 628.588,-826.6 628.588,-820.6"/>
<polyline fill="none" stroke="black" points="628.588,-820.6 628.588,-761.4 "/>
<path fill="none" stroke="black" d="M628.588,-761.4C628.588,-755.4 634.588,-749.4 640.588,-749.4"/>
<text text-anchor="middle" x="720" y="-814.6" font-family="Times,serif" font-size="14.00">Output</text>
<polyline fill="none" stroke="black" points="628.588,-807.8 811.412,-807.8 "/>
<text text-anchor="start" x="636.588" y="-789.8" font-family="Times,serif" font-size="14.00">_id :Moped::BSON::ObjectId</text>
<text text-anchor="start" x="636.588" y="-773" font-family="Times,serif" font-size="14.00">input_type :Object</text>
<text text-anchor="start" x="636.588" y="-756.2" font-family="Times,serif" font-size="14.00">output :Object</text>
</g>
<!-- Submit -->
<g id="node8" class="node"><title>Submit</title>
<polyline fill="none" stroke="black" points="212.588,-0.8 371.412,-0.8 "/>
<path fill="none" stroke="black" d="M371.412,-0.8C377.412,-0.8 383.412,-6.8 383.412,-12.8"/>
<polyline fill="none" stroke="black" points="383.412,-12.8 383.412,-139.2 "/>
<path fill="none" stroke="black" d="M383.412,-139.2C383.412,-145.2 377.412,-151.2 371.412,-151.2"/>
<polyline fill="none" stroke="black" points="371.412,-151.2 212.588,-151.2 "/>
<path fill="none" stroke="black" d="M212.588,-151.2C206.588,-151.2 200.588,-145.2 200.588,-139.2"/>
<polyline fill="none" stroke="black" points="200.588,-139.2 200.588,-12.8 "/>
<path fill="none" stroke="black" d="M200.588,-12.8C200.588,-6.8 206.588,-0.8 212.588,-0.8"/>
<text text-anchor="middle" x="292" y="-133.2" font-family="Times,serif" font-size="14.00">Submit</text>
<polyline fill="none" stroke="black" points="200.588,-126.4 383.412,-126.4 "/>
<text text-anchor="start" x="208.588" y="-108.4" font-family="Times,serif" font-size="14.00">_id :Moped::BSON::ObjectId</text>
<text text-anchor="start" x="208.588" y="-91.6" font-family="Times,serif" font-size="14.00">created_at :Time</text>
<text text-anchor="start" x="208.588" y="-74.8" font-family="Times,serif" font-size="14.00">problem_id :Object</text>
<text text-anchor="start" x="208.588" y="-58" font-family="Times,serif" font-size="14.00">problem_type :Object</text>
<text text-anchor="start" x="208.588" y="-41.2" font-family="Times,serif" font-size="14.00">score_id :Object</text>
<text text-anchor="start" x="208.588" y="-24.4" font-family="Times,serif" font-size="14.00">solved :Boolean</text>
<text text-anchor="start" x="208.588" y="-7.6" font-family="Times,serif" font-size="14.00">updated_at :Time</text>
</g>
<!-- Score&#45;&gt;Submit -->
<g id="edge8" class="edge"><title>Score&#45;&gt;Submit</title>
<path fill="none" stroke="#b1502e" d="M292,-238.809C292,-214.304 292,-186.862 292,-161.636"/>
<ellipse fill="none" stroke="#b1502e" cx="292" cy="-242.947" rx="4" ry="4"/>
<polygon fill="#b1502e" stroke="#b1502e" points="292,-161.349 296.5,-151.349 292,-156.349 292,-151.349 292,-151.349 292,-151.349 292,-156.349 287.5,-151.349 292,-161.349 292,-161.349"/>
</g>
<!-- User&#45;&gt;Score -->
<g id="edge10" class="edge"><title>User&#45;&gt;Score</title>
<path fill="none" stroke="#5c1f22" d="M292,-469.097C292,-442.778 292,-415.471 292,-391.286"/>
<ellipse fill="none" stroke="#5c1f22" cx="292" cy="-473.125" rx="4" ry="4"/>
<polygon fill="#5c1f22" stroke="#5c1f22" points="292,-391.124 296.5,-381.124 292,-386.124 292,-381.124 292,-381.124 292,-381.124 292,-386.124 287.5,-381.124 292,-391.124 292,-391.124"/>
</g>
</g>
</svg>
