<?xml version="1.0" encoding="UTF-8" standalone="no"?>
<!DOCTYPE svg PUBLIC "-//W3C//DTD SVG 1.1//EN"
 "http://www.w3.org/Graphics/SVG/1.1/DTD/svg11.dtd">
<!-- Generated by graphviz version 2.26.3 (20100126.1600)
 -->
<!-- Title: models_diagram Pages: 1 -->
<svg width="714pt" height="944pt"
 viewBox="0.00 0.00 714.00 944.00" xmlns="http://www.w3.org/2000/svg" xmlns:xlink="http://www.w3.org/1999/xlink">
<g id="graph1" class="graph" transform="scale(1 1) rotate(0) translate(4 940)">
<title>models_diagram</title>
<polygon fill="white" stroke="white" points="-4,5 -4,-940 711,-940 711,5 -4,5"/>
<!-- _diagram_info -->
<g id="node1" class="node"><title>_diagram_info</title>
<text text-anchor="start" x="7.5" y="-895.3" font-family="Times Roman,serif" font-size="13.00">Models diagram</text>
<text text-anchor="start" x="7.5" y="-878.3" font-family="Times Roman,serif" font-size="13.00">Date: Nov 01 2013 &#45; 03:24</text>
<text text-anchor="start" x="7.5" y="-861.3" font-family="Times Roman,serif" font-size="13.00">Generated by RailRoady 1.1.0</text>
<text text-anchor="start" x="7.5" y="-844.3" font-family="Times Roman,serif" font-size="13.00">http://railroady.prestonlee.com</text>
</g>
<!-- Contest -->
<g id="node2" class="node"><title>Contest</title>
<polyline fill="none" stroke="black" points="462.5,-577 643.5,-577 "/>
<path fill="none" stroke="black" d="M643.5,-577C649.5,-577 655.5,-583 655.5,-589"/>
<polyline fill="none" stroke="black" points="655.5,-589 655.5,-725 "/>
<path fill="none" stroke="black" d="M655.5,-725C655.5,-731 649.5,-737 643.5,-737"/>
<polyline fill="none" stroke="black" points="643.5,-737 462.5,-737 "/>
<path fill="none" stroke="black" d="M462.5,-737C456.5,-737 450.5,-731 450.5,-725"/>
<polyline fill="none" stroke="black" points="450.5,-725 450.5,-589 "/>
<path fill="none" stroke="black" d="M450.5,-589C450.5,-583 456.5,-577 462.5,-577"/>
<text text-anchor="middle" x="553" y="-720.4" font-family="Times Roman,serif" font-size="14.00">Contest</text>
<polyline fill="none" stroke="black" points="450.5,-711 655.5,-711 "/>
<text text-anchor="start" x="458.5" y="-694.4" font-family="Times Roman,serif" font-size="14.00">_id :Moped::BSON::ObjectId</text>
<text text-anchor="start" x="458.5" y="-676.4" font-family="Times Roman,serif" font-size="14.00">created_at :Time</text>
<text text-anchor="start" x="458.5" y="-658.4" font-family="Times Roman,serif" font-size="14.00">end_time :Time</text>
<text text-anchor="start" x="458.5" y="-640.4" font-family="Times Roman,serif" font-size="14.00">introduction :Object</text>
<text text-anchor="start" x="458.5" y="-622.4" font-family="Times Roman,serif" font-size="14.00">name :Object</text>
<text text-anchor="start" x="458.5" y="-604.4" font-family="Times Roman,serif" font-size="14.00">start_time :Time</text>
<text text-anchor="start" x="458.5" y="-586.4" font-family="Times Roman,serif" font-size="14.00">updated_at :Time</text>
</g>
<!-- Attendance -->
<g id="node4" class="node"><title>Attendance</title>
<polyline fill="none" stroke="black" points="240.5,-298 421.5,-298 "/>
<path fill="none" stroke="black" d="M421.5,-298C427.5,-298 433.5,-304 433.5,-310"/>
<polyline fill="none" stroke="black" points="433.5,-310 433.5,-410 "/>
<path fill="none" stroke="black" d="M433.5,-410C433.5,-416 427.5,-422 421.5,-422"/>
<polyline fill="none" stroke="black" points="421.5,-422 240.5,-422 "/>
<path fill="none" stroke="black" d="M240.5,-422C234.5,-422 228.5,-416 228.5,-410"/>
<polyline fill="none" stroke="black" points="228.5,-410 228.5,-310 "/>
<path fill="none" stroke="black" d="M228.5,-310C228.5,-304 234.5,-298 240.5,-298"/>
<text text-anchor="middle" x="331" y="-405.4" font-family="Times Roman,serif" font-size="14.00">Attendance</text>
<polyline fill="none" stroke="black" points="228.5,-396 433.5,-396 "/>
<text text-anchor="start" x="236.5" y="-379.4" font-family="Times Roman,serif" font-size="14.00">_id :Moped::BSON::ObjectId</text>
<text text-anchor="start" x="236.5" y="-361.4" font-family="Times Roman,serif" font-size="14.00">contest_id :Object</text>
<text text-anchor="start" x="236.5" y="-343.4" font-family="Times Roman,serif" font-size="14.00">created_at :Time</text>
<text text-anchor="start" x="236.5" y="-325.4" font-family="Times Roman,serif" font-size="14.00">updated_at :Time</text>
<text text-anchor="start" x="236.5" y="-307.4" font-family="Times Roman,serif" font-size="14.00">user_id :Object</text>
</g>
<!-- Contest&#45;&gt;Attendance -->
<g id="edge4" class="edge"><title>Contest&#45;&gt;Attendance</title>
<path fill="none" stroke="#305c47" d="M487.972,-570.003C454.724,-525.523 414.793,-472.101 383.525,-430.27"/>
<ellipse fill="none" stroke="#305c47" cx="490.529" cy="-573.424" rx="4.00002" ry="4.00002"/>
<polygon fill="#305c47" stroke="#305c47" points="383.379,-430.074 380.996,-419.37 380.385,-426.069 377.392,-422.065 377.392,-422.065 377.392,-422.065 380.385,-426.069 373.787,-424.759 383.379,-430.074 383.379,-430.074"/>
</g>
<!-- Problem -->
<g id="node7" class="node"><title>Problem</title>
<polyline fill="none" stroke="black" points="462.5,-217 643.5,-217 "/>
<path fill="none" stroke="black" d="M643.5,-217C649.5,-217 655.5,-223 655.5,-229"/>
<polyline fill="none" stroke="black" points="655.5,-229 655.5,-491 "/>
<path fill="none" stroke="black" d="M655.5,-491C655.5,-497 649.5,-503 643.5,-503"/>
<polyline fill="none" stroke="black" points="643.5,-503 462.5,-503 "/>
<path fill="none" stroke="black" d="M462.5,-503C456.5,-503 450.5,-497 450.5,-491"/>
<polyline fill="none" stroke="black" points="450.5,-491 450.5,-229 "/>
<path fill="none" stroke="black" d="M450.5,-229C450.5,-223 456.5,-217 462.5,-217"/>
<text text-anchor="middle" x="553" y="-486.4" font-family="Times Roman,serif" font-size="14.00">Problem</text>
<polyline fill="none" stroke="black" points="450.5,-477 655.5,-477 "/>
<text text-anchor="start" x="458.5" y="-460.4" font-family="Times Roman,serif" font-size="14.00">_id :Moped::BSON::ObjectId</text>
<text text-anchor="start" x="458.5" y="-442.4" font-family="Times Roman,serif" font-size="14.00">contest_id :Object</text>
<text text-anchor="start" x="458.5" y="-424.4" font-family="Times Roman,serif" font-size="14.00">created_at :Time</text>
<text text-anchor="start" x="458.5" y="-406.4" font-family="Times Roman,serif" font-size="14.00">description :Object</text>
<text text-anchor="start" x="458.5" y="-388.4" font-family="Times Roman,serif" font-size="14.00">description_html :Object</text>
<text text-anchor="start" x="458.5" y="-370.4" font-family="Times Roman,serif" font-size="14.00">is_solved :Boolean</text>
<text text-anchor="start" x="458.5" y="-352.4" font-family="Times Roman,serif" font-size="14.00">large_input :Object</text>
<text text-anchor="start" x="458.5" y="-334.4" font-family="Times Roman,serif" font-size="14.00">large_output :Object</text>
<text text-anchor="start" x="458.5" y="-316.4" font-family="Times Roman,serif" font-size="14.00">large_score :Integer</text>
<text text-anchor="start" x="458.5" y="-298.4" font-family="Times Roman,serif" font-size="14.00">small_input :Object</text>
<text text-anchor="start" x="458.5" y="-280.4" font-family="Times Roman,serif" font-size="14.00">small_output :Object</text>
<text text-anchor="start" x="458.5" y="-262.4" font-family="Times Roman,serif" font-size="14.00">small_score :Integer</text>
<text text-anchor="start" x="458.5" y="-244.4" font-family="Times Roman,serif" font-size="14.00">title :Object</text>
<text text-anchor="start" x="458.5" y="-226.4" font-family="Times Roman,serif" font-size="14.00">updated_at :Time</text>
</g>
<!-- Contest&#45;&gt;Problem -->
<g id="edge2" class="edge"><title>Contest&#45;&gt;Problem</title>
<path fill="none" stroke="#fbcd5e" d="M553,-568.517C553,-551.036 553,-532.22 553,-513.3"/>
<ellipse fill="none" stroke="#fbcd5e" cx="553" cy="-572.628" rx="4" ry="4"/>
<polygon fill="#fbcd5e" stroke="#fbcd5e" points="553,-513.096 557.5,-503.096 553,-508.096 553,-503.096 553,-503.096 553,-503.096 553,-508.096 548.5,-503.096 553,-513.096 553,-513.096"/>
</g>
<!-- Submission -->
<g id="node3" class="node"><title>Submission</title>
<polyline fill="none" stroke="black" points="351.5,-1 532.5,-1 "/>
<path fill="none" stroke="black" d="M532.5,-1C538.5,-1 544.5,-7 544.5,-13"/>
<polyline fill="none" stroke="black" points="544.5,-13 544.5,-167 "/>
<path fill="none" stroke="black" d="M544.5,-167C544.5,-173 538.5,-179 532.5,-179"/>
<polyline fill="none" stroke="black" points="532.5,-179 351.5,-179 "/>
<path fill="none" stroke="black" d="M351.5,-179C345.5,-179 339.5,-173 339.5,-167"/>
<polyline fill="none" stroke="black" points="339.5,-167 339.5,-13 "/>
<path fill="none" stroke="black" d="M339.5,-13C339.5,-7 345.5,-1 351.5,-1"/>
<text text-anchor="middle" x="442" y="-162.4" font-family="Times Roman,serif" font-size="14.00">Submission</text>
<polyline fill="none" stroke="black" points="339.5,-153 544.5,-153 "/>
<text text-anchor="start" x="347.5" y="-136.4" font-family="Times Roman,serif" font-size="14.00">_id :Moped::BSON::ObjectId</text>
<text text-anchor="start" x="347.5" y="-118.4" font-family="Times Roman,serif" font-size="14.00">attendance_id :Object</text>
<text text-anchor="start" x="347.5" y="-100.4" font-family="Times Roman,serif" font-size="14.00">created_at :Time</text>
<text text-anchor="start" x="347.5" y="-82.4" font-family="Times Roman,serif" font-size="14.00">problem_id :Object</text>
<text text-anchor="start" x="347.5" y="-64.4" font-family="Times Roman,serif" font-size="14.00">problem_type :Object</text>
<text text-anchor="start" x="347.5" y="-46.4" font-family="Times Roman,serif" font-size="14.00">score :Integer</text>
<text text-anchor="start" x="347.5" y="-28.4" font-family="Times Roman,serif" font-size="14.00">solved :Boolean</text>
<text text-anchor="start" x="347.5" y="-10.4" font-family="Times Roman,serif" font-size="14.00">updated_at :Time</text>
</g>
<!-- Attendance&#45;&gt;Submission -->
<g id="edge6" class="edge"><title>Attendance&#45;&gt;Submission</title>
<path fill="none" stroke="#5e735a" d="M359.712,-290.159C372.444,-259.19 387.65,-222.202 401.507,-188.497"/>
<ellipse fill="none" stroke="#5e735a" cx="358.126" cy="-294.018" rx="4.00001" ry="4.00001"/>
<polygon fill="#5e735a" stroke="#5e735a" points="401.574,-188.334 409.538,-180.796 403.475,-183.709 405.376,-179.085 405.376,-179.085 405.376,-179.085 403.475,-183.709 401.214,-177.374 401.574,-188.334 401.574,-188.334"/>
</g>
<!-- Image -->
<g id="node5" class="node"><title>Image</title>
<polyline fill="none" stroke="black" points="460,-811 694,-811 "/>
<path fill="none" stroke="black" d="M694,-811C700,-811 706,-817 706,-823"/>
<polyline fill="none" stroke="black" points="706,-823 706,-923 "/>
<path fill="none" stroke="black" d="M706,-923C706,-929 700,-935 694,-935"/>
<polyline fill="none" stroke="black" points="694,-935 460,-935 "/>
<path fill="none" stroke="black" d="M460,-935C454,-935 448,-929 448,-923"/>
<polyline fill="none" stroke="black" points="448,-923 448,-823 "/>
<path fill="none" stroke="black" d="M448,-823C448,-817 454,-811 460,-811"/>
<text text-anchor="middle" x="577" y="-918.4" font-family="Times Roman,serif" font-size="14.00">Image</text>
<polyline fill="none" stroke="black" points="448,-909 706,-909 "/>
<text text-anchor="start" x="456" y="-892.4" font-family="Times Roman,serif" font-size="14.00">_id :Moped::BSON::ObjectId</text>
<text text-anchor="start" x="456" y="-874.4" font-family="Times Roman,serif" font-size="14.00">attachment_content_type :String</text>
<text text-anchor="start" x="456" y="-856.4" font-family="Times Roman,serif" font-size="14.00">attachment_file_name :String</text>
<text text-anchor="start" x="456" y="-838.4" font-family="Times Roman,serif" font-size="14.00">attachment_file_size :Integer</text>
<text text-anchor="start" x="456" y="-820.4" font-family="Times Roman,serif" font-size="14.00">attachment_updated_at :DateTime</text>
</g>
<!-- Group -->
<g id="node6" class="node"><title>Group</title>
<polyline fill="none" stroke="black" points="237.5,-820 418.5,-820 "/>
<path fill="none" stroke="black" d="M418.5,-820C424.5,-820 430.5,-826 430.5,-832"/>
<polyline fill="none" stroke="black" points="430.5,-832 430.5,-914 "/>
<path fill="none" stroke="black" d="M430.5,-914C430.5,-920 424.5,-926 418.5,-926"/>
<polyline fill="none" stroke="black" points="418.5,-926 237.5,-926 "/>
<path fill="none" stroke="black" d="M237.5,-926C231.5,-926 225.5,-920 225.5,-914"/>
<polyline fill="none" stroke="black" points="225.5,-914 225.5,-832 "/>
<path fill="none" stroke="black" d="M225.5,-832C225.5,-826 231.5,-820 237.5,-820"/>
<text text-anchor="middle" x="328" y="-909.4" font-family="Times Roman,serif" font-size="14.00">Group</text>
<polyline fill="none" stroke="black" points="225.5,-900 430.5,-900 "/>
<text text-anchor="start" x="233.5" y="-883.4" font-family="Times Roman,serif" font-size="14.00">_id :Moped::BSON::ObjectId</text>
<text text-anchor="start" x="233.5" y="-865.4" font-family="Times Roman,serif" font-size="14.00">created_at :Time</text>
<text text-anchor="start" x="233.5" y="-847.4" font-family="Times Roman,serif" font-size="14.00">name :Object</text>
<text text-anchor="start" x="233.5" y="-829.4" font-family="Times Roman,serif" font-size="14.00">updated_at :Time</text>
</g>
<!-- User -->
<g id="node8" class="node"><title>User</title>
<polyline fill="none" stroke="black" points="234.5,-541 421.5,-541 "/>
<path fill="none" stroke="black" d="M421.5,-541C427.5,-541 433.5,-547 433.5,-553"/>
<polyline fill="none" stroke="black" points="433.5,-553 433.5,-761 "/>
<path fill="none" stroke="black" d="M433.5,-761C433.5,-767 427.5,-773 421.5,-773"/>
<polyline fill="none" stroke="black" points="421.5,-773 234.5,-773 "/>
<path fill="none" stroke="black" d="M234.5,-773C228.5,-773 222.5,-767 222.5,-761"/>
<polyline fill="none" stroke="black" points="222.5,-761 222.5,-553 "/>
<path fill="none" stroke="black" d="M222.5,-553C222.5,-547 228.5,-541 234.5,-541"/>
<text text-anchor="middle" x="328" y="-756.4" font-family="Times Roman,serif" font-size="14.00">User</text>
<polyline fill="none" stroke="black" points="222.5,-747 433.5,-747 "/>
<text text-anchor="start" x="230.5" y="-730.4" font-family="Times Roman,serif" font-size="14.00">_id :Moped::BSON::ObjectId</text>
<text text-anchor="start" x="230.5" y="-712.4" font-family="Times Roman,serif" font-size="14.00">created_at :Time</text>
<text text-anchor="start" x="230.5" y="-694.4" font-family="Times Roman,serif" font-size="14.00">email :Object</text>
<text text-anchor="start" x="230.5" y="-676.4" font-family="Times Roman,serif" font-size="14.00">encrypted_password :Object</text>
<text text-anchor="start" x="230.5" y="-658.4" font-family="Times Roman,serif" font-size="14.00">group_id :Object</text>
<text text-anchor="start" x="230.5" y="-640.4" font-family="Times Roman,serif" font-size="14.00">is_admin :Boolean</text>
<text text-anchor="start" x="230.5" y="-622.4" font-family="Times Roman,serif" font-size="14.00">name :Object</text>
<text text-anchor="start" x="230.5" y="-604.4" font-family="Times Roman,serif" font-size="14.00">provider :Object</text>
<text text-anchor="start" x="230.5" y="-586.4" font-family="Times Roman,serif" font-size="14.00">salt :Object</text>
<text text-anchor="start" x="230.5" y="-568.4" font-family="Times Roman,serif" font-size="14.00">uid :Object</text>
<text text-anchor="start" x="230.5" y="-550.4" font-family="Times Roman,serif" font-size="14.00">updated_at :Time</text>
</g>
<!-- Group&#45;&gt;User -->
<g id="edge8" class="edge"><title>Group&#45;&gt;User</title>
<path fill="none" stroke="#a0e948" d="M328,-811.627C328,-802.598 328,-793.031 328,-783.258"/>
<ellipse fill="none" stroke="#a0e948" cx="328" cy="-815.884" rx="4" ry="4"/>
<polygon fill="#a0e948" stroke="#a0e948" points="328,-783.013 332.5,-773.013 328,-778.013 328,-773.013 328,-773.013 328,-773.013 328,-778.013 323.5,-773.013 328,-783.013 328,-783.013"/>
</g>
<!-- Problem&#45;&gt;Submission -->
<g id="edge10" class="edge"><title>Problem&#45;&gt;Submission</title>
<path fill="none" stroke="#9ab5c2" d="M491.023,-209.244C488.202,-202.383 485.403,-195.576 482.657,-188.896"/>
<ellipse fill="none" stroke="#9ab5c2" cx="492.566" cy="-212.999" rx="4.00002" ry="4.00002"/>
<polygon fill="#9ab5c2" stroke="#9ab5c2" points="482.478,-188.459 482.837,-177.499 480.576,-183.834 478.675,-179.21 478.675,-179.21 478.675,-179.21 480.576,-183.834 474.513,-180.921 482.478,-188.459 482.478,-188.459"/>
</g>
<!-- User&#45;&gt;Attendance -->
<g id="edge12" class="edge"><title>User&#45;&gt;Attendance</title>
<path fill="none" stroke="#e4473b" d="M329.255,-532.784C329.601,-498.476 329.966,-462.389 330.272,-432.12"/>
<ellipse fill="none" stroke="#e4473b" cx="329.213" cy="-536.896" rx="4" ry="4"/>
<polygon fill="#e4473b" stroke="#e4473b" points="330.272,-432.089 334.873,-422.135 330.322,-427.089 330.373,-422.089 330.373,-422.089 330.373,-422.089 330.322,-427.089 325.873,-422.044 330.272,-432.089 330.272,-432.089"/>
</g>
</g>
</svg>
