<?xml version="1.0" encoding="UTF-8" standalone="no"?>
<!DOCTYPE svg PUBLIC "-//W3C//DTD SVG 1.1//EN"
 "http://www.w3.org/Graphics/SVG/1.1/DTD/svg11.dtd">
<!-- Generated by graphviz version 2.26.3 (20100126.1600)
 -->
<!-- Title: models_diagram Pages: 1 -->
<svg width="463pt" height="306pt"
 viewBox="0.00 0.00 463.00 306.00" xmlns="http://www.w3.org/2000/svg" xmlns:xlink="http://www.w3.org/1999/xlink">
<g id="graph1" class="graph" transform="scale(1 1) rotate(0) translate(4 302)">
<title>models_diagram</title>
<polygon fill="white" stroke="white" points="-4,5 -4,-302 460,-302 460,5 -4,5"/>
<!-- _diagram_info -->
<g id="node1" class="node"><title>_diagram_info</title>
<text text-anchor="start" x="7.5" y="-282.3" font-family="Times Roman,serif" font-size="13.00">Models diagram</text>
<text text-anchor="start" x="7.5" y="-265.3" font-family="Times Roman,serif" font-size="13.00">Date: Nov 01 2013 &#45; 03:24</text>
<text text-anchor="start" x="7.5" y="-248.3" font-family="Times Roman,serif" font-size="13.00">Generated by RailRoady 1.1.0</text>
<text text-anchor="start" x="7.5" y="-231.3" font-family="Times Roman,serif" font-size="13.00">http://railroady.prestonlee.com</text>
</g>
<!-- Contest -->
<g id="node2" class="node"><title>Contest</title>
<ellipse fill="none" stroke="black" cx="386" cy="-167" rx="50.2046" ry="18.3848"/>
<text text-anchor="middle" x="386" y="-163.4" font-family="Times Roman,serif" font-size="14.00">Contest</text>
</g>
<!-- Attendance -->
<g id="node4" class="node"><title>Attendance</title>
<ellipse fill="none" stroke="black" cx="267" cy="-93" rx="67.8823" ry="18.3848"/>
<text text-anchor="middle" x="267" y="-89.4" font-family="Times Roman,serif" font-size="14.00">Attendance</text>
</g>
<!-- Contest&#45;&gt;Attendance -->
<g id="edge4" class="edge"><title>Contest&#45;&gt;Attendance</title>
<path fill="none" stroke="#04079f" d="M353.082,-146.53C337.519,-136.852 318.901,-125.274 302.967,-115.366"/>
<ellipse fill="none" stroke="#04079f" cx="356.782" cy="-148.831" rx="4.00002" ry="4.00002"/>
<polygon fill="#04079f" stroke="#04079f" points="302.919,-115.336 296.803,-106.234 298.673,-112.696 294.427,-110.055 294.427,-110.055 294.427,-110.055 298.673,-112.696 292.051,-113.877 302.919,-115.336 302.919,-115.336"/>
</g>
<!-- Problem -->
<g id="node7" class="node"><title>Problem</title>
<ellipse fill="none" stroke="black" cx="404" cy="-93" rx="50.9117" ry="18.3848"/>
<text text-anchor="middle" x="404" y="-89.4" font-family="Times Roman,serif" font-size="14.00">Problem</text>
</g>
<!-- Contest&#45;&gt;Problem -->
<g id="edge2" class="edge"><title>Contest&#45;&gt;Problem</title>
<path fill="none" stroke="#7821c9" d="M392.492,-140.309C393.971,-134.229 395.549,-127.745 397.046,-121.589"/>
<ellipse fill="none" stroke="#7821c9" cx="391.488" cy="-144.44" rx="4.00001" ry="4.00001"/>
<polygon fill="#7821c9" stroke="#7821c9" points="397.096,-121.384 403.832,-112.731 398.277,-116.526 399.459,-111.667 399.459,-111.667 399.459,-111.667 398.277,-116.526 395.087,-110.604 397.096,-121.384 397.096,-121.384"/>
</g>
<!-- Submission -->
<g id="node3" class="node"><title>Submission</title>
<ellipse fill="none" stroke="black" cx="335" cy="-19" rx="65.9683" ry="18.3848"/>
<text text-anchor="middle" x="335" y="-15.4" font-family="Times Roman,serif" font-size="14.00">Submission</text>
</g>
<!-- Attendance&#45;&gt;Submission -->
<g id="edge6" class="edge"><title>Attendance&#45;&gt;Submission</title>
<path fill="none" stroke="#95d6df" d="M289.478,-68.5382C296.553,-60.8393 304.383,-52.3189 311.525,-44.5466"/>
<ellipse fill="none" stroke="#95d6df" cx="286.516" cy="-71.7625" rx="4.00002" ry="4.00002"/>
<polygon fill="#95d6df" stroke="#95d6df" points="311.618,-44.445 321.698,-40.1266 315.001,-40.7634 318.384,-37.0817 318.384,-37.0817 318.384,-37.0817 315.001,-40.7634 315.071,-34.0369 311.618,-44.445 311.618,-44.445"/>
</g>
<!-- Image -->
<g id="node5" class="node"><title>Image</title>
<ellipse fill="none" stroke="black" cx="367" cy="-260" rx="41.2167" ry="18.3848"/>
<text text-anchor="middle" x="367" y="-256.4" font-family="Times Roman,serif" font-size="14.00">Image</text>
</g>
<!-- Group -->
<g id="node6" class="node"><title>Group</title>
<ellipse fill="none" stroke="black" cx="267" cy="-260" rx="41.2167" ry="18.3848"/>
<text text-anchor="middle" x="267" y="-256.4" font-family="Times Roman,serif" font-size="14.00">Group</text>
</g>
<!-- User -->
<g id="node8" class="node"><title>User</title>
<ellipse fill="none" stroke="black" cx="267" cy="-167" rx="33.9411" ry="18.3848"/>
<text text-anchor="middle" x="267" y="-163.4" font-family="Times Roman,serif" font-size="14.00">User</text>
</g>
<!-- Group&#45;&gt;User -->
<g id="edge8" class="edge"><title>Group&#45;&gt;User</title>
<path fill="none" stroke="#df26f8" d="M267,-233.158C267,-221.544 267,-207.925 267,-196.072"/>
<ellipse fill="none" stroke="#df26f8" cx="267" cy="-237.18" rx="4" ry="4"/>
<polygon fill="#df26f8" stroke="#df26f8" points="267,-195.792 271.5,-185.792 267,-190.792 267,-185.792 267,-185.792 267,-185.792 267,-190.792 262.5,-185.792 267,-195.792 267,-195.792"/>
</g>
<!-- Problem&#45;&gt;Submission -->
<g id="edge10" class="edge"><title>Problem&#45;&gt;Submission</title>
<path fill="none" stroke="#1d58e4" d="M382.072,-69.4832C374.623,-61.4947 366.269,-52.5349 358.689,-44.4058"/>
<ellipse fill="none" stroke="#1d58e4" cx="384.92" cy="-72.5375" rx="4.00002" ry="4.00002"/>
<polygon fill="#1d58e4" stroke="#1d58e4" points="358.534,-44.239 355.005,-33.8563 355.124,-40.5821 351.714,-36.9251 351.714,-36.9251 351.714,-36.9251 355.124,-40.5821 348.423,-39.994 358.534,-44.239 358.534,-44.239"/>
</g>
<!-- User&#45;&gt;Attendance -->
<g id="edge12" class="edge"><title>User&#45;&gt;Attendance</title>
<path fill="none" stroke="#6b737f" d="M267,-140.309C267,-134.377 267,-128.061 267,-122.04"/>
<ellipse fill="none" stroke="#6b737f" cx="267" cy="-144.327" rx="4" ry="4"/>
<polygon fill="#6b737f" stroke="#6b737f" points="267,-121.667 271.5,-111.667 267,-116.667 267,-111.667 267,-111.667 267,-111.667 267,-116.667 262.5,-111.667 267,-121.667 267,-121.667"/>
</g>
</g>
</svg>
