<?xml version="1.0" encoding="UTF-8" standalone="no"?>
<!DOCTYPE svg PUBLIC "-//W3C//DTD SVG 1.1//EN"
 "http://www.w3.org/Graphics/SVG/1.1/DTD/svg11.dtd">
<!-- Generated by graphviz version 2.28.0 (20120713.1652)
 -->
<!-- Title: models_diagram Pages: 1 -->
<svg width="453pt" height="294pt"
 viewBox="0.00 0.00 453.00 294.00" xmlns="http://www.w3.org/2000/svg" xmlns:xlink="http://www.w3.org/1999/xlink">
<g id="graph1" class="graph" transform="scale(1 1) rotate(0) translate(4 290)">
<title>models_diagram</title>
<polygon fill="white" stroke="white" points="-4,5 -4,-290 450,-290 450,5 -4,5"/>
<!-- _diagram_info -->
<g id="node1" class="node"><title>_diagram_info</title>
<text text-anchor="start" x="7.27979" y="-269.2" font-family="Times,serif" font-size="13.00">Models diagram</text>
<text text-anchor="start" x="7.27979" y="-253.6" font-family="Times,serif" font-size="13.00">Date: Apr 27 2013 &#45; 16:11</text>
<text text-anchor="start" x="7.27979" y="-238" font-family="Times,serif" font-size="13.00">Generated by RailRoady 1.1.0</text>
<text text-anchor="start" x="7.27979" y="-222.4" font-family="Times,serif" font-size="13.00">http://railroady.prestonlee.com</text>
</g>
<!-- Contest -->
<g id="node2" class="node"><title>Contest</title>
<ellipse fill="none" stroke="black" cx="136" cy="-162" rx="40.3171" ry="18"/>
<text text-anchor="middle" x="136" y="-156.4" font-family="Times,serif" font-size="14.00">Contest</text>
</g>
<!-- Problem -->
<g id="node6" class="node"><title>Problem</title>
<ellipse fill="none" stroke="black" cx="133" cy="-90" rx="43.1445" ry="18"/>
<text text-anchor="middle" x="133" y="-84.4" font-family="Times,serif" font-size="14.00">Problem</text>
</g>
<!-- Contest&#45;&gt;Problem -->
<g id="edge2" class="edge"><title>Contest&#45;&gt;Problem</title>
<path fill="none" stroke="#d7429f" d="M134.913,-135.64C134.674,-130.063 134.42,-124.132 134.178,-118.476"/>
<ellipse fill="none" stroke="#d7429f" cx="135.087" cy="-139.7" rx="4" ry="4"/>
<polygon fill="#d7429f" stroke="#d7429f" points="134.161,-118.095 138.229,-107.912 133.947,-113.1 133.733,-108.104 133.733,-108.104 133.733,-108.104 133.947,-113.1 129.237,-108.297 134.161,-118.095 134.161,-118.095"/>
</g>
<!-- Score -->
<g id="node7" class="node"><title>Score</title>
<ellipse fill="none" stroke="black" cx="228" cy="-90" rx="33.036" ry="18"/>
<text text-anchor="middle" x="228" y="-84.4" font-family="Times,serif" font-size="14.00">Score</text>
</g>
<!-- Contest&#45;&gt;Score -->
<g id="edge4" class="edge"><title>Contest&#45;&gt;Score</title>
<path fill="none" stroke="#47b2f8" d="M162.167,-141.09C174.431,-131.759 189.02,-120.659 201.345,-111.281"/>
<ellipse fill="none" stroke="#47b2f8" cx="158.694" cy="-143.733" rx="4.00002" ry="4.00002"/>
<polygon fill="#47b2f8" stroke="#47b2f8" points="201.5,-111.163 212.183,-108.689 205.479,-108.135 209.459,-105.108 209.459,-105.108 209.459,-105.108 205.479,-108.135 206.734,-101.526 201.5,-111.163 201.5,-111.163"/>
</g>
<!-- Group -->
<g id="node3" class="node"><title>Group</title>
<ellipse fill="none" stroke="black" cx="228" cy="-251" rx="35.5667" ry="18"/>
<text text-anchor="middle" x="228" y="-245.4" font-family="Times,serif" font-size="14.00">Group</text>
</g>
<!-- User -->
<g id="node9" class="node"><title>User</title>
<ellipse fill="none" stroke="black" cx="228" cy="-162" rx="28.9087" ry="18"/>
<text text-anchor="middle" x="228" y="-156.4" font-family="Times,serif" font-size="14.00">User</text>
</g>
<!-- Group&#45;&gt;User -->
<g id="edge6" class="edge"><title>Group&#45;&gt;User</title>
<path fill="none" stroke="#0d3f52" d="M228,-224.808C228,-214.056 228,-201.48 228,-190.489"/>
<ellipse fill="none" stroke="#0d3f52" cx="228" cy="-228.812" rx="4" ry="4"/>
<polygon fill="#0d3f52" stroke="#0d3f52" points="228,-190.153 232.5,-180.153 228,-185.153 228,-180.153 228,-180.153 228,-180.153 228,-185.153 223.5,-180.153 228,-190.153 228,-190.153"/>
</g>
<!-- Image -->
<g id="node4" class="node"><title>Image</title>
<ellipse fill="none" stroke="black" cx="317" cy="-251" rx="35.2475" ry="18"/>
<text text-anchor="middle" x="317" y="-245.4" font-family="Times,serif" font-size="14.00">Image</text>
</g>
<!-- Output -->
<g id="node5" class="node"><title>Output</title>
<ellipse fill="none" stroke="black" cx="408" cy="-251" rx="37.2949" ry="18"/>
<text text-anchor="middle" x="408" y="-245.4" font-family="Times,serif" font-size="14.00">Output</text>
</g>
<!-- Submit -->
<g id="node8" class="node"><title>Submit</title>
<ellipse fill="none" stroke="black" cx="228" cy="-18" rx="38.4133" ry="18"/>
<text text-anchor="middle" x="228" y="-12.4" font-family="Times,serif" font-size="14.00">Submit</text>
</g>
<!-- Score&#45;&gt;Submit -->
<g id="edge8" class="edge"><title>Score&#45;&gt;Submit</title>
<path fill="none" stroke="#7e538a" d="M228,-63.6398C228,-58.0629 228,-52.1319 228,-46.4761"/>
<ellipse fill="none" stroke="#7e538a" cx="228" cy="-67.6966" rx="4" ry="4"/>
<polygon fill="#7e538a" stroke="#7e538a" points="228,-46.1043 232.5,-36.1043 228,-41.1043 228,-36.1043 228,-36.1043 228,-36.1043 228,-41.1043 223.5,-36.1044 228,-46.1043 228,-46.1043"/>
</g>
<!-- User&#45;&gt;Score -->
<g id="edge10" class="edge"><title>User&#45;&gt;Score</title>
<path fill="none" stroke="#0ff0fe" d="M228,-135.64C228,-130.063 228,-124.132 228,-118.476"/>
<ellipse fill="none" stroke="#0ff0fe" cx="228" cy="-139.697" rx="4" ry="4"/>
<polygon fill="#0ff0fe" stroke="#0ff0fe" points="228,-118.104 232.5,-108.104 228,-113.104 228,-108.104 228,-108.104 228,-108.104 228,-113.104 223.5,-108.104 228,-118.104 228,-118.104"/>
</g>
</g>
</svg>
