<?xml version="1.0" encoding="UTF-8" standalone="no"?>
<!DOCTYPE svg PUBLIC "-//W3C//DTD SVG 1.1//EN"
 "http://www.w3.org/Graphics/SVG/1.1/DTD/svg11.dtd">
<!-- Generated by graphviz version 2.26.3 (20100126.1600)
 -->
<!-- Title: controllers_diagram Pages: 1 -->
<svg width="1013pt" height="1049pt"
 viewBox="0.00 0.00 1013.00 1049.00" xmlns="http://www.w3.org/2000/svg" xmlns:xlink="http://www.w3.org/1999/xlink">
<g id="graph1" class="graph" transform="scale(1 1) rotate(0) translate(4 1045)">
<title>controllers_diagram</title>
<polygon fill="white" stroke="white" points="-4,5 -4,-1045 1010,-1045 1010,5 -4,5"/>
<!-- _diagram_info -->
<g id="node1" class="node"><title>_diagram_info</title>
<text text-anchor="start" x="369" y="-196.3" font-family="Times Roman,serif" font-size="13.00">Controllers diagram</text>
<text text-anchor="start" x="369" y="-179.3" font-family="Times Roman,serif" font-size="13.00">Date: Apr 27 2013 &#45; 02:31</text>
<text text-anchor="start" x="369" y="-162.3" font-family="Times Roman,serif" font-size="13.00">Generated by RailRoady 1.1.0</text>
<text text-anchor="start" x="369" y="-145.3" font-family="Times Roman,serif" font-size="13.00">http://railroady.prestonlee.com</text>
</g>
<!-- UsersController -->
<g id="node2" class="node"><title>UsersController</title>
<polyline fill="none" stroke="black" points="64.3342,-1.5 278.334,-1.5 "/>
<path fill="none" stroke="black" d="M278.334,-1.5C284.334,-1.5 290.334,-7.5 290.334,-13.5"/>
<polyline fill="none" stroke="black" points="290.334,-13.5 290.334,-289.5 "/>
<path fill="none" stroke="black" d="M290.334,-289.5C290.334,-295.5 284.334,-301.5 278.334,-301.5"/>
<polyline fill="none" stroke="black" points="278.334,-301.5 64.3342,-301.5 "/>
<path fill="none" stroke="black" d="M64.3342,-301.5C58.3342,-301.5 52.3342,-295.5 52.3342,-289.5"/>
<polyline fill="none" stroke="black" points="52.3342,-289.5 52.3342,-13.5 "/>
<path fill="none" stroke="black" d="M52.3342,-13.5C52.3342,-7.5 58.3342,-1.5 64.3342,-1.5"/>
<text text-anchor="middle" x="171.334" y="-284.9" font-family="Times Roman,serif" font-size="14.00">UsersController</text>
<polyline fill="none" stroke="black" points="52.3342,-275.5 290.334,-275.5 "/>
<text text-anchor="start" x="60.3342" y="-258.9" font-family="Times Roman,serif" font-size="14.00">_one_time_conditions_valid_36?</text>
<text text-anchor="start" x="60.3342" y="-240.9" font-family="Times Roman,serif" font-size="14.00">authorize</text>
<text text-anchor="start" x="60.3342" y="-222.9" font-family="Times Roman,serif" font-size="14.00">create</text>
<text text-anchor="start" x="60.3342" y="-204.9" font-family="Times Roman,serif" font-size="14.00">destroy</text>
<text text-anchor="start" x="60.3342" y="-186.9" font-family="Times Roman,serif" font-size="14.00">edit</text>
<text text-anchor="start" x="60.3342" y="-168.9" font-family="Times Roman,serif" font-size="14.00">index</text>
<text text-anchor="start" x="60.3342" y="-150.9" font-family="Times Roman,serif" font-size="14.00">login</text>
<text text-anchor="start" x="60.3342" y="-132.9" font-family="Times Roman,serif" font-size="14.00">logout</text>
<text text-anchor="start" x="60.3342" y="-114.9" font-family="Times Roman,serif" font-size="14.00">new</text>
<text text-anchor="start" x="60.3342" y="-96.9" font-family="Times Roman,serif" font-size="14.00">register</text>
<text text-anchor="start" x="60.3342" y="-78.9" font-family="Times Roman,serif" font-size="14.00">show</text>
<text text-anchor="start" x="60.3342" y="-60.9" font-family="Times Roman,serif" font-size="14.00">update</text>
<polyline fill="none" stroke="black" points="52.3342,-51.5 290.334,-51.5 "/>
<polyline fill="none" stroke="black" points="52.3342,-27.5 290.334,-27.5 "/>
<text text-anchor="start" x="60.3342" y="-10.9" font-family="Times Roman,serif" font-size="14.00">_layout</text>
</g>
<!-- ApplicationController -->
<g id="node3" class="node"><title>ApplicationController</title>
<polyline fill="none" stroke="black" points="320.943,-254.361 534.943,-254.361 "/>
<path fill="none" stroke="black" d="M534.943,-254.361C540.943,-254.361 546.943,-260.361 546.943,-266.361"/>
<polyline fill="none" stroke="black" points="546.943,-266.361 546.943,-470.361 "/>
<path fill="none" stroke="black" d="M546.943,-470.361C546.943,-476.361 540.943,-482.361 534.943,-482.361"/>
<polyline fill="none" stroke="black" points="534.943,-482.361 320.943,-482.361 "/>
<path fill="none" stroke="black" d="M320.943,-482.361C314.943,-482.361 308.943,-476.361 308.943,-470.361"/>
<polyline fill="none" stroke="black" points="308.943,-470.361 308.943,-266.361 "/>
<path fill="none" stroke="black" d="M308.943,-266.361C308.943,-260.361 314.943,-254.361 320.943,-254.361"/>
<text text-anchor="middle" x="427.943" y="-465.761" font-family="Times Roman,serif" font-size="14.00">ApplicationController</text>
<polyline fill="none" stroke="black" points="308.943,-456.361 546.943,-456.361 "/>
<text text-anchor="start" x="316.943" y="-439.761" font-family="Times Roman,serif" font-size="14.00">_one_time_conditions_valid_12?</text>
<text text-anchor="start" x="316.943" y="-421.761" font-family="Times Roman,serif" font-size="14.00">_one_time_conditions_valid_14?</text>
<text text-anchor="start" x="316.943" y="-403.761" font-family="Times Roman,serif" font-size="14.00">admin_filter</text>
<text text-anchor="start" x="316.943" y="-385.761" font-family="Times Roman,serif" font-size="14.00">current_user</text>
<text text-anchor="start" x="316.943" y="-367.761" font-family="Times Roman,serif" font-size="14.00">generate_random_token</text>
<text text-anchor="start" x="316.943" y="-349.761" font-family="Times Roman,serif" font-size="14.00">login_filter</text>
<text text-anchor="start" x="316.943" y="-331.761" font-family="Times Roman,serif" font-size="14.00">login_user</text>
<text text-anchor="start" x="316.943" y="-313.761" font-family="Times Roman,serif" font-size="14.00">logout_user</text>
<polyline fill="none" stroke="black" points="308.943,-304.361 546.943,-304.361 "/>
<polyline fill="none" stroke="black" points="308.943,-280.361 546.943,-280.361 "/>
<text text-anchor="start" x="316.943" y="-263.761" font-family="Times Roman,serif" font-size="14.00">_layout</text>
</g>
<!-- ApplicationController&#45;&gt;UsersController -->
<g id="edge2" class="edge"><title>ApplicationController&#45;&gt;UsersController</title>
<path fill="none" stroke="black" d="M308.653,-267.549C302.633,-262.461 296.585,-257.35 290.565,-252.263"/>
</g>
<!-- OauthController -->
<g id="node4" class="node"><title>OauthController</title>
<polyline fill="none" stroke="black" points="633.618,-95.2169 738.618,-95.2169 "/>
<path fill="none" stroke="black" d="M738.618,-95.2169C744.618,-95.2169 750.618,-101.217 750.618,-107.217"/>
<polyline fill="none" stroke="black" points="750.618,-107.217 750.618,-187.217 "/>
<path fill="none" stroke="black" d="M750.618,-187.217C750.618,-193.217 744.618,-199.217 738.618,-199.217"/>
<polyline fill="none" stroke="black" points="738.618,-199.217 633.618,-199.217 "/>
<path fill="none" stroke="black" d="M633.618,-199.217C627.618,-199.217 621.618,-193.217 621.618,-187.217"/>
<polyline fill="none" stroke="black" points="621.618,-187.217 621.618,-107.217 "/>
<path fill="none" stroke="black" d="M621.618,-107.217C621.618,-101.217 627.618,-95.2169 633.618,-95.2169"/>
<text text-anchor="middle" x="686.118" y="-182.617" font-family="Times Roman,serif" font-size="14.00">OauthController</text>
<polyline fill="none" stroke="black" points="621.618,-173.217 750.618,-173.217 "/>
<text text-anchor="start" x="629.618" y="-156.617" font-family="Times Roman,serif" font-size="14.00">create</text>
<polyline fill="none" stroke="black" points="621.618,-147.217 750.618,-147.217 "/>
<text text-anchor="start" x="629.618" y="-130.617" font-family="Times Roman,serif" font-size="14.00">auth_hash</text>
<polyline fill="none" stroke="black" points="621.618,-121.217 750.618,-121.217 "/>
<text text-anchor="start" x="629.618" y="-104.617" font-family="Times Roman,serif" font-size="14.00">_layout</text>
</g>
<!-- ApplicationController&#45;&gt;OauthController -->
<g id="edge4" class="edge"><title>ApplicationController&#45;&gt;OauthController</title>
<path fill="none" stroke="black" d="M547.206,-266.204C574.291,-243.004 601.956,-219.307 625.395,-199.23"/>
</g>
<!-- Contests::ScoresController -->
<g id="node7" class="node"><title>Contests::ScoresController</title>
<polyline fill="none" stroke="black" points="339.858,-634.626 553.858,-634.626 "/>
<path fill="none" stroke="black" d="M553.858,-634.626C559.858,-634.626 565.858,-640.626 565.858,-646.626"/>
<polyline fill="none" stroke="black" points="565.858,-646.626 565.858,-760.626 "/>
<path fill="none" stroke="black" d="M565.858,-760.626C565.858,-766.626 559.858,-772.626 553.858,-772.626"/>
<polyline fill="none" stroke="black" points="553.858,-772.626 339.858,-772.626 "/>
<path fill="none" stroke="black" d="M339.858,-772.626C333.858,-772.626 327.858,-766.626 327.858,-760.626"/>
<polyline fill="none" stroke="black" points="327.858,-760.626 327.858,-646.626 "/>
<path fill="none" stroke="black" d="M327.858,-646.626C327.858,-640.626 333.858,-634.626 339.858,-634.626"/>
<text text-anchor="middle" x="446.858" y="-756.026" font-family="Times Roman,serif" font-size="14.00">Contests::ScoresController</text>
<polyline fill="none" stroke="black" points="327.858,-746.626 565.858,-746.626 "/>
<text text-anchor="start" x="335.858" y="-730.026" font-family="Times Roman,serif" font-size="14.00">_one_time_conditions_valid_78?</text>
<text text-anchor="start" x="335.858" y="-712.026" font-family="Times Roman,serif" font-size="14.00">show</text>
<polyline fill="none" stroke="black" points="327.858,-702.626 565.858,-702.626 "/>
<polyline fill="none" stroke="black" points="327.858,-678.626 565.858,-678.626 "/>
<text text-anchor="start" x="335.858" y="-662.026" font-family="Times Roman,serif" font-size="14.00">_layout</text>
<text text-anchor="start" x="335.858" y="-644.026" font-family="Times Roman,serif" font-size="14.00">load_contest</text>
</g>
<!-- ApplicationController&#45;&gt;Contests::ScoresController -->
<g id="edge6" class="edge"><title>ApplicationController&#45;&gt;Contests::ScoresController</title>
<path fill="none" stroke="black" d="M434.399,-482.802C437.246,-533.261 440.497,-590.893 442.965,-634.625"/>
</g>
<!-- AuthController -->
<g id="node8" class="node"><title>AuthController</title>
<polyline fill="none" stroke="black" points="645.164,-547.826 859.164,-547.826 "/>
<path fill="none" stroke="black" d="M859.164,-547.826C865.164,-547.826 871.164,-553.826 871.164,-559.826"/>
<polyline fill="none" stroke="black" points="871.164,-559.826 871.164,-637.826 "/>
<path fill="none" stroke="black" d="M871.164,-637.826C871.164,-643.826 865.164,-649.826 859.164,-649.826"/>
<polyline fill="none" stroke="black" points="859.164,-649.826 645.164,-649.826 "/>
<path fill="none" stroke="black" d="M645.164,-649.826C639.164,-649.826 633.164,-643.826 633.164,-637.826"/>
<polyline fill="none" stroke="black" points="633.164,-637.826 633.164,-559.826 "/>
<path fill="none" stroke="black" d="M633.164,-559.826C633.164,-553.826 639.164,-547.826 645.164,-547.826"/>
<text text-anchor="middle" x="752.164" y="-633.226" font-family="Times Roman,serif" font-size="14.00">AuthController</text>
<polyline fill="none" stroke="black" points="633.164,-623.826 871.164,-623.826 "/>
<text text-anchor="start" x="641.164" y="-607.226" font-family="Times Roman,serif" font-size="14.00">_one_time_conditions_valid_40?</text>
<polyline fill="none" stroke="black" points="633.164,-597.826 871.164,-597.826 "/>
<polyline fill="none" stroke="black" points="633.164,-573.826 871.164,-573.826 "/>
<text text-anchor="start" x="641.164" y="-557.226" font-family="Times Roman,serif" font-size="14.00">_layout</text>
</g>
<!-- ApplicationController&#45;&gt;AuthController -->
<g id="edge8" class="edge"><title>ApplicationController&#45;&gt;AuthController</title>
<path fill="none" stroke="black" d="M547.29,-453.196C591.888,-484.897 641.136,-519.904 680.169,-547.65"/>
</g>
<!-- GroupsController -->
<g id="node9" class="node"><title>GroupsController</title>
<polyline fill="none" stroke="black" points="13,-488.593 227,-488.593 "/>
<path fill="none" stroke="black" d="M227,-488.593C233,-488.593 239,-494.593 239,-500.593"/>
<polyline fill="none" stroke="black" points="239,-500.593 239,-722.593 "/>
<path fill="none" stroke="black" d="M239,-722.593C239,-728.593 233,-734.593 227,-734.593"/>
<polyline fill="none" stroke="black" points="227,-734.593 13,-734.593 "/>
<path fill="none" stroke="black" d="M13,-734.593C7,-734.593 1,-728.593 1,-722.593"/>
<polyline fill="none" stroke="black" points="1,-722.593 1,-500.593 "/>
<path fill="none" stroke="black" d="M1,-500.593C1,-494.593 7,-488.593 13,-488.593"/>
<text text-anchor="middle" x="120" y="-717.993" font-family="Times Roman,serif" font-size="14.00">GroupsController</text>
<polyline fill="none" stroke="black" points="1,-708.593 239,-708.593 "/>
<text text-anchor="start" x="9" y="-691.993" font-family="Times Roman,serif" font-size="14.00">_one_time_conditions_valid_96?</text>
<text text-anchor="start" x="9" y="-673.993" font-family="Times Roman,serif" font-size="14.00">create</text>
<text text-anchor="start" x="9" y="-655.993" font-family="Times Roman,serif" font-size="14.00">destroy</text>
<text text-anchor="start" x="9" y="-637.993" font-family="Times Roman,serif" font-size="14.00">edit</text>
<text text-anchor="start" x="9" y="-619.993" font-family="Times Roman,serif" font-size="14.00">index</text>
<text text-anchor="start" x="9" y="-601.993" font-family="Times Roman,serif" font-size="14.00">join</text>
<text text-anchor="start" x="9" y="-583.993" font-family="Times Roman,serif" font-size="14.00">new</text>
<text text-anchor="start" x="9" y="-565.993" font-family="Times Roman,serif" font-size="14.00">show</text>
<text text-anchor="start" x="9" y="-547.993" font-family="Times Roman,serif" font-size="14.00">update</text>
<polyline fill="none" stroke="black" points="1,-538.593 239,-538.593 "/>
<polyline fill="none" stroke="black" points="1,-514.593 239,-514.593 "/>
<text text-anchor="start" x="9" y="-497.993" font-family="Times Roman,serif" font-size="14.00">_layout</text>
</g>
<!-- ApplicationController&#45;&gt;GroupsController -->
<g id="edge10" class="edge"><title>ApplicationController&#45;&gt;GroupsController</title>
<path fill="none" stroke="black" d="M308.884,-462.401C286.036,-480.448 262.104,-499.351 239.25,-517.403"/>
</g>
<!-- ContestsController -->
<g id="node5" class="node"><title>ContestsController</title>
<polyline fill="none" stroke="black" points="688,-271.5 902,-271.5 "/>
<path fill="none" stroke="black" d="M902,-271.5C908,-271.5 914,-277.5 914,-283.5"/>
<polyline fill="none" stroke="black" points="914,-283.5 914,-487.5 "/>
<path fill="none" stroke="black" d="M914,-487.5C914,-493.5 908,-499.5 902,-499.5"/>
<polyline fill="none" stroke="black" points="902,-499.5 688,-499.5 "/>
<path fill="none" stroke="black" d="M688,-499.5C682,-499.5 676,-493.5 676,-487.5"/>
<polyline fill="none" stroke="black" points="676,-487.5 676,-283.5 "/>
<path fill="none" stroke="black" d="M676,-283.5C676,-277.5 682,-271.5 688,-271.5"/>
<text text-anchor="middle" x="795" y="-482.9" font-family="Times Roman,serif" font-size="14.00">ContestsController</text>
<polyline fill="none" stroke="black" points="676,-473.5 914,-473.5 "/>
<text text-anchor="start" x="684" y="-456.9" font-family="Times Roman,serif" font-size="14.00">_one_time_conditions_valid_56?</text>
<text text-anchor="start" x="684" y="-438.9" font-family="Times Roman,serif" font-size="14.00">create</text>
<text text-anchor="start" x="684" y="-420.9" font-family="Times Roman,serif" font-size="14.00">destroy</text>
<text text-anchor="start" x="684" y="-402.9" font-family="Times Roman,serif" font-size="14.00">edit</text>
<text text-anchor="start" x="684" y="-384.9" font-family="Times Roman,serif" font-size="14.00">index</text>
<text text-anchor="start" x="684" y="-366.9" font-family="Times Roman,serif" font-size="14.00">new</text>
<text text-anchor="start" x="684" y="-348.9" font-family="Times Roman,serif" font-size="14.00">show</text>
<text text-anchor="start" x="684" y="-330.9" font-family="Times Roman,serif" font-size="14.00">update</text>
<polyline fill="none" stroke="black" points="676,-321.5 914,-321.5 "/>
<polyline fill="none" stroke="black" points="676,-297.5 914,-297.5 "/>
<text text-anchor="start" x="684" y="-280.9" font-family="Times Roman,serif" font-size="14.00">_layout</text>
</g>
<!-- Contests::ProblemsController -->
<g id="node6" class="node"><title>Contests::ProblemsController</title>
<polyline fill="none" stroke="black" points="778,-721.5 992,-721.5 "/>
<path fill="none" stroke="black" d="M992,-721.5C998,-721.5 1004,-727.5 1004,-733.5"/>
<polyline fill="none" stroke="black" points="1004,-733.5 1004,-1027.5 "/>
<path fill="none" stroke="black" d="M1004,-1027.5C1004,-1033.5 998,-1039.5 992,-1039.5"/>
<polyline fill="none" stroke="black" points="992,-1039.5 778,-1039.5 "/>
<path fill="none" stroke="black" d="M778,-1039.5C772,-1039.5 766,-1033.5 766,-1027.5"/>
<polyline fill="none" stroke="black" points="766,-1027.5 766,-733.5 "/>
<path fill="none" stroke="black" d="M766,-733.5C766,-727.5 772,-721.5 778,-721.5"/>
<text text-anchor="middle" x="885" y="-1022.9" font-family="Times Roman,serif" font-size="14.00">Contests::ProblemsController</text>
<polyline fill="none" stroke="black" points="766,-1013.5 1004,-1013.5 "/>
<text text-anchor="start" x="774" y="-996.9" font-family="Times Roman,serif" font-size="14.00">_one_time_conditions_valid_76?</text>
<text text-anchor="start" x="774" y="-978.9" font-family="Times Roman,serif" font-size="14.00">create</text>
<text text-anchor="start" x="774" y="-960.9" font-family="Times Roman,serif" font-size="14.00">destroy</text>
<text text-anchor="start" x="774" y="-942.9" font-family="Times Roman,serif" font-size="14.00">download</text>
<text text-anchor="start" x="774" y="-924.9" font-family="Times Roman,serif" font-size="14.00">download_large</text>
<text text-anchor="start" x="774" y="-906.9" font-family="Times Roman,serif" font-size="14.00">download_small</text>
<text text-anchor="start" x="774" y="-888.9" font-family="Times Roman,serif" font-size="14.00">edit</text>
<text text-anchor="start" x="774" y="-870.9" font-family="Times Roman,serif" font-size="14.00">index</text>
<text text-anchor="start" x="774" y="-852.9" font-family="Times Roman,serif" font-size="14.00">new</text>
<text text-anchor="start" x="774" y="-834.9" font-family="Times Roman,serif" font-size="14.00">show</text>
<text text-anchor="start" x="774" y="-816.9" font-family="Times Roman,serif" font-size="14.00">submit</text>
<text text-anchor="start" x="774" y="-798.9" font-family="Times Roman,serif" font-size="14.00">update</text>
<polyline fill="none" stroke="black" points="766,-789.5 1004,-789.5 "/>
<polyline fill="none" stroke="black" points="766,-765.5 1004,-765.5 "/>
<text text-anchor="start" x="774" y="-748.9" font-family="Times Roman,serif" font-size="14.00">_layout</text>
<text text-anchor="start" x="774" y="-730.9" font-family="Times Roman,serif" font-size="14.00">load_contest</text>
</g>
<!-- TopController -->
<g id="node10" class="node"><title>TopController</title>
<polyline fill="none" stroke="black" points="823,-46.5 908,-46.5 "/>
<path fill="none" stroke="black" d="M908,-46.5C914,-46.5 920,-52.5 920,-58.5"/>
<polyline fill="none" stroke="black" points="920,-58.5 920,-136.5 "/>
<path fill="none" stroke="black" d="M920,-136.5C920,-142.5 914,-148.5 908,-148.5"/>
<polyline fill="none" stroke="black" points="908,-148.5 823,-148.5 "/>
<path fill="none" stroke="black" d="M823,-148.5C817,-148.5 811,-142.5 811,-136.5"/>
<polyline fill="none" stroke="black" points="811,-136.5 811,-58.5 "/>
<path fill="none" stroke="black" d="M811,-58.5C811,-52.5 817,-46.5 823,-46.5"/>
<text text-anchor="middle" x="865.5" y="-131.9" font-family="Times Roman,serif" font-size="14.00">TopController</text>
<polyline fill="none" stroke="black" points="811,-122.5 920,-122.5 "/>
<text text-anchor="start" x="819" y="-105.9" font-family="Times Roman,serif" font-size="14.00">index</text>
<polyline fill="none" stroke="black" points="811,-96.5 920,-96.5 "/>
<polyline fill="none" stroke="black" points="811,-72.5 920,-72.5 "/>
<text text-anchor="start" x="819" y="-55.9" font-family="Times Roman,serif" font-size="14.00">_layout</text>
</g>
</g>
</svg>
