<?xml version="1.0" encoding="UTF-8" standalone="no"?>
<!DOCTYPE svg PUBLIC "-//W3C//DTD SVG 1.1//EN"
 "http://www.w3.org/Graphics/SVG/1.1/DTD/svg11.dtd">
<!-- Generated by graphviz version 2.26.3 (20100126.1600)
 -->
<!-- Title: models_diagram Pages: 1 -->
<svg width="546pt" height="232pt"
 viewBox="0.00 0.00 546.00 232.00" xmlns="http://www.w3.org/2000/svg" xmlns:xlink="http://www.w3.org/1999/xlink">
<g id="graph1" class="graph" transform="scale(1 1) rotate(0) translate(4 228)">
<title>models_diagram</title>
<polygon fill="white" stroke="white" points="-4,5 -4,-228 543,-228 543,5 -4,5"/>
<!-- _diagram_info -->
<g id="node1" class="node"><title>_diagram_info</title>
<text text-anchor="start" x="8" y="-208.3" font-family="Times Roman,serif" font-size="13.00">Models diagram</text>
<text text-anchor="start" x="8" y="-191.3" font-family="Times Roman,serif" font-size="13.00">Date: Apr 27 2013 &#45; 02:30</text>
<text text-anchor="start" x="8" y="-174.3" font-family="Times Roman,serif" font-size="13.00">Generated by RailRoady 1.1.0</text>
<text text-anchor="start" x="8" y="-157.3" font-family="Times Roman,serif" font-size="13.00">http://railroady.prestonlee.com</text>
</g>
<!-- User -->
<g id="node2" class="node"><title>User</title>
<ellipse fill="none" stroke="black" cx="385" cy="-93" rx="33.9411" ry="18.3848"/>
<text text-anchor="middle" x="385" y="-89.4" font-family="Times Roman,serif" font-size="14.00">User</text>
</g>
<!-- Submit -->
<g id="node7" class="node"><title>Submit</title>
<ellipse fill="none" stroke="black" cx="332" cy="-19" rx="45.9619" ry="18.3848"/>
<text text-anchor="middle" x="332" y="-15.4" font-family="Times Roman,serif" font-size="14.00">Submit</text>
</g>
<!-- User&#45;&gt;Submit -->
<g id="edge2" class="edge"><title>User&#45;&gt;Submit</title>
<path fill="none" stroke="#04fd1e" d="M367.732,-68.8903C362.376,-61.4117 356.445,-53.1301 350.979,-45.4985"/>
<ellipse fill="none" stroke="#04fd1e" cx="370.111" cy="-72.2111" rx="4.00002" ry="4.00002"/>
<polygon fill="#04fd1e" stroke="#04fd1e" points="350.661,-45.0551 348.497,-34.3049 347.75,-40.9901 344.838,-36.9251 344.838,-36.9251 344.838,-36.9251 347.75,-40.9901 341.18,-39.5454 350.661,-45.0551 350.661,-45.0551"/>
</g>
<!-- Problem -->
<g id="node3" class="node"><title>Problem</title>
<ellipse fill="none" stroke="black" cx="279" cy="-93" rx="51.1176" ry="18.3848"/>
<text text-anchor="middle" x="279" y="-89.4" font-family="Times Roman,serif" font-size="14.00">Problem</text>
</g>
<!-- Problem&#45;&gt;Submit -->
<g id="edge4" class="edge"><title>Problem&#45;&gt;Submit</title>
<path fill="none" stroke="#5fa472" d="M296.497,-68.5696C301.8,-61.1661 307.648,-53.0006 313.042,-45.4699"/>
<ellipse fill="none" stroke="#5fa472" cx="294.159" cy="-71.8347" rx="4.00002" ry="4.00002"/>
<polygon fill="#5fa472" stroke="#5fa472" points="313.282,-45.1348 322.763,-39.6251 316.193,-41.0698 319.105,-37.0049 319.105,-37.0049 319.105,-37.0049 316.193,-41.0698 315.446,-34.3846 313.282,-45.1348 313.282,-45.1348"/>
</g>
<!-- Contest -->
<g id="node4" class="node"><title>Contest</title>
<ellipse fill="none" stroke="black" cx="278" cy="-186" rx="50.2046" ry="18.3848"/>
<text text-anchor="middle" x="278" y="-182.4" font-family="Times Roman,serif" font-size="14.00">Contest</text>
</g>
<!-- Contest&#45;&gt;Problem -->
<g id="edge6" class="edge"><title>Contest&#45;&gt;Problem</title>
<path fill="none" stroke="#bd3f60" d="M278.289,-159.158C278.414,-147.544 278.56,-133.925 278.687,-122.072"/>
<ellipse fill="none" stroke="#bd3f60" cx="278.245" cy="-163.18" rx="4" ry="4"/>
<polygon fill="#bd3f60" stroke="#bd3f60" points="278.69,-121.791 283.298,-111.84 278.744,-116.792 278.798,-111.792 278.798,-111.792 278.798,-111.792 278.744,-116.792 274.298,-111.744 278.69,-121.791 278.69,-121.791"/>
</g>
<!-- Group -->
<g id="node5" class="node"><title>Group</title>
<ellipse fill="none" stroke="black" cx="387" cy="-186" rx="41.2167" ry="18.3848"/>
<text text-anchor="middle" x="387" y="-182.4" font-family="Times Roman,serif" font-size="14.00">Group</text>
</g>
<!-- Group&#45;&gt;User -->
<g id="edge8" class="edge"><title>Group&#45;&gt;User</title>
<path fill="none" stroke="#1928bd" d="M386.423,-159.158C386.173,-147.544 385.88,-133.925 385.625,-122.072"/>
<ellipse fill="none" stroke="#1928bd" cx="386.509" cy="-163.181" rx="4" ry="4"/>
<polygon fill="#1928bd" stroke="#1928bd" points="385.619,-121.79 389.903,-111.695 385.512,-116.791 385.404,-111.792 385.404,-111.792 385.404,-111.792 385.512,-116.791 380.905,-111.889 385.619,-121.79 385.619,-121.79"/>
</g>
<!-- Output -->
<g id="node6" class="node"><title>Output</title>
<ellipse fill="none" stroke="black" cx="492" cy="-186" rx="46.1672" ry="18.3848"/>
<text text-anchor="middle" x="492" y="-182.4" font-family="Times Roman,serif" font-size="14.00">Output</text>
</g>
</g>
</svg>
