<?xml version="1.0" encoding="UTF-8" standalone="no"?>
<!DOCTYPE svg PUBLIC "-//W3C//DTD SVG 1.1//EN"
 "http://www.w3.org/Graphics/SVG/1.1/DTD/svg11.dtd">
<!-- Generated by graphviz version 2.26.3 (20100126.1600)
 -->
<!-- Title: models_diagram Pages: 1 -->
<svg width="893pt" height="710pt"
 viewBox="0.00 0.00 893.00 710.00" xmlns="http://www.w3.org/2000/svg" xmlns:xlink="http://www.w3.org/1999/xlink">
<g id="graph1" class="graph" transform="scale(1 1) rotate(0) translate(4 706)">
<title>models_diagram</title>
<polygon fill="white" stroke="white" points="-4,5 -4,-706 890,-706 890,5 -4,5"/>
<!-- _diagram_info -->
<g id="node1" class="node"><title>_diagram_info</title>
<text text-anchor="start" x="8" y="-643.3" font-family="Times Roman,serif" font-size="13.00">Models diagram</text>
<text text-anchor="start" x="8" y="-626.3" font-family="Times Roman,serif" font-size="13.00">Date: Apr 27 2013 &#45; 02:30</text>
<text text-anchor="start" x="8" y="-609.3" font-family="Times Roman,serif" font-size="13.00">Generated by RailRoady 1.1.0</text>
<text text-anchor="start" x="8" y="-592.3" font-family="Times Roman,serif" font-size="13.00">http://railroady.prestonlee.com</text>
</g>
<!-- User -->
<g id="node2" class="node"><title>User</title>
<polyline fill="none" stroke="black" points="464,-253 652,-253 "/>
<path fill="none" stroke="black" d="M652,-253C658,-253 664,-259 664,-265"/>
<polyline fill="none" stroke="black" points="664,-265 664,-473 "/>
<path fill="none" stroke="black" d="M664,-473C664,-479 658,-485 652,-485"/>
<polyline fill="none" stroke="black" points="652,-485 464,-485 "/>
<path fill="none" stroke="black" d="M464,-485C458,-485 452,-479 452,-473"/>
<polyline fill="none" stroke="black" points="452,-473 452,-265 "/>
<path fill="none" stroke="black" d="M452,-265C452,-259 458,-253 464,-253"/>
<text text-anchor="middle" x="558" y="-468.4" font-family="Times Roman,serif" font-size="14.00">User</text>
<polyline fill="none" stroke="black" points="452,-459 664,-459 "/>
<text text-anchor="start" x="460" y="-442.4" font-family="Times Roman,serif" font-size="14.00">_id :Moped::BSON::ObjectId</text>
<text text-anchor="start" x="460" y="-424.4" font-family="Times Roman,serif" font-size="14.00">created_at :Time</text>
<text text-anchor="start" x="460" y="-406.4" font-family="Times Roman,serif" font-size="14.00">email :Object</text>
<text text-anchor="start" x="460" y="-388.4" font-family="Times Roman,serif" font-size="14.00">encrypted_password :Object</text>
<text text-anchor="start" x="460" y="-370.4" font-family="Times Roman,serif" font-size="14.00">group_id :Object</text>
<text text-anchor="start" x="460" y="-352.4" font-family="Times Roman,serif" font-size="14.00">is_admin :Boolean</text>
<text text-anchor="start" x="460" y="-334.4" font-family="Times Roman,serif" font-size="14.00">name :Object</text>
<text text-anchor="start" x="460" y="-316.4" font-family="Times Roman,serif" font-size="14.00">provider :Object</text>
<text text-anchor="start" x="460" y="-298.4" font-family="Times Roman,serif" font-size="14.00">salt :Object</text>
<text text-anchor="start" x="460" y="-280.4" font-family="Times Roman,serif" font-size="14.00">uid :Object</text>
<text text-anchor="start" x="460" y="-262.4" font-family="Times Roman,serif" font-size="14.00">updated_at :Time</text>
</g>
<!-- Submit -->
<g id="node7" class="node"><title>Submit</title>
<polyline fill="none" stroke="black" points="353,-1 535,-1 "/>
<path fill="none" stroke="black" d="M535,-1C541,-1 547,-7 547,-13"/>
<polyline fill="none" stroke="black" points="547,-13 547,-185 "/>
<path fill="none" stroke="black" d="M547,-185C547,-191 541,-197 535,-197"/>
<polyline fill="none" stroke="black" points="535,-197 353,-197 "/>
<path fill="none" stroke="black" d="M353,-197C347,-197 341,-191 341,-185"/>
<polyline fill="none" stroke="black" points="341,-185 341,-13 "/>
<path fill="none" stroke="black" d="M341,-13C341,-7 347,-1 353,-1"/>
<text text-anchor="middle" x="444" y="-180.4" font-family="Times Roman,serif" font-size="14.00">Submit</text>
<polyline fill="none" stroke="black" points="341,-171 547,-171 "/>
<text text-anchor="start" x="349" y="-154.4" font-family="Times Roman,serif" font-size="14.00">_id :Moped::BSON::ObjectId</text>
<text text-anchor="start" x="349" y="-136.4" font-family="Times Roman,serif" font-size="14.00">created_at :Time</text>
<text text-anchor="start" x="349" y="-118.4" font-family="Times Roman,serif" font-size="14.00">problem_id :Object</text>
<text text-anchor="start" x="349" y="-100.4" font-family="Times Roman,serif" font-size="14.00">problem_type :Object</text>
<text text-anchor="start" x="349" y="-82.4" font-family="Times Roman,serif" font-size="14.00">score :Integer</text>
<text text-anchor="start" x="349" y="-64.4" font-family="Times Roman,serif" font-size="14.00">solved :Boolean</text>
<text text-anchor="start" x="349" y="-46.4" font-family="Times Roman,serif" font-size="14.00">solved_time :DateTime</text>
<text text-anchor="start" x="349" y="-28.4" font-family="Times Roman,serif" font-size="14.00">updated_at :Time</text>
<text text-anchor="start" x="349" y="-10.4" font-family="Times Roman,serif" font-size="14.00">user_id :Object</text>
</g>
<!-- User&#45;&gt;Submit -->
<g id="edge2" class="edge"><title>User&#45;&gt;Submit</title>
<path fill="none" stroke="#622a02" d="M505.857,-245.503C500.352,-232.465 494.786,-219.282 489.366,-206.446"/>
<ellipse fill="none" stroke="#622a02" cx="507.436" cy="-249.244" rx="4.00002" ry="4.00002"/>
<polygon fill="#622a02" stroke="#622a02" points="489.339,-206.381 489.594,-195.418 487.394,-201.775 485.449,-197.168 485.449,-197.168 485.449,-197.168 487.394,-201.775 481.303,-198.919 489.339,-206.381 489.339,-206.381"/>
</g>
<!-- Problem -->
<g id="node3" class="node"><title>Problem</title>
<polyline fill="none" stroke="black" points="240,-235 422,-235 "/>
<path fill="none" stroke="black" d="M422,-235C428,-235 434,-241 434,-247"/>
<polyline fill="none" stroke="black" points="434,-247 434,-491 "/>
<path fill="none" stroke="black" d="M434,-491C434,-497 428,-503 422,-503"/>
<polyline fill="none" stroke="black" points="422,-503 240,-503 "/>
<path fill="none" stroke="black" d="M240,-503C234,-503 228,-497 228,-491"/>
<polyline fill="none" stroke="black" points="228,-491 228,-247 "/>
<path fill="none" stroke="black" d="M228,-247C228,-241 234,-235 240,-235"/>
<text text-anchor="middle" x="331" y="-486.4" font-family="Times Roman,serif" font-size="14.00">Problem</text>
<polyline fill="none" stroke="black" points="228,-477 434,-477 "/>
<text text-anchor="start" x="236" y="-460.4" font-family="Times Roman,serif" font-size="14.00">_id :Moped::BSON::ObjectId</text>
<text text-anchor="start" x="236" y="-442.4" font-family="Times Roman,serif" font-size="14.00">contest_id :Object</text>
<text text-anchor="start" x="236" y="-424.4" font-family="Times Roman,serif" font-size="14.00">created_at :Time</text>
<text text-anchor="start" x="236" y="-406.4" font-family="Times Roman,serif" font-size="14.00">description :Object</text>
<text text-anchor="start" x="236" y="-388.4" font-family="Times Roman,serif" font-size="14.00">description_html :Object</text>
<text text-anchor="start" x="236" y="-370.4" font-family="Times Roman,serif" font-size="14.00">large_input :Object</text>
<text text-anchor="start" x="236" y="-352.4" font-family="Times Roman,serif" font-size="14.00">large_output :Object</text>
<text text-anchor="start" x="236" y="-334.4" font-family="Times Roman,serif" font-size="14.00">large_score :Integer</text>
<text text-anchor="start" x="236" y="-316.4" font-family="Times Roman,serif" font-size="14.00">small_input :Object</text>
<text text-anchor="start" x="236" y="-298.4" font-family="Times Roman,serif" font-size="14.00">small_output :Object</text>
<text text-anchor="start" x="236" y="-280.4" font-family="Times Roman,serif" font-size="14.00">small_score :Integer</text>
<text text-anchor="start" x="236" y="-262.4" font-family="Times Roman,serif" font-size="14.00">title :Object</text>
<text text-anchor="start" x="236" y="-244.4" font-family="Times Roman,serif" font-size="14.00">updated_at :Time</text>
</g>
<!-- Problem&#45;&gt;Submit -->
<g id="edge4" class="edge"><title>Problem&#45;&gt;Submit</title>
<path fill="none" stroke="#e13c52" d="M390.284,-227.349C393.222,-220.327 396.151,-213.33 399.037,-206.433"/>
<ellipse fill="none" stroke="#e13c52" cx="388.713" cy="-231.101" rx="4.00002" ry="4.00002"/>
<polygon fill="#e13c52" stroke="#e13c52" points="399.084,-206.321 407.096,-198.834 401.014,-201.709 402.945,-197.097 402.945,-197.097 402.945,-197.097 401.014,-201.709 398.794,-195.359 399.084,-206.321 399.084,-206.321"/>
</g>
<!-- Contest -->
<g id="node4" class="node"><title>Contest</title>
<polyline fill="none" stroke="black" points="240,-541 422,-541 "/>
<path fill="none" stroke="black" d="M422,-541C428,-541 434,-547 434,-553"/>
<polyline fill="none" stroke="black" points="434,-553 434,-689 "/>
<path fill="none" stroke="black" d="M434,-689C434,-695 428,-701 422,-701"/>
<polyline fill="none" stroke="black" points="422,-701 240,-701 "/>
<path fill="none" stroke="black" d="M240,-701C234,-701 228,-695 228,-689"/>
<polyline fill="none" stroke="black" points="228,-689 228,-553 "/>
<path fill="none" stroke="black" d="M228,-553C228,-547 234,-541 240,-541"/>
<text text-anchor="middle" x="331" y="-684.4" font-family="Times Roman,serif" font-size="14.00">Contest</text>
<polyline fill="none" stroke="black" points="228,-675 434,-675 "/>
<text text-anchor="start" x="236" y="-658.4" font-family="Times Roman,serif" font-size="14.00">_id :Moped::BSON::ObjectId</text>
<text text-anchor="start" x="236" y="-640.4" font-family="Times Roman,serif" font-size="14.00">created_at :Time</text>
<text text-anchor="start" x="236" y="-622.4" font-family="Times Roman,serif" font-size="14.00">end_time :Time</text>
<text text-anchor="start" x="236" y="-604.4" font-family="Times Roman,serif" font-size="14.00">introduction :Object</text>
<text text-anchor="start" x="236" y="-586.4" font-family="Times Roman,serif" font-size="14.00">name :Object</text>
<text text-anchor="start" x="236" y="-568.4" font-family="Times Roman,serif" font-size="14.00">start_time :Time</text>
<text text-anchor="start" x="236" y="-550.4" font-family="Times Roman,serif" font-size="14.00">updated_at :Time</text>
</g>
<!-- Contest&#45;&gt;Problem -->
<g id="edge6" class="edge"><title>Contest&#45;&gt;Problem</title>
<path fill="none" stroke="#6462ae" d="M331,-532.886C331,-526.546 331,-520.064 331,-513.515"/>
<ellipse fill="none" stroke="#6462ae" cx="331" cy="-536.919" rx="4" ry="4"/>
<polygon fill="#6462ae" stroke="#6462ae" points="331,-513.177 335.5,-503.177 331,-508.177 331,-503.177 331,-503.177 331,-503.177 331,-508.177 326.5,-503.177 331,-513.177 331,-513.177"/>
</g>
<!-- Group -->
<g id="node5" class="node"><title>Group</title>
<polyline fill="none" stroke="black" points="467,-568 649,-568 "/>
<path fill="none" stroke="black" d="M649,-568C655,-568 661,-574 661,-580"/>
<polyline fill="none" stroke="black" points="661,-580 661,-662 "/>
<path fill="none" stroke="black" d="M661,-662C661,-668 655,-674 649,-674"/>
<polyline fill="none" stroke="black" points="649,-674 467,-674 "/>
<path fill="none" stroke="black" d="M467,-674C461,-674 455,-668 455,-662"/>
<polyline fill="none" stroke="black" points="455,-662 455,-580 "/>
<path fill="none" stroke="black" d="M455,-580C455,-574 461,-568 467,-568"/>
<text text-anchor="middle" x="558" y="-657.4" font-family="Times Roman,serif" font-size="14.00">Group</text>
<polyline fill="none" stroke="black" points="455,-648 661,-648 "/>
<text text-anchor="start" x="463" y="-631.4" font-family="Times Roman,serif" font-size="14.00">_id :Moped::BSON::ObjectId</text>
<text text-anchor="start" x="463" y="-613.4" font-family="Times Roman,serif" font-size="14.00">created_at :Time</text>
<text text-anchor="start" x="463" y="-595.4" font-family="Times Roman,serif" font-size="14.00">name :Object</text>
<text text-anchor="start" x="463" y="-577.4" font-family="Times Roman,serif" font-size="14.00">updated_at :Time</text>
</g>
<!-- Group&#45;&gt;User -->
<g id="edge8" class="edge"><title>Group&#45;&gt;User</title>
<path fill="none" stroke="#d7ca01" d="M558,-559.741C558,-540.195 558,-517.795 558,-495.379"/>
<ellipse fill="none" stroke="#d7ca01" cx="558" cy="-563.865" rx="4" ry="4"/>
<polygon fill="#d7ca01" stroke="#d7ca01" points="558,-495.089 562.5,-485.089 558,-490.089 558,-485.089 558,-485.089 558,-485.089 558,-490.089 553.5,-485.089 558,-495.089 558,-495.089"/>
</g>
<!-- Output -->
<g id="node6" class="node"><title>Output</title>
<polyline fill="none" stroke="black" points="691,-577 873,-577 "/>
<path fill="none" stroke="black" d="M873,-577C879,-577 885,-583 885,-589"/>
<polyline fill="none" stroke="black" points="885,-589 885,-653 "/>
<path fill="none" stroke="black" d="M885,-653C885,-659 879,-665 873,-665"/>
<polyline fill="none" stroke="black" points="873,-665 691,-665 "/>
<path fill="none" stroke="black" d="M691,-665C685,-665 679,-659 679,-653"/>
<polyline fill="none" stroke="black" points="679,-653 679,-589 "/>
<path fill="none" stroke="black" d="M679,-589C679,-583 685,-577 691,-577"/>
<text text-anchor="middle" x="782" y="-648.4" font-family="Times Roman,serif" font-size="14.00">Output</text>
<polyline fill="none" stroke="black" points="679,-639 885,-639 "/>
<text text-anchor="start" x="687" y="-622.4" font-family="Times Roman,serif" font-size="14.00">_id :Moped::BSON::ObjectId</text>
<text text-anchor="start" x="687" y="-604.4" font-family="Times Roman,serif" font-size="14.00">input_type :Object</text>
<text text-anchor="start" x="687" y="-586.4" font-family="Times Roman,serif" font-size="14.00">output :Object</text>
</g>
</g>
</svg>
